<mxfile host="Electron" agent="Mozilla/5.0 (X11; Linux x86_64) AppleWebKit/537.36 (KHTML, like Gecko) draw.io/28.0.4 Chrome/138.0.7204.97 Electron/37.2.1 Safari/537.36" version="28.0.4">
  <diagram name="Page-1" id="8rms_GC3wMCkpR1ph9tv">
    <mxGraphModel dx="679" dy="400" grid="1" gridSize="10" guides="1" tooltips="1" connect="1" arrows="1" fold="1" page="1" pageScale="1" pageWidth="2339" pageHeight="3300" math="0" shadow="0">
      <root>
        <mxCell id="0" />
        <mxCell id="1" parent="0" />
        <mxCell id="7rmnt4tBS1aKSuY08tFZ-1" value="" style="shape=image;imageAspect=0;aspect=fixed;verticalLabelPosition=bottom;verticalAlign=top;image=data:image/jpeg,/9j/4AAQSkZJRgABAQAAAQABAAD/4QBYRXhpZgAATU0AKgAAAAgAAgESAAMAAAABAAEAAIdpAAQAAAABAAAAJgAAAAAAA6ABAAMAAAABAAEAAKACAAQAAAABAAAE3KADAAQAAAABAAABoAAAAAD/7QA4UGhvdG9zaG9wIDMuMAA4QklNBAQAAAAAAAA4QklNBCUAAAAAABDUHYzZjwCyBOmACZjs+EJ+/9sAhAAICAgICQgJCgoJDQ4MDg0TEhAQEhMdFRYVFhUdLBwgHBwgHCwnLyYkJi8nRjcxMTdGUURARFFiWFhifHZ8oqLZAQgICAgJCAkKCgkNDgwODRMSEBASEx0VFhUWFR0sHCAcHCAcLCcvJiQmLydGNzExN0ZRREBEUWJYWGJ8dnyiotn/wgARCAGgBNwDASIAAhEBAxEB/8QAHAAAAgMBAQEBAAAAAAAAAAAABAUCAwYBAAcI/9oACAEBAAAAAPlX1hz7NtLxvmeN4T9MvxeY0H1FBlPor8hZS0ICIWJQ9INRCTpv5aSm+XZ2vW/Uny6s3qDMrk9n13QQtYE8umDm8tm5vNQLm0/1AP45i9R9T2bIIMaPzCvTl5ZBr8Lm3v1J4xL90NsTi1/pRjznK+Vevs9KimMYzvItgEtV02ykXOdttnpEH3cgN8f+ktjM+QSg+cqri9iUmzw/0w9ZqmFkY1jxvHO9yQwDHQNsbQRjMSo81+nabs6c9k8kNAr6xu5GsbI8oGgvhenATRHfscD89N+nbshDSPC3LbP2Ry2gBxTzQ7jxZA+Y3Z2ZCp9D0Ye9Grt3eWQGjLk7yJUgLwYX2+v763t0pGG3wrF+UbjVlDqfYzG3C0fSrc8lU/Xmq+o0lp2vwsWFsuBmWsHWE+XaPfpvkaezR/TGhnSML8jH5Fn9M15GhusugcGvGgDKobNE205zHr/rGk4ky7RzOk/wGBNcqDHjZYpeCQcaMVFX3vo099TGV3u+4NzvrC74CAhC1Ekytrl2ErbjTba6BsBvr2C9Xdi8eYDzX6NRn0+63awIXW0VSQP+EhKsVZ9UK2EPh2J1ukK+bobd39AJo9PA/P7b2rTRL9XqmjS6pVk8NY7Xh6Igxdmuq0izetCc9gt+9vZdpX/PZ6Dze7ynLNGbh2JoHeXpC6OJKNMJzn6MabJeIJ7AJeHDhN/vc56uVppRNlFAqZsz53wuHwzxSbq2ucEC2W1FV5z6YSIv7K7F4mqW71rJoq+Eqr/obLE51l9K0XvXC5lA6elFNFQWmbH5LK4cO0Jk9STE2meVPK+AMiSsYt+jGF2VLRKwJvyyxc7kGWl0J1u40IS5AmUD+p9Kz3bORqvnO66FIa8L1xXvejVyFxZZNvaqBoRkdWdn8ZldBee0UrbaW+qbL8h9I6UDcp8hzulC6nM+kL/jIZv1+/CqtPtGCWZ/V1rFYko0JQqsjFY0GfPe7dyGqy9Bjd4TRPnc6RDWsqFWZ2blOsYXnCZzN6bQPGB7t/akUpgoL6Y3WWe7yvl1ttlkKQl4Mbyu+5TXCJRxZc4UC0X0cdcaZDEZbQsj/I++gz3DBdmtmdUQigWgEc5FL676G9+GDaL6SclmObPlB50QYYPMQ1e0Ypfm+d9KspvE6oZirWj8mz0LKmulWn5sGaRU72PvBKYCOssLrWjO4skksxiSNlUYNVl9sPVQlO++2fhwQR67SPRgPHkyziyO1jDDc0fbfB5rFZ7VaoTmYpaqtDuWWbo1jUNVRQAa2n89D2k2nPkCbU/QPXCUl3l9GK5Hvy/I2aX6MT3F/N+1MNeUKOL68JQODInSu4jgjJ3bhflNhpXVq7HjFLCwLdiDn1VcCHGmbPnKpSHVYVZyNFPZ3EkTspCXDxsI5RTTH1jE4qyNQ9FBkaWHgx/nmd3reUU9VC999BIRaHQLxFafopr85SoalqTvmCTR/SAiaJcuHl7sGXvnGRL+qNLjVXzynMG/TFCgcYQ7XYxMBQTpXt46hfZYxCH1r1j7HowNCxXLDKsd021abvXpfI01Q9Mm31dAfLiSbyLRxQQ6yL6qaRoeJZGkzhVSLVAqmmqSfEU65yMTWEJl9PsHVrlll4JF2llUx4fEG5KbnsB9Db1jVG1TlyrOH63ydOyYXxLtTr8Is+x4SqKZJYdfxesI0WqMoTIYAaXr9pcUAKdnutKPL8RJtI0bO/TtJ6HI1VVyKv7AUOm4kwgq2gUMOJEq4UCV9MZk22QoGHpEp2aZeuSZF5qy1LK0fMZh59Hen6ENJmsaf9Q6rsfnhg9snns89jBOu0ghJHsPkGWi1pN8hjeBXGWYLMbrP2SyiPntISsQy0OyZST5uHGlhrFqJW88qS2kVq0Y+vMgLnHe37yHo00SJJsgKDCVpRhE6hxRO38r8ODVeYxJl2qgcapHMwi3MpANE6kPE2Gaydv1vYkFhAfIM69+qrDGW2RwvEWlSHR0TUnmcIiFgFHWO9fXRzjJmMFqWQHygUhvUhy4rF9eszPmm80Fi1MoAZMJMi4Ojr1Y6GxgkTIqGjyZuh1oK3lcBYWlFWQBF7OZVt/ah6KPW9hwcGu4o8ztddIw9SYrx+eX5t3qo11mHV5HKXfVdeg1I2I+Z1vtNjyG/wBTLDYAq2k5KESDVXd77uTzocIb3XTVr9B6hbfry0HzGGktoWhSJghzUzNZtmI6zIBEksOuSmfmIwqQFxZickCduZWfQ9QPmhaKheWFlS8ML2VhHrOVU1Qrsnz1AFNxxhUo0jCUwruhl/ZnugavGeRaM83hFrP6+sH3kPjiBwStU26LS79yOt9UGSkpAb2W1yEzmLG9dqN80lJZmVhU3eyLy/zQzVVUDQrDyCkqZf0LWTX5Jd2yFz/QqLndDJOiMkhzOadaqVWz+iTySqqFNVppXeVDRnZOXJUV11S73vBAaCmJxPo1CCUzjWNiYMi9FZStoKd5/wCejuPoKTc6PK/LXzvN5Wn1uk+naAccpFUcLDxZVy8SlPkkfuMvqTdylz+OR3aQh4702Y+bW7GdcFmRztdhRJf0hwKkz4s7GWgKvPlOQymJqdStvO8r1X0EnNiU0hVWsC5xqp56cpzhRVVCz0vQDAGLZsCZcoGEKa5pSrypmxKbC1TVjO81iIPm2d+q6zNZrT57IIIe66+t6jP0F3rZRotB0IAtlKlepz1Dn6U/oAx+UV9cbO3rDd5r5oG+NX51PDtpXhydHq4JFvSjm8tUGyV9j2s/OgdsiPnd79Auzi4UOiNp5t3qauxl6dlNFdUJy5KIC6g5m0v5Eeopwx+SBBZN1pSoNWqcKLQf56i2TrObfWKuwxOKGjca73ux7n7VoqgrjebVV8/tNY1DZxPqNrpAYIPm4Hnmjytze36wvw+dGrKoHpvJ4kgy1zWlZxwdYeZI62riphzuLccExVn1DZjZkagOjtxht/K6vd52ydQtFMJ2z8KuXdZODrfV1mNmRXxQNGn5tNaTA6oIJkvyeQ+gaZE0cgXIcwmApK0Op+gyAjVnFaBiuevGPzZCOXo23eo9M/lZcn+bILdepSaB8sq2LwERdAWjHVFv82rcaNq0EtaSHcytupPMWruXZdbTn4636UTkEbfo9VZBxd/oQ5ztlk6RBx4WXS4GsAvatzZxke1OLv8AzuuGz/dxqjOrWQLFmizyLYPUrA9gIhrSBDH6gl6N5lMX5nijiJPD8QnHI0Ohb0lHWXljgZcDRcBGuYRCQGt3pRJY+TyQzSOMM1ThrC+7qrRW+aEzLGAyvW3ztfa92THPJAmbKgeBBpd3Oc7zs5+qFFo5dOVQwIl7VmZIliyYk3y/ModOds2bxv6uhjeIQgQbRmrPY2KiTlDKtN0/vmZ88j8yzxgjHWWYZZVxtujrLj5AmlWRXE3BgCzNEMpUBbIy6ykJIuHyUNCzNLidAmxgU0LuhWPmVLvKvhTDkeV1pY9NVHLyibux9P3e99SLQP62fqRxRL2zQtg1POKvs7+WxQld+saOJjDKjXNa/P6c84s0XL6whdXZaNLkPR8JhsvAfr92oRLuX694a0vXwHbMaKRKejdKsB8y8KCC8PM8sGX41a8ZvZ+XyNm0bXzifTT4IQhzPGY2jXHlXKKKuTIJu76ffd9LlItNPJ2SgKIGUzau3pxZN1ku/kmkRS11ri6Xsnk9ho71yrTagIkZRLaTkiXSKtn64ahHms6mhfqXQuXS0sdJomJETbJi1XhDepWBQZdZR8jvNvbM6wVqPOhl6pncvo9JgxbEgu4kCFArC2J+YytrljWqH7GPLyp9sn7ne+9UJRH3rZwoGEtZabTNDL7ZS7z8n0UQbc2Pa6kOHJ1T6Wb1zailcTpHd9lCwZawYe4IKqwWZti70l4SXNre6fXmU3k8HifWHQGkV+YaVuV6nL1GhvzrxwlOV53RvLaqbLGttbK7pRvgQFxLuKxFMk+lPd2j3biZSnPseel2kSmrvrZRpHGv0+qeHFW973kPyRdP1rm2hwDm8trd1UKhL0CAgrYtowsjTZ6gujOL/U5+gi+guwatCsNel1phdGWeVZQArz2bC6dt3Hkk2VHb1pr6S1FlSx2mie1HIZ9ZFWj3+bxIDXjNrkS+wqXhb+UTnfy2c5+hz0/UC0VejbLldNej1D5mVfOcOVw/Ihaog19W6XV4pY41bwZKymrau9fXNH45hfEbPBLoBGGizGquuBqsFvZ39XVRyTHXQj2GTzIMdRrL5oFOkMYDJdFfnN9jMfQCx27yMKuiOWU1TGDkK2S9ceXng7ZlAdNrhGV9kvTlX73ZwooorqjOXY+0Olcsy7re11Vwr/IEOVaV48DFzmWctHrUNcNFXq9Y0FoCv03IFrUyBKgXaPQXEDF8WwnIosm8eNFqFYdcQauXqM471JlGfzOj1V7G6kNHVqcTnaZO2TFnbAbxBVpwgJpl3rbFd6pa4XlpGt/I1evt9Kfoe76VQo1dcau9kRpNO1OKul6mmmiHPyoIuv0epaLI53Kuts4rWIqvc2LQ6ukV62puvAwOKVq79KxZuu9EjEj1ZXryKaSKwqVgDRgQL6ugcNZPRWoydAwqTNxvlxAxuhtbH0UB3Fn+KIAuM9EmwcOzNitmFNBfo1xunP0uw73nBwx4w8Py0zU6pmaVZyAw9IIsPfmpXA/bUMGizIoNNpW5i3KxZ0ac1mQiSaTTGkos3lcolEJb7XQ8GjcGXON1lNdpN/ABw/DUG3V2VpcvHQaC3G5N/wDSfWPLvmGbJGu0LZleEtJItuFa0mzGKepPX1qT0SNqWffyuv0uz97sZ9hWMJT6MB5MtZq2RxNnKwwqBQR6u/mwZhqSm7UQHLoDXmikOgz+lNfa2sDNY/dNNMEqEz2OVUF7ByxMhIuXKKZUG8tojeCJL0IdD9ILO5hxvCxMuo19+V0f0cbO5FXM7RGs71i08xcRTBq3gr6ZePdYNRxZVNqVGir3uy93kpehSKJXZymlhr9c0MLshWMuCFopFpv/ADPxw12lw00IKtg8dxozWf17t9BZHKZF1vtMAOGnxCiENW/bTvut7Xd4aomkfnO+5KmFdcuzmCJKbTo8bw8Nq9Z7KJqbzdMRdcKqEZwODKLvbgxombT2IFThYA2Iqpq7zvJS52UK6xRfW8HL1ezaFlWchWvXBAW1gxu/NRzTby9UlsGpZa7tCZdii/oblTf3EZJp9d1IQwGeSIQWbt10cxxZC4bl8aKUitgrzTvYzEpqh02Y9wSWzVsBjQVZssYhekcctyKwvA0s2FIxVpDAUiyK023tSe2MWMq6aZ99GU+e9VTEai2fb9TrGpJFvIxGWLV45dYUy/z0e/uYU+QDXNWDaqqxBlGOwIJZr8Lm9LpddNYvvQoIMWxINbUoygH11EL0mLVcvDXHbl6CJnKmpjDg2Zv3bEzxdPct8uM1aZwye2gwURmLcde4lOg7lnYeI9IIVeaRyNUJz5XKfvcpqpo5fbbo9c1Ius5KqoQFWs8bQITP4e4dyPRLkvCNNa7HtiiVjvDG5lOTzKbU7wAzUJEgrKwaIV2hutHXkLvFLMXixJy9YXodD5JkgrT3bxcHPV6K22q0PGYfU6CFbZoUs6EFSukYwvOMPjaE1HopYXLvZtvbVRXZd7key52FMKaeXMtBq2pE/R7GquhaqVWEC8Jl8mdjOxFQqxZTvGB0wFRla16zaQlifnImi1du0OQnV3JLQwn7BgKHUnkRTm8Qor9OcZMtieqxghcyNGMLuWXZ8nzFYo3aXnVuDy0XzfbM1Ilypofe6jcNdTIsUi8eSa+dI0brexj33pRqqpo821Glc3d5GHKaY0KVC2V9MGHvmTsVvEYJNlVmg0OzVAn2ijMyCXSv5lmg3DVx9AKLHB9X3PXmP7AR01fS1eVzAFXb2xVB+gMhUmQs3hCWvXsky+/VKfm09OdKyTRt7L4LYP4xVUmnzaX3jhcndz3PF2LPUwlZKUBuTlL1NA9LTVaR2XOFNcIUU+FASqLLKiWNvzAuhvG4bMZxURr9kQOWosEsMtLUZHLDz0G12tMRRWtAwgDZgbnM4M2f+SoM6h8Y4d3V8t8UeOyupmHwtdhIaDRDq/EG1EyPa9z+YR6Nz7ghjHjKHYdjycJHU0sl1lEZdn6uiqU7Kqh6jtW9dMLeypFGqGlYGqz4l45LdiR8tXMR+ljolQ3TNuFql41y0Yqw3uaxAFpX0TZ1hhtvCLOnmzVYnP6hqzhAdCtIZkWW2jh2XHlctL5yNajGutdTnvdJIsInV1kHnx1FWlKGIq6eVcIRZIau3zhY0DlHnvd5VVV3vY01tNK4YmE3E+oCDD4X4FFnYGQaNTiPiMTrgyl9MBbHtUbCPRsSzbmNsdgV1B/2XzZa1grjaunCpTlB25Ts6Fg1FE5zIjTSNYYcTeRMcVbIm6zNomlbJsXy4OIi4AmYUKXlwRHSjoCHVGSnCYx/a+e5OddNdUI95FtqWRt9hZl8A1wozC+pZms5Ak58zNu/PDvjNbJW4qvFFWl2HmnDZ6TNtej+fo6NHsXeimPJIRxSuurQ5GhppXZ86ocrlCwng8IVEFFStsqX4ljuKIALaY3s2Nogo98AVcmTBF5ly02m+r1l5ZEKTR66rbO8nKqiuir0vMNW3Jv8WXdOoBYNefZSpymYodOXjg2X5y44toDPPosUQsgEaxdAyTXFWQx2Zi10u5f59ms71XmoGBJFEi9E4I5ZGyuuontNlPY3TvYd8IGud1LOUBC5ef0PSXhBjdaK0tRrMvIu7O+J9cRT06fYlD2AQI97vq6h6KrLTH+iOnTxiRZUGrA8yZToQZLMy0jnStCOfmoF7dLgB9gt1EhajC26cxcWznfnMkqJ0P0dcQzXVcUrklRgQ3GrY+3tMZD0F2W0KSDozILriAo0bg1Dmp8v+dCanc1H2hhy5cuXZWz6IsLb2Qu4Z33bT/XDG18Xqq59jXXTTyZz7RtfVLbmF0g0qjlzZnbQizKotppNGZOr8vLjabK9PWVZOKuSrrzjK7NWOmRabOqy9r6shkDASpFk7PHM7zCuErqL/DWcunWGawqANJoovMZkUr1S4z1HWWfzuzYUCBn3GAfM1ep1Rjw8LNI7Jt3ja71DAksezKen2A4sI9L02ia9oCCmZaCuTB2mOTiQlS6BDR8zu8P+WlwvOX6PjJrEPgI9p9ptmdI4eymqqb313uIqISVZLNhsnxzAj1wSZaZ4FeQdpXPZcV5dyzzBOuOJjQpGXeKPNOEUFSFMzafVNQ/nmckw1+3Q4mZZa9T7UvLPFuo45xpQvTrHFq6S+1bEjgoA9F3V9K4eZ7QkkAIfp75gZ0cL8550L1RtzV8dL3RR6TJsPnLhgcwNFgaySFmsFEa7Mti1VZnn746Y+fQrSK6rpONU3N4HlMc326KzbnCir1UB4tnNs+8gFUcEGSxpQ/Ogo37zK9bMT7ki6irtsZNbdLp64ejUOPcz0z431QwdI0aIjicsYlkjg00tXzEqVAYP5/Ur4Quk+KeLn2faggkKxw9ob0wAQjVr/cYqKz+J0ON4LVa+0dsOAY8SqfrGj7UaljcMmx9JGdN0VtQSdAzSMnq1ppzsplJ6o4S1vO+vJ/PhY+vsuYsypzXiUeixZO73/IxjTRZfoH7C6qiiFI9XJzoEmxnFaviw0jM+6Aq4D4jSjFpstuKfnkrjo58O5PomZ8V3oaGlYxtPTEtVYeXzC3sbHjN2Z3KAaJx3pp5RVltnkeav0YxOhKp4jUZZG0QrGmuO+fJGOqLya7Vaq++jL4lfD3u+8y0RQ49AxhrjaOktPvRq7cw0LIisSMYCA2klXCUev4CBQy0bc2/tQq8H42vUjAzYCsGDKT5RQHSFaM1a9s5cmBFdvKiTeDj5bMprqJHaV5pzWvsakqkyIplcQyZgZTmpajBpatm2MSqBQco61NucDm89kkMpDNdXNBj0dMfelzWMxqa6bWL36OEiNG5y+8l6xs8INUPTTSeyN8MJCmqupxomd90a6BBafz7fUuV+tJPBfvQxiaLFIwzhifCmhJnx9Sc1JtZrVEMWno6RvPpbHMirkQKDzB4fozbLuUDKlTdnWOGbsSlwrE4dX7kggrZ9LDUIM46fk3IEKAQKNvHOio4J69j9B0+XVMaazmFzQ0qAgYVA0jbziTaRFAXTCHOhPn6gaugccb8/3kLV4cCJ+NL4W46KEmrcMrFr9AuRjmGvy2DBdVbkc7d9Wc5PHXF3wJptPcW3p7PGvWMqxuXDr80mc25321Y8Ikv9MigQq+nnKB/E0BhpVaBbKZ+mF6oZW6zX35k273SDymRFlAA49UCiCDPGjL0Vbxo5cF+5QCPTRSKN+diyrBRFfKCIjaE7QgGLFtESg9pYKpzyyY2lL1/qjR1+oB+Vo2FL1nKEtJdRB44NLt9QKKOGO7vgrmgB8mvXrWOgEzZ2icVKqHNrC+2U4dAXKs9kvXHt61Xmmu0zseJCiTW3xTKVVXYhjxMJnZZMNSpdPnja70Rww6aB6BgvhtvoW0iLqyBTBW2psmm8vuBP0tNStUIHTXsdKVF26BwGYWQEPdt3b3UAzI8pR3EWXmnQH7wBSnT20sJ5yymk/XxxuVqfE5mljPmvZQaM/U8EVY9Ee3lxMy02ocsrrV4ZFxUy++jdOFFHLyew5QIov0Wic3eiGEPVXQMGAB8opDIhZR1cITWAw1trEKgKrj+luGrmkWAXN9Q314+XktEZ1wM279cizyKqVI8G24LaljAVBDSLJozpzm8mGZyNLQLN5/rbYZ7I9JF6cKa30TekrijB2WXBEvtoaf7zBKzIKmYWLXMmyMKIysn4YdcE40L9lOAoQ0OUjBrFi/8A/8QAGQEAAwEBAQAAAAAAAAAAAAAAAQIDAAQF/9oACAECEAAAAOTkWnoPw2aEwcrzV7Dp6uTlF+w8CMVFOcVpfkK0cC8ove+5VA2ZBsxRjhgXy8y37xxPbmRcRWkm6kbp4uY91k5ZszbBEl1cwdHNornp01hNAwChtgr7HKx0oN09Eud6IJBK9eVeyKW40zlka1TgWnyRWtIGoWT357dTymuwTE5cSdthpK3TTjdg05oDW+XthzICB1dnFz91dSLrl4Ur0c1oa6hTbotOcEIRiVUFjhsDIHr3JnsESYwoT2Tks84FpTf0aSW4g/BKtpor1nqdC0PNtsFDgqubOuUgA9kOYW7IiPTOJjqM7TkfUTz0Afp7+XWlK/JyN0TUMWW3aqaQOyqGzIuYspXZKWHIF6eqa7plo8mZmrOdfTXzoZs/TSY2snDDpIQsQ/XMgz2KpmGGUvttl3QvIpbquOZl6GXhjRs4UdHTzcj9m4X6azFjpcLOEz5D1i0WQDZdtgVYk7K8emXPkNurmE69Tbn5a0tJ+nh5+hIN3qiZeh1sV5eZlfF0n3NXl6pQxAwxXFsHAtTj6Y8mDCs6qTSsZ36OjmFocKDO64BxFrUonNmZiwlekOim5hsMMBiymmd25OiHKvSIuXkwLhX6emHH2NxRUspzAYjG7cwd6ZVNkfIyYbFcMDlatGJ4yk59iwYkghimtued+jmAAzdR5htlXrfmmbVITXEXJkNthtlJSnTgzc7QjuvnnSuQFnzLzxGDU2rFadY5bCRx6G5pmtH2DV5lsFQHBSMpZ7lWbI/FB78bdBUWAZ6pxwUEPTKjbNddWONxy5rlyRiE2CbYDIQbdAVidp8k3pDXU7qWQs6cSEYjNkwz9MhXZKaGbqpjspaJUJhhgMLdKjPUTnCYZENHR+lpJtGZaQfXa3PF2ieqAJus5E9HSVJGCqsxgQpxfpCnVcJwqDXnUhnp1nmCImfKhv1YJx9HQkH5SbvBFqlLWJwAKSQbELtaxzBmYJwhN1R5irVp3rKM8VOyC905zIvttaFpqBcxe1H2CgRGw2wrdSzYlVPJNS6ROLV7WlzAyOtTnlig22OaqMBsHONGoQu2kuAOHRQByxKDDm01ARaEV6azkJDN0PySXDBQaauRr6JUsdqsFOXFcBta+2x202IkyQlsGYULHRTWfJHbMs0zu6KT1JpnDsgvQ+RcAUwGpdmbASfKxMLJGEgTU5NaLzPTScEpU0hzL0StzqKtPMWK9dJ1ZWyloc5UvfNVtKSWbHDmropORrWamqAA9bT5h1XfJGdVM1NC3LeYbn3XTaetss+fNegNKaKT1CTl5GrMJJXsZWYKg3TTTYssCJgLti+ngXeI6LnRZ1lbm175KNkRcGbbbnQ0wnIUoy6ukmvfQgasTkTM7IqT2m6hdn6rRxiKJa5TO2QBQ2GOioLgxnn6OWtKRV1ewGJOAm2po66zdWTIkkr1qZSYv0soOIDKFKq5X//EABkBAAMBAQEAAAAAAAAAAAAAAAABAgMEBf/aAAgBAxAAAADp7dM/Py78c9qpOpu8c3nydHS8uVdmkgRu4xjpms4bw11nCMtmwoFJTkcpiR09GuHA+yebqoacTpnizl6uh8mN9VzmkO6rLdBJls5WeWbtMpkpU5dKBAdm6x5deiM6Kq1xlVz1pl06EyWYZCaZ0aOFpMu7zyuMYZQ6JJoaEk0V12YY9RBNu6WOarC+imN8/J2b8eSi3SrpqMtstnlQ85xyt3Q2pTKcIBM7aOaesjEelNEk4VrWkyzLa8uGG862XTrnN04nScsXFUAJ0hpAhAzqs49ul48exrhWq2M5cvQ4H2uyObj1J0a31rK7cifLyu9ENA7QhCTJbOzLM6rMeTQvms16KgIbjhfZsJ582ZY099oZQgw57WmZSCmEgnI5GdWJ06Ec+FbIyk6d4mpbeHP0dE8z7M+TOmhadkqgRpjxud4TYNhIIQS2uvnvoekxx9SuOZTp0zGek4dW2b0jmqrJymoiurZNCmr4Inq53baGNS0JkpHVjfVTRnWdKM89Liefasr69EQhlBU5EXsISl3hjtmotsGAhJuJEdGWnXWU7So1zJhWZYadXPn1aMkGqGEvKehwQ21lKtZugVS0PN08gRsaa6c8dBJKlJXeS11zx2qSks50tjb5p6LUQqZnFPObYJoQ0CQIa16Vhe85KnnKJvai6nNVlqTitpeiaxXQyJQVGd1iUxA0DlIAgU9e6x6VnI85aUG2t0OJHYlEVM6uc73RikA1DQxyxpNzI0RCNd9jPR5gc6ulBvabAmmNxhbkpzekvCKhlTDToEqZNKUwzkK2vSLoMrjLK60T0U3UkTnprKox0YZ6aMWWKoByKgqU6QSgawB73ZntbcTHPOrp0QXajFU988a0japg2p5XGcJg3E02IbDNoSnKg6aqsr6CjLPlVaWDkdBjWpamQJ0WlBktJWcidEA2qRKYlBMaJb6tlbCFjzTelKyVFa02FEyJN0wJAmJStBnQxk5sHmPOdJe5Tu60yKxyzdGoGU63ZSLqcxFmL0VKYtxDYKsQoDORuJ0eCsbK20qqiKzDMtuJKsBaVQomrDClpIc1vOKLYpbG81EVMvQzKoUXtrpbjJFmNzazmrozU3vWdZ6W0mJDnCCKvJUpvRuUlMQGjlVRG+T0utXOYzMVjxVaVlEFXU2OlMrbOqWsYwPV4KqmmsZacToWodijpeega6REuVDscwAD1kq6BDh2qlK5xhPpnLR89VlkpE9KQOiGaWIm9Ws4oiasWS00pTEj0qErHQ7TblRjPUhznKwQD0ZlWjIBa0NOb0o57lQUUs2SIQ9m8zUyHNxZadZxrNpTnjJVlBM6tSyT/8QAJBAAAwACAgMBAQEBAQEBAAAAAQIDAAQREgUQExQgFTAGFkD/2gAIAQEAAQIB1G1Sa5czxcvfY2Xdci0K9tyRXSKvsjppSGELH80VcCv1pVn+KhEaSpDFEdRhwp2NvYoxzQvr2+bwCgOL1Pk/9V9+G/oWbOwVcIEjgZ3rKulbxWpr66/f67ea9432n8tq86jajzw+jV2qVmutFKwoEyNN+bZr2hZWaoLSTBuTWy3xf65/gYPXPJ/jgAYPRxsfHzjr1GD2B/C4PZ9a+atJ50cLnO1eucKAsi5c0WTRJi04IMOcjFaxG07fNYNGGdBOM/hrQK2um7lZbA4A10ki2+vdqW3NjbY88yzx6KWyfoMznCAOHjx8bR+W6q2M5GtNtHhrHUyBtZaGoptZ87gG+bMzmu1FWGniP2s4tO17woNrLwB/vg+h/Jw/wMGcYSxbG9AccAcfyMXB6OH1FdWaJVSrUevkExEec81kKMlCM8fjrdYt9O/K45SzQdlxlSx2kwZ8BMZ5HyB29SjZYbQIXNQwqlO+ceUxz2OAxbQP6ZUV+fl1EgSzZ9zbsm2UMnisnp9Nltpg2u0KWcta0yQXgirzZNhoMi2jCCRV64bxtsW15tZNlrN/Jw4BnPIzn2Sf4AHo42Nhw+gOOPXHrkEYuDOSeeYJGavPNkdON9lKGzqNYPk8dQmg5Fw5lSRokZuXZqLjO+1XyNtjW2YQWE8vTy2zI69o32NjYwtMamTcqyzx6bxYJEaqeN1/GLpWTTqtlxMONVtvZ32318lCtc6/pG3sLtslaNY1SU4E2o16iuriDJYztjY+vi46kIc8g4MbTWYEqvp676jabwKdG9cknOMB9n0PQAHo42NnOcAf8BgwYM5OE866Ck25LrlX8i4wY6RRUaju6lNDOSarzDHrHNow1867SF8hKehHYFtdt2uwQYn6iG1PicdPSEzUYyddmKeOn4xdT5hZpeM9WVP2fqv5m/n28q+3+seQl5dPLt5U+av5F9+PlJbMaMeoC4tGpuU10nUYC1hW26rtBslRG5GGu2xtNkE8ORlHBjq8Xx3b+OfR/g+h64GD0cbGw5yMGHB755wYMGD+DnKa2JRAlStk2HGSyqSlljNiy5B0Xis2SOIDWcmJb51zUYRE9rYnuHe1abmXHGvPX17C2v8An01lUvWy16lenQG133I7ibX3tgr/AKO55euxzznPoIU41RR8++vS1kbjFxm4YptQs16Zt1NI4xcVRcS31dtt+NdVxAAhm0q1qxoGl8Pzt7H9H0PY9nGxsPoYPXJzn0MGDFwejhJODFkqvJJM+02/ECWTCvI3KuwDIdbGyj0zVKIwL0wElcbTVNvFURaPgl3E2MOaEo5bBR8M1wo0+oKlsLPm1Ut307IXWupu6h/iUvy/mfWePzlr3qU9BkeL4MOcqbPFZZNqbRdtWCO3Rp8irWauzgEEAWg2VqN3/WnttScCa5XUaBXBg9cfyCMHrghsOFeMA4GEn2MXAAPZw+tfGUKhetNx5b7g6+a8Hii7bRwM2aqa83yufDXUDiuMyim1xLLz2JpMBNHUOybqTBITdAEjwMXEODA3HWk9wEcaSRxBWG09EReonp60EQMeUm9djT6svqea5w42FifnGS5e2a+vATVp7Ra6V2hBZnZbXU4+zbebcNu63ltfrjmtjbj7bVJwAe+D65wYP4IYEHOAMPo4fYxQAB6OHCOEVrCoE6LCj7rpmsk8m1ZnXMDMmCTNhOc5idqAsefi2lB0R8rrNqwWwU1zdgueOh+rju+dgW9de5zhcLbmuZSlqV5JC7K08fs6VV7LOVKNgytvHWg1YkUAyZhnUrRXwYAaxNhGAiMRbndH50SYlBp1nopt7L0ExMxYRSGmsfZB9jB7OHDnIwYPQ9HDjAjgZwc4IPtMUD+ThOIGxT+nu572MkiHTvCmxinZZ66t9SjmQmrmjsbUgVHyM0xjPHjxNek5eQmZaEmSlwVZs5XO6l628jqWUGlFGusp6zFDy8fz21qThM4MAddg8oybHHWq4mRyecEXD4M4nnXUlNYij2zZmkr66KuTG2upliEXW4E6a821dkN/HBHoeuMbD6GAjBg9HDhwjjjDnBB9AKFA/g4SfR2Y3XNnXtIUez5qKLseeA3y2C51M1VXJTmL0VdnZvu6t5q2FppDKQbDhx8rjSOmgrTKPHODi0FGO5fvO6bsiZ9+v16OuLUCmxuxBS+BSNleeRiBhX3AyzoVqlECoqYQHmVJtHFTrsSbLNp5dIIkuX39mEnbNvU8ePn/ACfQwYPRxvfAxcGD0cOHDgH8Nh9DBi/wSScJyqosbwra7ZsNkUkbV6oxf6Vx8k+qUAu1Km1N3Z7aRN5bNKau0L1rNjP6/Tu5oihYmpabAKxHWt705RUeFARVjR43NTgeLd7ruas2i3FMpOkslKYIuD6i0Si8UV0fHabchvorFIRplME3nSiU4kHalfpPYTCeJaio6HOMOE4MGD0cb1xwMAHrk+j6Gc+2w+hi4v8ABw4cOc4ohJ8c1JyGtPPgJFliJubVcyzxr1pNuQPI2ZuuuLXa0tlNmVHnDB6dJTVCvLCj64fZXKOm01dnHIo9EzXRcJpIySRILlGiDHa13HAzq82n+cJhzZb1Nte+uSOjKwKqI5zN+eOZniq2V58Qyyulgc18mCEzSE521mDZwcPoYuD0cb3wP5Ps/wAnDjehgwAezhw++qyrN722HdMmk2R2ajTHa6VbIT083L6tIRtm9VcSXGzUlANnUvB0wu9CXr+ks4ZZzyUWQQ6tmwtG55zU2IA+uaVrttvfr1qz2ZbLjb8b1jUYQVYdOtWq+IAEbVsDlRZKDEy7awBGUKY2I4DZUSWxquzIrqyTOefFUU1WzFsOH0MX2cOH/wDAcOMeQVwYPZw4fXWKI9DUORrfD8PRcplDr4RuFzkchb6aZLb1es5tlkJ9AwrqsA1EZyXMtYWnReqOkGylimVlfXI47a4iiZ2pl9q9molJsE419txt6jpHZRivzKvTY2DgwEEZGuvs9nawfDnYKqIGtOXeeVzlkac8mK48zFZhSrN4wqzY6/MgknAUPs+uPY9n0f5GHGxvS4mL/Bw4QkhE7QpV6HXKFa/XhcMKTnE12Mccag2hPNG+bSz0wlqWuT71k0MGMqeljfKL3al3B+j51NDR8bKK451IQDHl82RTDimZkVu1NPyCPua1JCkvK/6Vd62yc6FfmqksyXhuSrQMG9cKs0SYQQanBqsmAyYaPHzC9aOmeLVFbKOWbDh9DEwez/Q9H+QfZxsY4mIF9nDnCySQSkGW1jkEOti115upelv0Cl12VzQhuSWGovZ1Kk7avh9cLqShPJF43CIwWzbEnQhNfOu1drfvSvUkpdANWUE+bzE9rK4QF1pPtvbXTNLya2rq7Wi0hL48MSeBii0nztAa7s3UySayCsyO1ERSIFxQkFScjXp1o9bE6UENa2pycPsYuD2f+Bw+j6H8MXJIyeJg9nAFmk1ToHZr4azeFpy+Sk1KUmqLC1b6/wA/Gi2MqAsF+d2rN5tjTWWvDU1k1gA9MnN4VqLQP3R+RTc2CvcPrnAGgdWOqidQDlhsYcniU2jMR1qTOlO8N/l0bQ/H+caZ0XzvM/CqZDI5wq9WUqMmVAmoFTJINQl0GIvloT8jTyr058dqSyj7G8NgPycPpcXBnP8AY9HGw4fQ/hsbDihAuD2ESazCBOtU+mxj4ua01VNdprPkmCfW9DVpacXBxCslS6GDaz6x1W1flrQTRVFXr8vm+b1lqSE/VB3WuO4wGNJ4mMFCjopAfGTZ1Y6w0jCupOPVLMKyppxunmE2gqL0JvoPpDX182ddljkQucrjpI1zXlhZD24QvSsflTFar2z5icNFFGbO4cdInDh9DBg/48nDhw4cH8cktnC4mLg9KizRAoXrxWxzhsQRC0maObDYnU7H6jO8edVnQ5HC/D5EOSUFI/lhuZSivxPK02r7CdVcmLT2bWt6JGQxEDsJAYzfQOmcglUxp8XRslNZ/Kc7a7a5hrYdpafRl+FNfrVGQZE4pBXFd8NhP6ytOn1+f2W1FtBHXKTfVKJ62t1VnIlo4cODB6GD/mcOH+Thw+lxMXAEmqKiqF444+ebD95HIxejZ8XV9yd/kVZq5CgkEmFy9/trs2GaIr93jIMnGfZsqmxjegwyE+9ZPP0G1lXI5x1emcyU59Pt93YUDHIVpAFm6pjP2RVBClsRudl7A5ruMUOCaZEYmR1RD51H3lQo9PrTFbZhA0TavTYmYTdEm+HD64wYP4H9nD/fBDYQuLiCU0QIFC8ceu7ZXCJSTEu0kk7V2Kto7kcfCaU0aEn096NrQSbTMrYBz2RWUZ0M/naNdaoY4rwQY2WUjEtDZVFTnn68YSMOHO5sWavc2kbIlBVkvRBN/tGiu8yWtS7jpzJuXDZXBnK1nuLaijFYCinBJovRLSDtedNVNeY4ZquPfGDB/A/s4cP8D2cOHFxBGc5qoUAfyrjHyUHRKQd9r6BNtHzWSeBqll1dj6FmpiJFOuGTK0fz/JFGF+hL0rXYqV+Hw19RQ0y1FohwDUyZ7tsLQTOM6WFepLVar7L7X65vHAxCtxZY5axCTxwyGexQuZoyYMdWE4/FlGdGSW1+gbaOo6UWo+UhUuaMNktNvq9jgGH1wo/5nD/I9cn0QixlJFUADjjj3IqvDE2jIBU+lX2WI1WQ/WjuIUL32JBI6usTwG79+6z7fEa9Hpb6hKI8fzfIRyWLnWiPD86a89f4stHSqbX7Fr1+RV58XD+gZZrZK1tcYrUPG1rjWUwRcNi242K88m8mKFDNW4TG1kV/XX4LMUopx2Zwym5+QxDy+BffHHH/ADOH+OQecOHFSEJTmigD+OeeeWPdDPExaSi6Vy5+UJzi2F3rPHf9aPqsbIHamwLSxade+w/3emMxv9uOmVYKsSCwBn1RFlg13iNaiWGvtpQ51/O8thHk2Aa4mGQZsnVHzTFwT+EMvVskfJt2fCdMQwsQCJM/zRQVV17yYT+32dGxwlGNGkzsrlWWacZx/wBj/fPOBYQSSIoH8ck9ueyOWR0pO4yeu1aX2XZoWCSzvfHqNksBHWi/Vw4WaxWPBuivOxatb3fmJSPcYcVXz4/IT+PQBVJ7cdStdJdcDEIxw0aajThKZIGbLNHU1Pp9E2nDQJvX49d1wGxRBKOlGGHBhzsM57PWcxi4AiK7kpM7AU+nzlRnHsf8zhPPJ/jnlEhBJKgUD1yW5LF+/chzgEJTU4w+W03aO7HZ7DWvn0NDVDKmGwxsLSY4zSVstfZ3K7KsWQwQ0jIKMZgHwp068ABOFYp1xlMulEGBlDOUEG1sOwbFRrzDbdtrX2Ims2kdeWUa91wqBEURJ9/mXfDRDPOy42OkxQIjGTsUN8IcLXJ5XEzj2MH8D+2w5z7PoYk4QSaqqgcei3JZnL9+6YxzXgUI4yl7ZzCqNNnFJ0kk/iqyH1nhvetDrsCitS21su0LEk5xKEpBsfFU5wqGRATnFxXLhiTjAt3duyv1+YZnpWl9dp7SO6bNS+psTPdTOT5vxjELwmLnzksy9C5K5wMLmiXlP6oyTLsop1YLi5t53m4wD/lz755JP9DJz19ec1UKF9HGYkszMc55ZslPsCkOaFsqjpK6bAKizVl2lgOtCcKHtsP31WUDKbAq9doVWgCxSREwGXBnz+YVxyWC8Gpt9vpjZ25AOcE51bGS7nNaEsI6bkdZJaFJU2fHWmDG1Rb6rhYYjphDoZvXtUBllglFCKZ2D5YyOMsnqn+cXQrgw4f+pw4fZw+pT14TmFCge2LEkscON74yNIxlOb8qbNsYmsNdJCTRNdhhSKASalhRtrZdqT8jqX+bSs5nsPXGwYW1ddfS0+wfj1x16cd2Hy54+pr6+ik51I69zjao0jNDyF/IdcO7019Lx3xbLWOfHrIIsZcuxo+JbsKO3VlRJ51RTiY1JZTWmemygxDeKovo/wDQnkk4cHo5xOWvrykFAA9nGLFm5GHGweuFSEVeM/0d60k9Sw11mGeuFLTos9fVmS4nr0nsZTNHT1vQnxSdpvrGZlKaRRevWaD0c5ZwpYAq712f3fa24d/XslWcuSafoG6tfQx8o0LTqYqS/V9ITrS+42xBiZ4o6kOJM7FEiWDfH8/V7KfpbGdlLYp+QVpjPv3Dg4f+PHo5zyTg9HJyhCcgAB/HLFizM3IxsOLnCSScoVwoEo3Q31YIExMY9UG3jzgEr9EXmi7A/PFdbFzsasWR1skNcoNf5khlXr1diqgJSqM70Ozb9a3Owds0jeF+zFnttLsJuHfR2LXs+usWSvf4CeC289G1R8xITVZ5Qmi593sbPRdqeIey46IBFXE+O7WMkagZOQVGc8k/8j6JPoelSEZzAGD1znJJLYxYr6b0M56ooKYEter94trkjhM/Qk6VejRRZ2LymWI2cZXvoV+orLIxvUzea6zno6OJAIqnGwZw9UXig3NijYD6E1yC9XFcq4OJSFBlaJP8OtigD6k9qvu051pggzrF5gq8WJRxIuPmgXEURm7JzkUC4DNvmx6srYp9HOR/xJ9H0MGJOUJSCgeueeeSTjszMysXLAg5JYK1JDZcq06hqNsapay0TLVGCFknrrCcM5YXN6ZrWQvmu1qcFEDZQTDlcWgbhiUo7XDir1vezn2DxwDFovzdaKANdUTJvS001z8O5bqFd9vbZ9ZJSZxirN1D5vPLZm9Z0jhoGWh2ZgAl5DGIzumOUrgqzsgw+j6A/wCRw+hkpRlKajj+SeeWL45LKxJIIOHAJsprklKVWoyNoPYcGKTKmhIf6KZ5tbG3VvSV/dpQknz6HHscWNmVBOSoXelmq69BgDZbKAjOFRdf851Zoi9MeNfFtBJLpfB9aenNjjbZ8lPyCbG2LJOCQOukWQxhgxm8i0oSt+gmjLnwkomqjBk2dHdGd2UEKSjplF5Psfzz/J9E5GUpSRR7Oc8kk84SxoSRnYlFA6yXarEfV3THamVwqH1WQ8zbqEwlShRvrU3m/qaTzVuqvbs1Uz40rTGdE7yVi9q7abgSMXNi+VDASTXnqJD4/P5j0r9OqP8AMT6U1F1yGXYqjy1QloNrgfIPPCwSdO5zYkmbOax+wuXWfzSjbCHuuTxcdeEp9EIyg6xzjD/Rw/ycOc5KMpIiAfwcOHCxYHGxzRh6OIqIE6PlcVUQlcoWBVpBZSgzXguxaQygVu63I67uPhAPbwuvawVjRtSN7VdMpkpk9q32NpApnjZ9DhDyOuIKiz4UdXPbuCg5+Ql046k8bOqutrRR2drrRVVjOclDnEH3LZ8bR1WJU0POIZmdCe5Cv35V+8r84uMP44w/1zyc4lCcURQPQzjDjYcJUAEPli5XOSJqoA4YyQ4wLYU6lPz/AC67LyR6iazx878rdSE3Uop9QGuFw4SuszHEwDv9DZntR3/TG/2nMusjM4QQM5B6hMYBeBgIfkZyccmq3cq3O0VRMULNF6KvzMelCWbOWXFpPaRDT6lkCgEsBM8uOhCq2cghuc59n2cPvnIxSaqBgxQPRxiSx4UYcfLFiCCgmFUJxBEzkKiOURgsvkH+zmhTFo7znVWj8khi12GsGGak77mlJlhC2E8HHR3pZcfYqznJZGYrOZfk4UEz6ABYDCevCqp4+YwEtVqvq4hKBnzuD2+s64XqelAKsl5/RcnIwrrScAQySI7NnCgPPGPPJHRcGK38n2f44lOSKo9crgznsWdmfsuL6OUN2dg0xPJhRxwmJSQNWd87A2vR5BwM4d9bNc8Oxx2UfILVLIyhJHVjr4GNlWxmnNTVyLMaVIhxN5QA7qrYM5555C8Mods6jB6B6dCTWqT1Pm2PQUZu9bPaVNR1UTbOCOFWodODaddibTU8IhXPmsegHz6YEaecOjgD+Thw4fQ9IkpogGEqQQeSzUehcMhHpzY2NDNUyQmgXjKN9RTss/pIhuaimPPZrECTNI3PDRUiinn47KVi04iD60tpwMJYk0AVHZ2HNcTVVUX5gO/PcY2cgdQGodhMC8YMIU82z6Qdc7VU6yE49NlVlqwSjbgcM2MytnLCq2tLYBM5L8Vk2uImXE26zCYScZfn8vl8LS55zrwSSfXGIk5SiFwlmQghu7PSpp2DTIbl2rlF+KzmkUQe7szfbLbaWlHvz3RTnxYj1E0Ki2Fl15yGPjmgecoakXtDIpQsScrl6c/pe80UHFnnJx3Rue7MpOx37nPiq447IwZtj9JVUBx2alM+gPFNeceNlkXWbqc6fWVjhx02hmv5E2XApamw3lj5L/U/1ZeVnWRWwZNlnSvbugKezhw/wiRjOYB9MTgKt2ar0ds5TEznly2FQgWc5oBwcJZWx3TC+s1rd5U+gzlZ2qqoExjOWw/0R/0QCqwfBHW17kgrGbZzgyrbFXZckFxbSzkAPSpt+pdo2eodaS2pETCdcszViWNngeUUS5d2Z2encIUVAHg00U2K5tJrZrhJ1nvL6jsRvrvt+TbFT4/nrrlBTR3NfeO0uyu19Njat5Pxu1f+Dhw+1EJoo9HDjYc5DM7E459IBgzlyx9IiIoHpiW5f1w2RQ0R0xVtiY5XOjmAyWxubIX5Ko1wHfqVoEXtCTu7ri5y9KmmJk8esRMAF3agtTA1NhVOwpRo1R8IYbTE69JVuktSR5Kk0sb9i67EcZw/HXDdn6EdPimO5Xa1Xl6Sg8l27TxHWna0mj0xqPU2VlyMpj+j6AmklQZySxOH1yfTYV6gKo9M/YkGSKigDCzN2fGXqMZQJp2W2seWajcBXAr3bY1Ii0kG2Xpsd54goofiZpUtMKGfYxnOwdgmea7zf6Bit2YljgBZVnOehr+JTxa+K/zD4u/jaaYD2cJceU/1z5R9yuyC+MdbH2m3J70LNbc2v3ftjRnfYTclR7I7nciy+w/cXTZWoZWZcI4I4REwtGfbn2TgwCSoBnJcsThzn0B0KlQF9FnctzKaBQPRxsc8utw64cJTGMXfJOzTlxanJLFxqa/T5/pa3QZrYuwKC7PUhVyzuSNjKD3zB5vgxjbF04/+Y/8Am/y/6Kf+jHnf0DXGp+Qaja99RtZMSr7E9pa/TuTXKR2dNdQSqmIsFvLZxVlKSMtyLa2whNUymbOrSZH9SucRW9nFxCuaWptkFhz6OBQJTRB6LdueezP3BGKMI445LMzNxOU5KgXjDhLYQHXDjKcmJh8kHtr4CV5VdkqgZrC+vlsWKMzak9rca32nkMOF0xsfHymbPo+gFMQM1/EvpyW1bIc/0R55PPf6x2w4wYifipovoTWNzuHcO1TYTIa6Ryz/ABfRp4dvFz00iyHR/wA/8UpXWmkdUJ+k7k7A8bUa6rJx7PrUYk5wc4XFGuks3DHDhHoL1SU5cYSxJLF+5PCKqBSG9cluTgSWvPXCBfRw4cPoZfAtQwwYA+K8AgrQlMM9hOl3Wn6JFYO0571xhIprhrl4v3kv0oaTqpGcTXW8BqeJfdr5D/XrukPN5iE9YSSaeN+Ct+w7pJFJ/OI9HHnrJMmj3RsUurIh4E6MM+YKq0mgdXa1RoR00Ykzsu1KkHkffGnjZwQ2DFCLryGblNYnC/Kr1Cog9HCzMWLEqAoQKucHGx2LjAolLWnEJ14OE8kkk80cKr8NMqTIWeWTr9ZsjIUJJyoScGTafcerr8LlsmLXQoprryqzCaXFkddTQ1f/ACh8k/8A6Pb8nzPOcBOfKGt+AH95dSXnNNAeMPjfx/IP+tt9/JV3ztT2e1drW35bz2+vZn+p2Aqq5xDjMMdRESE0mwdDCkDB58DAI5zjEMvrX14rRhP83PAgoGKAAMYnCCOvULwo4X02MaMipNIpBZ8YcJJJJJ5Y8qGfhMY1Xr2DYHXHpMswRlfCBjZRp5rJwyUyrnJ59X2NBlKZxrA5PRHhdr/0u1v5zMTAJ9pofeu/OKeNTwg8YGHkz5s+VbyB3TuNtjaVBrHTOl8Himi/jB4/rTZbbjsjbpRtlN6W4t3tTyTeUnsDfGz3oOoHBw486paTAeoLyMtWSqNbWkvVkjOyEIFHXogGc8nOpBBwBR1AwYSzUbJIiTmq+jhLMTySSSSWxA7d1wgY68Evkskddu+SHJGDKDV1r7k8fKDoZPk1yL1oMI1pNq28rXLIZgYqjI60vEw8APFDwv5v9RvPV8y3kkfB6SI8e2h8ep2v102q42LZknq3j+U6X+aPCp/55PAN4TZ8cR2nZ3o3Zdk1Ta1vJf6C+Un5E17/AE5+dE2YriAZwSMGakVE879lFsACgAjOA3OD1wVK8D+OSzM5RIrJFHolmLc+jhwlmL1LUQlou5wDjFF2Vu+vgN86rjh8bCFUlsdXQh0OJkXgUI1NjydAcfJ6n+IfFrKWxCf5G37ecfyb1GEluojqaiaaCZZWl8eW2v8ASHl/v8ni8Y2/WN39zeQ2t595djKRvDoBCf8Ai7ROAfPBjYWndN1Nw7C7AbKJYCgfuzrkISUnn6DZ/QKr6XOEXhhzi+z/AAPZw45GTWSzweuWYk+jnJLFyzd//8QASxAAAQMDAQUFBQUGBAUCBQUBAQACEQMSITEiQVFhcQQTMoGREEKhscEFI1Ji0SAzQHKC4TBDkvAUUFOi8QY0JCVEg7IVY3OT4sL/2gAIAQEAAz8BteHRonQLjkrcExgl2SpfdPkoZzUBNaOaeXmVcVOFthAMVM7ZELNwUKHDKa6jdw0R0C2wAjbkxyTgdMIEaJk+FBpLw6EHMj3la24DRPeMZVtPbRBdnCLrs4QL2yVscIU+KZVQ1DGi8RnzTdoaZwntpwWl2UDt1Dn3W7laHBh11KbtOLcDlqmhriWw0KmAbWQN3EouJdARn2WTYYPNMrRPd/BOcBbHyVSclyq+9TY4eiptgRb5Ie66JRpCXHzTCMap4mctVQkxoqjDnw9FTqMDjkbz/ZUwZDvMZWbC7XgrsSSUWiLY+KLxkecojegMIDTRNM49QmvBvymVfFjg79U8TaJjci2o54acCWnmgxwdJH6rEE/2VxjCgGDq1VA1rv8Ap69E1+JQtcN0yrKzi3RH4LYg6oXgbmNOU54YXY5K4PAM7SBqAEiBmAgZeOjZ4lRaLpMobWY2deSHa39o7Q/ZphttPpP1TGdrv1DaRfn5lXgVOMCOmUHO+8diB6DJQDKoA1OvBNFYG7FvyR7skbyAr+1Wz70eiAeS3RPD2EaINNNkzvRMR7yl7WjT9FcS/crzl0CFRo0xTY3u25PM81JjRu7irsnegRDQmMdxd8ldP/L4MrZyUPGdNyMXv36J0809yfIYEGAg6ouMk+zmmyDOUNNyuyNymVGqLXhOdSY1vFbRvKMm0KGCShKt3rkgZ1UPt04FOZMP35TW4karZ06IVYzE6ptLZIwULTb5JzwWQrSWotDnEkyn1PGYZ80L7gMtwnO8RxqiGgUxrvVkwQm1DpsN373FPrU6hOw2Pmp2RnmrSR7Atpppsc5wPFOYAX0AXegCq2i1lvRVWCXvJn3QFfkujkQntHjwgDDgT5olrgJjcpMrGqlAuAcnNtLct4prPFv3hAjYI6FOMSGc0BrHrCbOyP8AuTwdARzQeBj0KI1HmcIzO5AETT9CgdppPNFhbw3HcmEwBmZjgf0VQuue3fqNEABGFUpsDmaTqm1mAO81Frm6sORyQY51v7u0FpQc3ZGuOqmrS4ZCtdBd7so48vIBBryZNop/FEun3Wj1K7th4BGx8eI4TWMbO7RSWH3nblP3d2oz03ql3LMYOQOmhT6lQ0miO/eB0pswqbXN5Z8yjEDxO+SLKVjMkkSmNZFmQ7LlECNcq6o20S+Djqi5z84aprUmxhjV/wDEupgRCywIMdH+5KwJUkuOiY0Pcdd6HeyXa6kqmIAmFUeyWtIHNW5OSo93H/LyYVwzog4tG4LvCRKbSG0dooXWgLFrNTvTGNbJlykOTXAAgyns1W0qfdAE5KqNaW2pwJKL5K2kIY7dC1JUCZVU+/hRvV0bKaBAQGQfVQbhCuw630VMPn6ap4eMYCbAJaVLCZJVoEppnAlCo7XKgQarIninFuzDh+Up2zdryUNzAT6RLW8MJz9MuKYxzaTnbW/koYA47O5o+qDaZa2A5y24JQ9jnv2qV4jpChuKTgeBMlP0d2cjgUAJLgxXHaqjyVID3eqpH3mjyUE5WmPYEARKpw0te3ywUWSC5v1TC4RGdd6oCGhzbtwK/HZ6FUm6DXhhcA5VgcNEJzRtWfL5qhM2Wnpj1CDJOLfUfBC0Frmnqceqp22ubE+6fog02XSN3Ef2QfcyfvW+6d4VNwGMEei2X0niQdDxTWGeEA8wnOrMjwQCSdwiUA/u2iGjTnzKE2nohczzWy078oywNESBMId2875+StYdAfkr/mhYSXYCc6sGz/vmjU2p3ptbXwnXoF3hdjAHwRNWpWdroBw5KHS4SBk/oneM6uQdPDcrPu7salTVp/lCb3j6u+2AhSpVHjU1KeEaddwIz9ED2i+NyAcesI3EnSdeJV1QAHAV3kg7ZpjHHmmsIBydUWwGsxxUMy+SmvbiSqn4f28ap3Fcf+TZBhWslxTtojyWzlOLpAJKeHSRlYu0UlYKPoi52uFBCdIhPtftThbLruCGQES5PNrBoCmkiUXjzlNayAmaOOVazCquy0QVWfdegzRsp98sfv0T7BhOePECVxqDTim0/E4HoqW4mITpkFPvAcTqg9hLtVWuY5u7gpa0nXQprZETxTKlV0cAETUVFj+8sDnbuKc+pcTIdmBqeqeZjHwTAnTon1HWiFWENgWcA7J9FRbDbixx5of9ZxPWVaJucmnVNOGuKDTm76LOFeJCeWgtzyVRwkgeqfqS1FsxrxbgqqDAe8jmnmmOHE5HxTC211eOQlGPG+1T7uOZVOJvjoVRY3xH4qjaHiT5Ls9O4ljm88BUQ+5tSoM6ifpqqge8VyyrTJ1tg9ZCi9gJsc2WSDC7SzPd30vfpnLm/maeCrdo7upReyqG6O8L2+aqVGMFp3gujwu5qk6g73XsaTG9p/RE1AyLm1BsngU1lEUaeWWfeO4kaeSnu2nUYPRaEH3gVdKD2oh08E1lNgOSppgceC2bQd2E2kzB8PxKJqGcycoml1nRfiMAYQaw2hBjRvV4tx5KGkjJHoEGscxjgcRd84T6j6lQkMpjed/JZhmkQjZHAK7WYuap7W90YDYTsEfiIRGmu5WUWsu2uK7tg5pz8aN+aYTe44bomnjCYd0DimRZSHmjaJQtRkwrAncFxQH/ACkrYDoQMNKa4xGyjdrjcqpwF5neVTDtryatmBqdfZDBCIV8JoEaJrabWjKzG6US4xwRiF4dyYxlzl3kGNVblAVRKFgN25ADlCLicKTZKaxudVKYxpgz0VocWlPc7CLw4bwnue3ZJCbRLaros56qhaLZ6IttYE2S8S7nuX3ZjN2Z4LbcVC2wSnOGIExgaptjrsu38lBmcLknvYLWartTKcsAYfz6qoM1Gtd5o4HdH1gJz3QAU4NlzPNFzYvEJ84FzYVZ4ltI6ouIg2P9QU4SKgz0VmkGCnv4ET5ocuhQfHgBGmUGnIM8ThqpUyG3hx64XZgQME/6oRAyWNH5tn4KjTcRe4x+DRdliG3cwZTpJYTrImYCpVDc+gBxtj4LsbaBptp1H8L4FvonsYA1rQ78e+BuVejB8dxJeCuwEC6nXYZ0YcKyo51Ki1u1gnxEcHRgpzzLqDZBkEEggoVpPdxUOLwYJG8Eb0Ps7s9OkH/fuAMH/KBGip5YRawukcG50RaLdTdI6KSOeFFOYQzhQ3I95S4bS0KsaeKnEp3eRCsbsjkFcWtuEAYTSWszxJWzIiJgJrRLpj5rQOLRnA3CU6HGd9oT3+IwJ8gmNBLZz4Z4cVFzTwELaYPxfRGJ5wvB0Mr93Ca7adx+Sl+UXHCw0bkQEXDKl0wgIVwQnCaMnVDctwzz/wCVuYwElMAEccqLigbnu1+SvcRuCc06aqpTealRmECxz9/sGAqevJbIxCZoiwRvWuERqp3K1/ROrOtJxvVsNTjlHvZ55Q7oADcs8VYHE+g3okuqvPRBjZPxTnatwnHi0c061/CELiwtBldm8VrrxBTKNTvGjZ1hBzRk9E6k4EdVUrmzcTlA9nYwYa4x1hbDmmYdotowjko1HtF0ZTGWwfvDnPDohFrdPmml0vOE0+FVaUktGddxTjraPit4n4Qn3atTcbTZQdl1J3kVTAy2CsnAI4Jh0InmE1nvGVuloPMpgBuc6dxWn3uZ4IE5aZQx936FVCA6m2eiJdDqkHgGyuzUQfvW/wBPiPpou8P3VMNP4jkqrUMueSuP7BRKcnJ6Z2KmO11mzUP7hh4/jPIJ1R7nvcS5xkk8UVUssuhvDijdJduQdTZHGFIHqhJxvUeiyFhTVznK7puNStoawNOqFpESTElQXNAY0bwGj5p5ewYGNOAVg1gfGP1TiQ44zhv6oOZTG6RJ1Kte4OE748l3tY42WiURV8ke9bnwAfFG50cVAf8Ay/NAO8kC0LbWVn28FGpUoMGidUErcPVEaBVTowpwy8whOP4/P+C9wwcaLu2nWE5zmMaJKdYWsyVU3gaqoynLBLpCrtdNd8zOE1jaBZIvuwtpSDCaHGBcd6EckTlOFQg8UXHHkuKIMYhALGmSjqUS6J5o3CCr2QSg1xhQ4EhcRHJF+0Qs5mfgmuEE3LjI3BGk64HV3xRALnDI+qtyDKc/Ten+BzSCDlBmh6qp3ZqGIkhsprml0wFFQrDcc02pVDnw0Ap1apUgQ0a80220Z+SaXWiT0CpYAAngoiagnkgBrKe/wot/eMPkQmkw0Z56p4jBVXPvBdAgRteqa5lrTI5qs3Q7OmSHJp4p+4lEvZc86HQwqYiLud2ipu3Y5YIVGoDMid85H6p1B2yZbxULPte9wACJdbonT5wrBJc1W6olNYO+rj7saN/GeCqVnl7zr6AcAuCI9hCu36LG9TC1Mr4rCi55RcRnO9Oc8QrTA9U2ZIwM+alznTJJVSs645Ti5jSBrCaHNPutbATjfO8o7QGJhB7qh10GEMkO8ToCFOrB0RutnflA7kQZhTlbMlHVNAAJTVTYJc+CV2cDB03qiBDHCUyoQXVLj8An1HBjIaOKoN1dJ5rs48IuKqOZiGp7pN6jeon+GMfwLwROiBkP0hMYMFHJOEQWpsCmDvzzT6tR0nRGWM/CPmtyFsbytkwQEwe9roF3YfeddFc+RooCa4TC2pKCNs6JqaXmShcN6LRAbCDbuK2y4qdnnlHwtjG9TzIQbVjHJNqMGJjWEwsAjCgYCipdmDqu0dneHUnGzXHBGvr77Uy096zOio0abGCmZBOuV3rHEbgh3rkXvAWy2w7cqo2iBOukcFtRduyg8Qww3edyEO2HMbxO9UWYD58k6MA+iqNMwgWkeEcwmaBWn90fIoHPdw7mqrjuIRceMbkYkx/voqZ0aQesqFwCq3s+5BBKc2bqYjhMlMNQuj6qoQXUXH+WFewsc2186HCIdlXIh0LQKYuGADvjmqr6HaqjGam0HgAqQZD7r7vKEd5XEmU18ku2Rkq86e7bTZr/ALKr9nIFVhBgHPNQp/awsK1p5qWHop+qtbT4uMpoJXds/NOAnFwnUoRSLuMlN/4d9R87ZkdJQDI1M/EpjPFkTgcUxmuu5oTowTbEnhKZaxguIEmeJKBbI1bhONQF2Z1R70k/i+ScTHNXPaEGgKN6twwyqztMKs7Vyf8AiTxCqt0cYVWpADiCqxG1VVniqlMAxlSMJxU/8m5qnsubh3BFrjImVdLW+qeKWZlNe1wdwXcNL4uVnZnn33vCad2d6AcmmXbwEae1diFTuHeToqbw4tJ6oXIxA0VgIWgKN2uwArgPwwrWdVNTI/sj+EK2M9VC2QVMmMD4pzhtcU57fEY4Bf8AhPvDcgBNBuHVS0EIOb/OtKb27Xuu+iDKcWZB3p9uouyqjgGs3nbd9FFIjmizb4nRAZ3jRBxdUqOtpgZ4lMsu0nSdAhA2g4nxGEWiGt6JziA+o3zQa2GBrjxCdvjzR3O9EN9wPFY2nN+qbpIhToZRnau6rfK2SBCe5xcnI4kru6djqs4ySJTXEGnUE/BQ7cHb5/VHUHqEKuw5vRB9cB1zR0VPs+lW7yRAa5NMQnDsoDYmFZ2VjRi55+aDnH2SZWxaJtnHM8UaddtV2gOvBM7dX7S13ifdBOIRa57CRhxH7EPla+wLEKIxzUppFqF45CAiYJU1J3kk9AnVHg7yYatuwefIJgYGA6bymYc7DRp/vmrQHHxOTf8Ahw73i/J5K7u2/llODcHQq82wBccqj30aTmOiAcQPxY80Np25TJVjiAnvXFclIwrTCD3AJsK3ch/yOP8ABIrSd2ibVEjVWG5rdyc9wDk4Pfb5JzaTTfLsp7qgnSUHvJG8ogyQnEHGCdUWU9o4OiexkWSCtogjCjwthOdA3raOUZVzM7lJz5BXkNymN3Il071aMLKOpMJzGkcdyJMk9FUc0Bg8zhVNwklPa6CLkG7EpzHtkbDihljjOcIbuCJOkO3FOhzag3ap4e03EsDsqwAEnBk8U1zO8jgtoA6Jo7thbJnPkmdoOSLWu16JsinSZnOeCt2y4uf8AqLRc+2eeUdQ4M+KqZ2wQmR94YXZ9zH+QUnFJw5lGnMi3yhPugGByRfiRzLlvLz5rjMcgmmc45poN390TEsnmmsktlUzh9MTuLdUDhz5G6UwOgyBuI3IEEh9wnMaJpfPduJ5YTWOdbXdEZE3JrC6mTMouqtpncopRyX3NMdT8fYdysaWjfr7IxuVgADyMrh7IBWVDgtVhD2YUR0WE41CsN9US4jQk/BMYDU5bKaL3HXVBzc+HU81p/PhX2AnNyNUAe60hNaYjwzHPCFEWDUZJUG7zX3lw90K4lMDHT+HC+6cd5V9Q+yrZ3lht4rKIXeMJ3hGm9XtAj/lxY58/gx1X3p4EygaZyIKlzXBQyXYO5U2jaQL4EwSnXuB1kolzbvCmOfbSoiwbzqiaYdUMBFz8POEaY7wlNdGeiLMzKlSUDiUKcudwUxHVXahBoQjCMlzla7krnzqiaoyoZN8pmpknqjn4I1QTwT3eOns7kzhoghdlEW4yE18BxOTuVOqH2jU7R5Bd/g6AL7zOm5ODthsOfAng3+6pvd3VMhrG4uW5sBo4+8eaDWHBniV2modjZG/GEWstdVDuUKfA1VWiLj6J3ByqGSQfNP8N0hHgFBEjA3J9UgRDfVPf4SOg0VS6XUj1TtA0D/fFGPE4fFEODXA9Qmk65Hki8aSPiiWYdJb6og7UgcQnBxcHuLfVMDYcSR0wtXtDAOSh4dvbqr2RyU2xw9kTKxPNT7JIWilywVlZUlAhqE3T5LgFNy3c1qgHGU3JPBRkHUyiKcRmfQI2yRun9FcTHhGvVBrqlQ+7gckRMjMlag7yhYHt1mAmkNb5FFuY0MItcSzQgfFEB2NyNQmToFZRqJokuC2kD2elTcRjcqTqbatOAqYoOYRklMwjTqYWYXD/luQP95Ql3Aoik9m+cKpTmSU2u9zcQ3emXQT1TQWRqmOqS4SSrhoQExuHQhUeNgWtENCkTbCddaThNnYxzTnscHBarKcHCF3jGXnTcg0aZUOgNR03o6BCm3JRqVDGAoRvDicBBtOYEnzKlxADZ4lMDheSeisq2wLSmui18p0kHTir2iUwt1W0/SYwoqAJpaWN3kfBClSsb43aoxMZ2dfRVKrXwctnK7siq7UDCp07j7x3Il5ltx+HqqjxIZjduYET4c8YRuLSRPJO95hR/EAg0EB8ygXLmnum1pMIUyLbS/1AWkA5jOB8k8nX6lcs8zoh7xjkDKaHyJ9cqTDnkcj+qLZjXhxTHC8SD/vVFh8XkqZOga70RugvnyyrxBFQf1YRo1LhMbinN08PyQLh7AXkAYUyEWHTHsM3EezesLPsK8PBSUXFaqXgBRpxVqmeC2GCf8AZRw0CcoNDZO1Khs6NHxKHdtJG+YRc64xAG9U3bLS78ztJ6JrGAADTH5QhcHvMDKp93JETkk6ppqBoGAFGODQr6DydYwsVAeEohCTLYduI+vsLoF3swr7C5NYQ8K9qa3T/llwdGSp2TjC+8YD+JNqNIvi4I0h3cQT8U8U8EZwqlR6Ddp7ljGiL9rdpCc3iiSANya7UwUG4OUG4jcgbgApKaHhGZswrGyTBVSrUw8dd67sQ3xJ4Fz3Z4IMPNXFZQaQTu0VrJEjCPFZFyrOq3DxXJth3O3outLcp7iW6EaFOl0b/grgdnPJSdpsJlOmH1Ju3DonOL6zjIUipUcYJbAVOm20cPOOKfgNjCNwDclU2w4xPqqQ2WMJg+p4lEn7x39AwAmN1YOQRM7I9EXi0MHpC2TdjkCqVJjb23vcJt0AHOFQIz2cf0uI/VOc2xoDWT4Rv6q0zhMFp749AI+aMaGOqPAIuEDHQKsDmo5nMzn5oFskg9FZgRHDcrzNJ9pG5TMgeSHdsPiaMTw6rvWRBKLM7uY/SU2q2AWnruT6VUscu6eDOyVIHs4rcAmD3R7OXsxHttcOCyRMmRCu+iMYUhAXFHfwQieKtZ0BVwHKENsMwEHRr+XzT5EaM1VWtVi0wMu+i7trsy5NbJ1RdqrwGzpqnOa1gHCUBdOJ1KtpPO+QFcHt/BmOqYzG8tK1UO9m37dh08U2rSagE3WUxpRP8Bv/AIkqm0BzclXEPnJ3J3Hog2rA00T+5Y139J4BEyOcp24IMFzj5IyE2q/BdjQDehTb+bgiHcyr9prsjUJrgWuGU5jXndzRn2XPVlPVNB1M81XJLaLc73bkWjbdJQjWFc8gIzgJ0eAoU3AhOefYXEAJtKnZQ19+pvPTgEWUhG8kqCAXYc2QmltxADk3eMhOk4jorXzHJCpqNyFPszubwnPpNOognzTgHExfGnVFtPUZ95UxX4mFsSTHRNa0ODbeuqcG7IGvvHCbab33HedAqMIkbAdBQGbJPM4UvLnGXKVwKdAXayYa2R0C7TU/eNIH8wCtwW/EK7Ut9U9mjAVtS02OVUEiofMKoDN4dyKDw3Z8WYVrnw+0/hXdOi0A/NUHY8DuExKpuHvEcxPxCpVmbDYPHP1RpEse3G/KNJwaXSw6O/VMMLj7PP22aq5wG72Tj2Gm4FF0QcxuWVlAT0RduXgbz+SaQW7lAtmFskNEDTqu7HeOdG4cuausptabTkzwUzB+71O6U5u1o5xmOSOxg64/VOaBr/vesiBsrD3wr8nQK5vQKWADEyhUpU6vACVtFXaBQiNohQPZiFskc1MK5uqaDson/lXeNBOLNy2XlozoCvupnegKqqPDGnQTHmt+9HGCOZQtEOCpsaWtYTzRY4uyqjjxlARvKBkA2kqrTPhyhEuCEmPY50AI0WXOMJlepc92EDDWqE62NAu9qRMBUhgAuPIJ1kRBT2jQ9Uf2JZEodxSJ3BECYxCZnBHxUyJyFSDLg24oPksEHgqZ2XSHnKLA5rss1arnROXG4mEHFwMxoPJBne1CIJwJ3KQIBOzsg/NSQ5xkoNJJaJG7enncOkqo7WB1/sqjBAII+KNQGW+uFBMQiEI18kNwRc8QB5mFT2SXNdhMaMANneVc2A9h8v1QYf3mVbh4HkmOPBdCseIt+Sa8eP7yFWvE+Llv5hGwOsu4ptkHwj18lTewHBH5k2q2DHJVKbiyG9E+iYdmn8kyoyZ9EeXsATRyU6D26e11ORO9M7sDeBkncmnMoZTR4tw0UHCkwDhESpaC7eUzYkY3BFxc2m2M5eUCBSYerimSXSXE7z/vRMp7ZNvDmu/kMD3De7Qf3VCng45DMKWREDcNwVrDxdx3rYni5QCdwUtMt1PpCbhvD2CZj2bvYO8I4BZcnbinWo+wBD/Hx/DSp9jKLQ2JJhEUjxuV7A1u5GUSdUbcwhodE1jdMIOE94R0VSTgQtmDs8k0YCqk7pVcN7twRc12zosrijdICf3ckiJRnRPsDAy1WtV/6LakwU1jMegVsy0jrkom5Z/YqhxMYjKpVaLWuEObuUsdG8YTrYjKMycK4xuVPMO1z5p1YhlMSXZRosDIJdvDfCOScJJGANVtANEnHxTDMjGSB9U9z9wEfBOo0hPjdoCiRDYbO9UKZl5Ln/JMs8I6DJVRob7s740Ws1blI0UjRCdFhPqEENxxVgbv5wjuDneSJ1HwQ3Xj+VMbIL/UQo9pJgMLgOCY5gIqEO4OVklx/mj5qmfAQOXNOotJJJZORvCpVmXBUKo0l26E5py0gJ1J91Mwg397RzxXZ9xI8kD4XJ5kackTlHeuCPsj2VtoNeQ3UokAHci/aU3ALawiIjh8UHQoIBnonOnWYwraYEOdPujVBzpAbroM/HeobJgckHbdQ3qG2txHkAoeNraTidgTCqmptzdwG5d6TDtPQIE40C2i0iIC8Tsn5KfZj2WNKw9/EoWXc1wUDKAJR/5NP7Ac1hbyWNeqDKdrBk6lZVGW3ktVOJa8uCAZ4fNVXQ1mgT6gIyOJQpXgbgpN1jiOCJIb3JagxwlqpPyLgqdsjUqCcLKcSMK4YbAT5wnNIzlMA3ytrVMb7q2fdCdOHNTpMqD7C4AQq7tKZ+CrsgFjmg4I3KXUnU82nPEHcu8otI5QhcHSuG7PknuhzY88Kqwyw9QjTlzW9Xbgq7qgbltGdPr1XfmoHPxMwo8O/AKp0acvJtaOqLi6q8W3RaCmmrnaI1J3IUBf73ucVc4uquPHqrfDhOgGpi7SVTPvMPRRgTCxJBQnARnTyVUEFrabeqrF3jbPAQqowXtH9Q+iZoaonrKLd13ROE5eOVqkzHwj2F2gJKcJO00jgbSpEFgcY3iCViGyPNVKmRuOUWAwDMbTSn0XhpItmM6JtRs48jhCqCCNeBVjpGnyVmo14ppu1QGQSqQmWeaA9wLkgghKEXD09hi3cjjhKLnLYPNSZ0wjknmtqQMIn7wzLjHkrNAbz8AqIHhBn48k+QGNh0jkIVZzi2+f5U/Vxk/hGiv8DBdvcSCmGTaXwMnimAYb5Awr2zBtHu09PNyqVTBbYzgmU6YIfA46uKAE/BF0DGBgIGs9hHr7OKYxuqNapa3RSW02ospAINGiA3ITgf8AJpP7MAgnVCI9USeSI0AW0DvVOpIeCqRAJdA4arswAhvilFhimYaFTbtnf8Uyo07pQpiPEOaokucQFvaG2gaJltpjOAvuy6Fngh+ImUx2AoKc6JgKBDQnF2DlWC4mShOSg+cKFMXNUHBRa6H4C7p4DhM58ghWrXVKtXGeSpOALQAbZ1mU2k1zbskzjcjw10TTJIJMJpBtwLXfFPaW7ZnerB3TvRF73gEwGuI8lbRrVZhztlqAqXOGyICHanta8vEEnZ09E65rGNBnFwyGhAZcQxjASANcI1Xk71GpWcBG659s88lCpqJ+Ck4GnFCd3onRNo6IOOkIMALqjfQkoEfuyR0Wmw4ei4yPQrAHebtEQCAIPHRVGyNU7RR7h8kSy1zqjhwJRI1PmjeMB3IqrTqSA4HhyVWQSC5sajgiZ3n5qtQi1xt/CVTqN8druBWAYbngm1NpzJHRUSQIOpJKpiS6ZG7iqQusF36Jzi21o03pwzAJTmuhSpKJpOeD4Vvn2FQegU7R0tReQ5EwzltI0m6cPipax0EH5IMjieWYQfXNrQ92925qcfA653E/qrZF8neZhdnGrfin6M7PIGnNdtq/vnWgHDQqjde6bze4FODIPamehhMd45eeTQ0fFOmTKtGJ81VkSPVd1HaA43YHJUg3bmU33GqtXOsBBgtYM7ypde5WkBWhFphPc7gp3/sZ/wCQT+041qj5gAwOgUw0ZRx+GFlZEJ4ZmM7yi4C10pogveThNt8RCe4m48kae4l3wTtbEwgOIkqBbEBMMiYVrHNdngU1zt/khqJCaGoOOU0DZb5lXanCaN0BD8XkqbjrKjwZTpJMfVX+EJzHNY5nJU3kMfvTe4tDgdYwu1uf944Rw3IhjpdqIkIudBx9Qu8fMEDcmOMQSmtEBrj0QDPCJTALRGN6sqBwCgROGpgAqVagaBoNXHyTbg1oLKcZE7Tv5iqjXe4JHhGMfRVTdqXO97RoQa8x6ozr7OiFusTuATx4Wj1UtMyeoX52r8jXdEdAQOSqziPiq26mOqfOX+jUMzTk8VcDIhAgm+VXHhD46K1onX1+ik7EeQP0V7bSHA7iQg3ZqMpuPoUA8BgAPA4UHamk/idP7p1MkiAx3A4B4hFzuLt44jiFWbUbrldvoG0RG7gjpVpR0VGt756FUiJunmqJBgjBz1XvDaTHNwNdd+VTNtrHJ4u+7PLCdMBOYwzI5owDELaKjCGplRg9UA24IQSf9wi4tkwBkkpxaQ/wzPMp7pDXAcTuAUOhkuE4EwE8CH56HCBElk/lu+aZ7tLfo0Ktbs0HQqxAl1Mcpgp1N0903y1XeYLXeiHu13U+rf0TmD/3bXeUoF2WA84RDjqW7019JzR3c7gRKqPeRDMYw0BRi1F2AFkFwVoAarRKYDG9d5kCFad5RjRT/wAin9u8BrRvViljrt/h6o6EIkgtKq2gOOzzTGiKZ2lVLRJQwd62eMLG002jeVfAp6b5VMACW+QTDhpjqmu4TxTiYKsdCubOgQd0VHqAnOyWwNwUaBVHCXYCn3cJm4lYwPgmztU2qm9ptxxV7DgOICouFz56Lue8Y6mABpHDmqryIeS05nmgCKd2W480c4THDbcmMbaD5BWtRLS2y3zRJORHJAZUCIUuycqlTNzmlztw581LgHhk/gYPmU6owgxG+BjyRzuQCKKedLfMwu0R+mU5uKku9QqfAojwyETglvzKeP8AMEeiqbi49FVjIPmrjpPmmaGpTlN92o0dES7ae8t62qgTaG+rpRxHdnzI+SfMPeQ3gG/UldlGJIPUfRC2HFzweLQfqrGkOusO6Cfmhae7Yyow6jLXIM9zZ4Tp0KveCC3G5+qeNBBnjhZINOcpx8Jt6lPDNqDzVMvIItPomGdY+SZBHvDUjVE2k22RkmQZRBdjYKp3Yf8AFMIa45GRG/CtYD8DuTpJnqrTsrZXhPkUWhzSOKsDcc+qqvl5jz0VrJ16alBwuqNa5w0aTsj+6sEvpjMDC2wbqsFMGsdBr8VTqDIb6QuzE/vGfNUMtaKLvKCpzTcQeAfhFmKzMcSmOlzZjfouz1RJDvgqVpcxk8l2dpyxwPmuzOGzF3NNpdpFohrvmgYcAg3NiJ0TRrhWiGFPqulCmdoqnwQGY/5FP+A2mxznYuOOazLtFNoGgCJeAdEKdQttzO9FwhHJDccVY5rGgYAuXefu/irJm0vPwT5F755Lu5ZAjkqdTFg06KngmmBhPaNgRvVXQgqTgJwYIYFVf456INA47goy508EwbRhYTy7xeS2ZIEo8QuJlPYDEwiE5x0Dm75VCsII3zyTwbHuY4DTdCkk25lQg3aKdoyAnPhAM203RrQG8Vla8BqUBninGbRld026oRJ3IvABOAsH2R7GD3M9U8sDo9XR8FUZ4mjPNOOjJ81udgfBWjE+WUCYtnqE5o2Weiqf9ImeZTz46YA6hU4yT0CAwKg+aAmJPVqqZ+8+EJzt7CiAZCLjLXAwms2nNaeWU3PdlrG7w5xhPeLu6g8WaFF8NdSIqDe3VVWOt7qbtQI+iYN5P4gZagHOe2HY80AC4BvTVNqTjdou7c52IO7KIOtp3SPmqsC6mOoyqjdouc78qpv1bnhKvcZaMThaEQcHa0iELRUm5hEO80MgRrqjKb4MSrrmid6Num5ECAZzlNtJdkz/ALhObGvABOh17l3kTj+qVawgCD0Oeq7zaaWzwz9VOSRzxB+CDBeHse3mDPqmOhzGEHj4gfMKlaJY5p/lVJ7SGtgngcFUWuOQ1x9U6k4RGd5Q3tHkVSqZazaTQdqnlMc1tQAyNyY5gwgNAn0/CFWf4irjBVsQrjlRohH+EP4af8IvdfUyNwRc5RosoVC24+aDALPCN53qpwEcAqtR11gzqqjXAnRMpsNjSTzTjmTKynto2iJ+Kfdc5sO4nIQJJuMoE6nknMPEqs8aT9FOJ6lRoITIyM81TbnVPcC5xgIVNoT5oAahAmBnoqbGyYVR04wj4T8FZIJ8gsYGuqaTtagYTxkCUMXtg8N6G/HJNTWjWAiQdfNCJe4+Spg4CxG5Ac044mG8l3jhsFUgYByhmAnmVbOFyXZwdrswP9RCpvItoMb6u+ae4SCCP5U4b3TyT/eB8wCs8EMTLuiqO0x1wg336fxcqR1Dj5QmDwh88l2k7nJw1IR4t/0hUhub6/ouzv8AFUZ5MH91SbgNcf6bVdpTDeZKO4NV2rG+V6NP/Lx1VTup73uxx7ufqn2me1h/MCEMkyceJitDXuc107og+abVDKga4N/LLlWZNrdj8RwPimmJnycCsbERxIwmjJe0JshzXul2/RPFzANPeb9UKLYq0gZybdBKIub3gtGmNyF0CdVoS7ep90JxAkgwpn0WjbwOaZc3JLG4AVjgRE8BmFVeGs7xjW+gCraMutGpBAUCO6dP4jr6hF5dNOHc8qnUIuBB3wfojTIOyZ5lqJebJtPDj5qmAGHBj/eqaSPCR0tcPRUquyXFpA35CFLFTTcdybVE04PKcf2Q02g78JyhIbVp5G8GHBNfLZdEaFGmQ06blAyrwcLgmjMKfCF+VOboESj/ABxJWn+ESwANGE2d5KkaK94AOvFNYIEEbzxQJktwqVktaQ3ihi2Y4p9uA485U5MjqnFt0CEE9zlUou0czkdCmEhEjQoSb1TZTtD44ptRuwYRadSnHAGeadPNEkTLuSPDTcE48AE3QAk8k3FxzwTBP1QGZgoON2JT2u/RGQ6eojRRI1+CJJgK0ScFNaZjO5NaAXGTuCBzIUk5KcU4xPojK94t9Uc8FSY3mseFVKmnkE4FH2EO2BUlYPed4ejoTYBaXeZQafvGnq3KpP8A8yB/KQqBk98VSAglzhzCpDw0vmiNGR5qo4YpujiHQqJ8Tc8jcqY1a7zhUcWhnmZTW62+QWdURo5GW5Jwqz8+IfmwFA/fimfyktTfCa7qh/MDlVQDa6nji6PS5Og95XfOptho9U4y5txnSXtTCTe5jXcsqpeLXt6JrY25cDoc+kovc2aTtriYRpaMs/mzhaEFjnO6QFWcW960nHjwB6IuaILhzYJCqDEASZAI2igQZGgGmMrJxrxWMcoRvtQ2XcRGFnmQfVfd3Tpu5prC0b/miagLuO5NHhAzo39VSL4cTMaDAVs2gNxxcqJbthuurSuziMxn3xCrUZNrXtIgbSpmoSGESMwJymxEteOBCY/aYAW9ZymPmMjeN4TyIa4PZunVMYROOB0Tnnak4wU733GdJKio0VBI5LwwZhXLGEy6DgrgqgynBFwUn9sfw8/4hIg6J8wqAdDyeKo1DAJj0VMiLZAGFQbTvqt2tzE+p+8eGgbhp5KXS7RN8LRACcBlphXib3QqZPiKDQAxjTw4rZiqAeS0sDbED4mJjTMKm8xZHRMAgYRu2cJwbrtO4pxO0/CGtmOaEkAAL0USUCNUzVA6ZQZtOdHBCJwnVCCyfVNaNq5zuSt0AB+SjQqN2Si+XSOqaW8Qs6Jl8OweA1HVUxoP1TQ263PNOJiVts4SmxM81cYCAkTCCdwwmaWjzJT26PhHe8/AqAdoqsMRjrCqsdPdTPVMGXUrV2f8TgqT9Kx9FSduJ8pTN4nqsQHeiPFvmEYjCJ1W6fZCyDs+aJEuMDlAVWLaLH9S4plsvi7fBvVJmyGsd/PuVeq/Zq81UAlzXczAhM71ktY4H3g2E5z9XFnXRFlKS15H4oyhtBt7kHbRbJjO1ogG3Cpr/UPonk4tLv5gD6LtLi8ik6fektcFUq0WvIb4iXHTO4BANx6o27W4Jskk5QkAHUp3eY8p5r7rngrwnfvPVANa2NRpKe17gCLt8buSdJlkc3hPvaCzrErb/fZI1I/RGbHSDwImeicMCl//AMlPcNtr4G9UD48ExD+ae0ySBjLm705zbi+KjPeGqqNtMhwO/wDsnubcG4nT9ECIktz5KozB2hxWhA6cUDTAgynWRCfwQmSgzOqfruQnRNtyENx/jS7/ABSXho6ohu0UXkqNjii2+oW6m1nX+y+7Lj/5KeRDBJ3otF9QbXBOLpDDrvwnxF+Oqync0W4JKrs0qS3qi9ogZ37kW4xKfOeKfq0gA+SeG4zzVoOyJ4od0C55PGAmuiG/VOt1XGfNCNU1m+eQTiJLR0RqSXxHqqYEtB/VB0Eqk0yGgnnKJYLxH5RqU/QExuCrAHRo4lPd78jdulNGp5cQFRaSJHmr4AGdwRiHPbPLcqTQc78pseGG/NF3FANwMozcfTcgMF2TjCaJsIU4BCpgeKSnXSPgnOcRpzhNibBPEpz4DYH9KcJMuJU6tbPEgp40t8k+IcAVa+aYWjS2TyABVV87hwcy1F3ijych7sjkqp0enNb73m5OcdfTKtUI8F2rZhtg/EGCf1TBl7zUduvOFcZtefRrfJWn989vW6FMbbySJ8IH91e8g0iTuTwf3I5xIMearNYbabnUt8/3V9MwbsZ4j0Xa2supd60b2nIV7+8ezX829CnllXyMO+Se45qN52tgfBNfUYGmM6hpKpspXXGwfj3+SMMcXlwdkT9BuCYW22nTGd5RO1iIjAhEysnkiBkDOFdMHSEbJ4yE/LWHbdi48E0bRfs8h+ipXBtF1R3EgnHqEy73ufD4KpaG0rbgcS6D6p4htdhndkfBd4ZbAqNOQ4fovvJYDJ1Ey0+ab3eQGka8vJMu2gAY149Uybmkt0joqc2Pxk53eatxcWjfwCc9rZZJ3271ZBZJa7UETCe2cbO5AtAOHIEbPBPINsORJLXJrJBVNwjIVw3J8ZKx/GXLl/iuEuRec6oDB8Iyea2rjqr9txENbDWouFsgCMoloN9jU4OwDG7Kvi7X5INGJ5IvOSu2N2W3R0lF5ktcz4JkWlzn9NyHhCq+JuBvTbdkbSb77sqc7lfUTxLqjpaNyYZsj9FU/HARJ8cq0D4BXngUSQ0STx3K1obIn1VIOyHPI8gh+HPAKo77wt6AhOvc95gKnTGQnO2QwD5p10Ajm4lMGtR5I4cV+TXe4yiPDSDOL3bM9EIuc+euAmTgE8m6InXCIJDQOpRIJ05oxAwuAuX4jngF+HHVQZLgVPhscrAG92w+qkfup6Koz/Kd5/2RcfGW+afkd60hbrB5YQIIcqB3uHRFk7dw5psZpHyKYIl7ukSqR3n1TNAHeaEyKYVZ42cIjWVnwlNAxSZP4n5+AVHXYkH8BCoHR2eDG59VVYDY0hvOQn4OfjhVKhFm1PujVVqZuYag6tIHxVH/ADbLhoRuVUGadRhHKQi+Mv8ALUeiMB7ZPMa+id4zr/plO8UtaPzbIPoqwGxVkk+FjV2+R94b/ezp1hWUgDfOdBBd6q62JBkjOVyOBxQbA/8AARwQ7VBuTm7Cc00z+eD5hG6eDdOac+xswAJK90PE9FGjrB+NA+Gu2eKLjDgXY/lMeSLnBkMLbsCcGPkg4EQ+OEzE8EL2bZkaEYPRNa4ucBcBqMFNe05l7Dprg8FtOFJ+03IG8jkiS17BkE9ROvkqdQw/ZcIz9UHXh8B+8TiOSdS2dWHQE6J0jG2NRo5AyQ3I3KnALLhwCFpBaTvRouuGhUvkoRoCg05TLJlGdSuf8WXf44mOCtkD2Ts6IRIFwBgfmd+iYwhr3bRy5Fzi84HujkgSXPdjcmk5wAmbk7cFXYQNB6I1BAc7zyrmlpIHRSOXzVZpgHCboU0eFg+qbiGITJCphvhLpRB3NHzQiBldpJ8MYVQe9n4IxJcTnoi1n3kwfijbrHJPY2AFVcfFA34VzhJdjACYzBEnhqnB+MHnuTzNv+reUA66NETlcXEdFm7U8XFPcQAW+eSqpjDz1NoXdzJucRu0Cn3QBzwhGHRyG9Oc7GnNXGfEOZgJ5jaA6FOwLxz1WJlnnlb3R5BGIaR5p4OWt9VxNp8z9UdLh5Ap5/A5OH+Une6wt8kc7APksfu4QHFP1+n6KqCPe9f0TveJZ1RGe9J80I1A85RfptDkV+QN8x9E0e76lUWcvVyYMB5A9EH4+b0z/q+h/RCpBD6R6gNK7sBr+zkxpaZTGthxrM6hObBFY+WPVNq7e2HDWN4VOQ41XtaOLsJlWNljuYqoMbLzP+o+swuzOdeKxx+DBVgFrX2j3n6dRvJVKnTL5tu3k7Z/Rd5WJ3XGAqbsHqpqYyFwaQgLXAzuV0ziVNsAZatp5HQuQZmrDnO1zA6Klpa6N4BhUzJa0jAwUC3YdY8DTUSr2FjmDXaGqs8UgbuXQp7xeQDb/wBwQLmiBY4HXdyVEsMAd4AbfLctlppG7EtnXmPJVgGvu35kIWNc9pAu8XAFd8HzBgbjkJzaFrvInIKFaLomMA/Qp4djQZQmJycwVaA4AwhWocgnjZFOY4Ksx2QQOaFXaCpwm7gp/irvZH+MIuPVTn2GvVaxupK0FPQC1nIcT1VhB1PzTnOufncBxXdCXgEx6KpVkNbA3lZW1lO2QKnqpO0yeiZponn/ADCiWzOEQ+LSVTB2nR1XZ7TbE8ZX5hCDYm0u38kXPgNJ5p3AALcNo/BW6RKLHB1R4c+MN3Dqm0yHVHl1QoPtdgjmhOACeu5RstHUrNtP1RaxxnJRtvq44NUk7gEUSnCIVepriOOEKVMPdUA4f24owJU5DfigFvIKJBxCzhoc75JxOT6CU0ZLSepTQBJA5IH3ieie3EOhSdCOZTrsXu+SqA+BNPip55L/APbemDkSnzh3xTh7ydvcmj3o6BTqT6rOz8lUOtPCB0bCjf8AFFnhI9Ed72koQck9EZwPVOc793TfyM/RZseGs5WlUyBB/T4oQTZGNS0EfBDE/DRQ6QqAfNVhJ5Y+S7JUaHNLoO7UrsjMtlpCqvGKVSpwMkKtbLg0O/DOibb+8bI/D9XFOcSSH+enxVSdlh6wu6BDcHicKRhsKoM6dU4WQMz6heI68PNGTJwFMOjEy1v1Ki+aYJ3AiVmYDdJ/8K98O2HXabnDkVE3bLm4IVri0naLcK9pF+hEtOrevFGnULREjWeB3rabDYG/PDgnHxgF2F3TXOa4BjtCc5KAi5+wdY3HkqzMU3kiDIdwG8LvazHscGVGjI3P6KnAMzJ3nCAdAa3J0OEyXMdIMwEQ0zBC2caHcixAwW4T3aAHO9GmYaZKc4aGUR4kP4mVoo/x9kj2d69rGglx0AVLs7HUaersPfy4BFwEefTgpdIGeJ3KlSwxsmdeJWNZcUfe0HojUm3zKa3fKo0hmiCeKa7923yGE+wEgzGifU8c+SdgbyPQJzc3n6qDxRgOyejVElszzCqkAkIMG0mwgxsRLnfAK3IblFjy/fKpd2NiYwJOpXaK9SXVfTQBMDbRMbzxRggGG8UTMSeaDYvCfVbc6RyTQY9kLvHwJ5nguy4ueIbunE8+KZe14cy8+8/a9FLtmXkr8RHQJ04ho4nVB8AOKaNSuOEzQHzVMavBMrImoFrL8fymEx53xywo8DPM5+a7R16n9EY2msKGnctHRM3kBNfo6ehQHuFflKB96PJbyQVTG+PKVS5T6Knw+KB4Lp6LZw0+SdzTwNFc7OE+cEf6g3/8l2gCO9qjGj2hw9ZKxP3Z+HzQd4bqZ4hVTJtDo3hv6Km8kOYY36H+67CBF8zufsnyK7iLC5n9Ug9QqgMOcHfNPdNlMT+IuH1VR+HsbEe4Z/QKDPd5HvEXx6kJ4vuGJw9/0G9VWTrnQcEDhxkplzGtmSqjKotIxnBu/wDKmDjiI+ik44hXUgSOqFOlIwQ2VW45iXcfJZDrtPr81bkgESIjCkNOLhvnMcEI7y5zmAzzBKpPbjxWbE/Qq+q593h9062nchDh+F+nBXEGczr5JzWYtMMbLdxlMey4b2gDefPmq1J3g0MY+YUCrczRwMjcUBSveZG/mqREhxez4tRYGlsVGaSeHBODdkktMxyT3NGgP+9E1xh+EWVYdv0TapyFa4vkAcFGNEDzQQ/h59kfwGvsey5oMXCDHBOfuyTACZSLWnJ38E6pe47NMafqi+552QTs9E292YxHQI1nm0QwaLux3bRog8XOuAXZMT3rjwRDNjs5Y3mYWIuJdv4Iz+90TKWInomuKYKm2ARzVJ0FlSDwlHGzKgAxojqXKcmIU4DSUSc7lD01jpNJpAw0L/iQ0BgaXZ5RzWBa65NB2yMbtUGbIy5Fu27VCTwCG7KKA1TnkNjG5oVKnDnbT/dad3VCZzcd86oU2wX7R1gbuC4KmcRd10U+9KtyXDoEXbR0WeSMBRMRPJHLjlToUBpnmVWfo+E9u9vVGIVR3uY6Qms5+cKQT3T45EJmJ38TBTI95NGAAnnLYTpk0w7phOkRI6ojVh8k3WCE38RTT76ounJTG+Cpjg5od80WZ7tkcsJkghsHeP0TYkAPZvgZTSC6kWkdM+aL4LKjAeE2lVwfvOyNreW18NVSsg0AzkWmPimWFrLSOAVStU+6hx4TlfaNPa7p1M/mx8F2pwANMOjOHx8FUJ2mk8dqYTbnBxMnlHxUjZnhHJND4zzMaKmx4hwcOiDjBbkadEAWEjSUAIAjKMhrcS/5aprniTwlVDtYk7QkxCL/APPbMfh3LuyTcM4IjCpyC8j+b6FPpbTXEMOnJUxDi0ETMHnvCY8ttecw5s/VMDnO3uByfSU4NmSQ5oDmRkHeFVcGOZUdsPLTxPIo5DID4uPAjeqzqrmmptHabPEIcTcSJIyOsJ+y1rIiTjwuAVBuS3qQqYPdvbsnw3J1Il1J+xwlEt8QMFA3BwRFuuzoU4uDuIQjK97CBMoj+HJPsgfwUQTqdFeZ3IU6P3XiOJ4c1LXvJx4RPDeV/lsaiS4nJGqeGxOScq2DuH/c5TW7sAF+rjwUQBPlqUWOBIN24Kcuyg6WU2dSVawaH8qc7BqRyCpsbcCfNNLtVVJBY3vBy1VRs98SY3Iu8PorfEV3gEtKDGQ0+azgLK7+oLgbRwQLe6YGtHvR9TxVoIbw9E1kmCXcAnN9yN5VwBJ3b0aptborRDclWnid5Urg0gRl6ZaIfhNpxaBduQEy7a3oO1k8hopwxnmUB71x+AWJd5K470G7so5gZUiXu8kItY2VHji7gEbhLh9U1k5EqPCAOeqr7iT1V2ary53VVPcAb5KqTtuLuqryD3bmjiRAWIL6c9ZTP9tQ/AU86U09uIcPJEDBkcCmaFo8imEJh0+Sg4eESNSnDDj9Cm8SOfBPDy1zZOEy+x9J98btYPzTXTaR8j6FFhAdrxwP0TrZBIK77ZqsPk0grsgcAW1CdxuAPyTYI+9JP45/srGD7poHKoVHgaR5yn1HkmJPFNLJiPJNYLhDrvCD84VwOkpsAgyeacQQNRonNa/jKtAOmo9UbmBg8R2kdubepGAeC7yMjlAieidTfmg7jMmfhKfI0MjGNYTHUrnQNM+GD+hTYAa87OsjEdQpc8DZfERM6KsXEOEunw8eY8k0Z4OBnkVXDpFRpGrXaO8+Kp1PvHi0jJ6HgnAd22SLjad46dUXtZLbHgZMajmmNhwY4OadWnTyTXCYBOdPkVnfbwO5dzvx+qEw120d40cFbMOnkVcwkjPX6IUxDvJNIysbKzn+Hk+yP4LMq4jmr6gA8DVcbGcU7wzgAIzDDk6ngFaHU2YA+abngNSu6NwG1oBwRL33n8xKuf4w1g1I1KpG4tdjed56IO25P6BVZAZsN4qYl0fMpkSBjiU33soOyFWaRZPknNG02Snwcap29SIuKnAQkyVnKe9sM+77O3U8T+qfc2nSovYze44MfRPYJnJRaJdmeCLzEJ/aTsuJHoEGDu2+ZW6IQ4Jpmo/DB6lOqnDMbgPqogFwCYBr1QmAE4khuvJPOrlwHmV7xXJPOSbQt5+KGvxUYbPlqgDLlDIbInVMYA45THEzPQJzRFNjW89T8UN8k9U0eFo88rtPu1LR+UBvyTnGXOJPNOaRDZTjvc3oub+qbpe9WjJBTdO7d5Oj6Kl/0sfzj9FTAFjgORcUwRfRaPVU6ggR0QyCE+nrlvB2QqDnw8PpHi3aBRwA8PZOCww5vkVfOzMfPpuTxgPLeAOW/FdofrRpuTMDuqgJ3DRNLc975wV2ZgItLp3lFghoNvI4+i2Tx46/NPvkpl83Ec4lPew22x1go3EuElVWhrolvCVJOzUAujOcpwDGu4oudG6SFf3QOBnHMBWtDGHOC53IBWECAc6RxTzFh35kYT8UyCT+XCYXQCY3zuQJGS3HkQiP3bxbnA4Ko1wdMhvvDUKZNmdA5hjzVB1N07sPvEKsKZDXCCNkGD8eCqAB2PHGeHNMLi1pLajobjRPfTF5AIB3a8WlWm9si0Y5ynNN7GZEEs/EP1TnCWtm4ki4I6lgt46qxlzHyNY5ckXNm2BvTBBk66IZLI00KaRkJ0kLGR/DTu9kf4ufYPZj2GBzQboNy7ulG93xRJaGjO8rETGZci99tPZbOu9BjQ3edeSJ5AJrZeBNTRo4cXFOrFzW6OMSmANaxPIDWNhu8n6K1omOiLs245pz5c5oyqbRgym1PdCOvyTvcpmEcNLXDmU7eUQLqh8lsYafJEiLYCp0nZ8e5NaO+7Q4hp0aPE/+3NV+1VGgQ1jdGzDWhU6X7uajvxblZZeZfbNu5qe/7x55hqebp2qh0buCNNkv1Oqi+Amhl51doshvqgQDUbp7qt5cgoE6kogRHkFY370O/lCc+NixvBQM703gnnZYPMplLxGXKRJgDgmtzv4lBxgGemie4wwADeVTZoJ4uTnmThq0AOJ9UDp7OaKlO/Dcq/usLegTzh0g801mjk8708DIU7lCDuSq0xbtRw1Cp+80gchCY4S19/wKtDoHVpXZ67SAS2PO3+yezL2RjxN06qrsztCMPHyKL5w7yyqbfFfG7CE4rf6gmNeDFL5JztzreICcJNJon+XPxXabdq0+WVJ2hhCxrm2D+kn1QOtEdWtUh33YA34VsBoBMaAZ8097yyo0iR8ESKdp8JUB0jTK+8c3iMdd6YbRgSQY6J7m6gQdoqm333SeUjomOn7m8jj/AGU1DsdA2PkmPdBqP5XYhOjIe0g7srZqQ102Agg2zHBVnDTBIJb4dd4TxD58M4J1lCaYbIbpncUxw7m3LpiMZ5IANa6RAy4j4qO9ltzmjzd0VKA2XWEHy3ruQGOdJ8QdOqzD97sEJweLdDkEGMrvMMlpa7aaeKAtALm8k8i0mQVDpDIjBTWiC3BRbW1wp/hZXJR/CGD6JoY+qYgHAWr3TcdPNOYMa4aOp19Fm2d2U6nE+M7lLy0ajVNsJCaGhgbr4+fJWVNjcIxoJTW0g+oOk70Il2ODUXNLiFTxcRJ9VT0MkcAu+dDGIMO0R5ZTIwbS7inDSoqX43OPAaJjTMCUweIz9U5wnQJ4bOgj1TKJL37Ttzf15J9ao573SU2M6cFvIAos90b/ANVUeHvdh1U55N4BXSHVI3WtOVSo09lsD1lSWzOn+5V3OTOU0G+NBhZx5lbJQkScD1KqOwwZhMogtpGX73n6JuZe8njMINgAR1yUJMtLno2y/Z5BPfss2W8lnluA1KYwXPMfFd74KZcOeAnRi0fyhYtA/wB80Y3T8AnPgF+voFc9x4/JT7d3sjUKNCs4ON4TgJBBTXe6QU7MCVlN3lX+Co0nhp812lkgAniBlE6h7TyKMeMEc03efTKpGoDmm73Xs8J8k5pDC3/fJWmWfDHwTWmXgjmmkiKi7TuZI4tGVSt+9L2njaqQBLKg6gQfinZF14/Nkqo4+JXvjb1GglR7wLuG9U3NO05rugCd3QLS2emfJbRtpnnJ09E9xjAPA4TZuGDOQjBMbgh3Dng7TdD0TnVKZnMIuYzebsdETTtZA/RbLInWNVWY0bTZ0/2UYIfa0n3gNYTRU2AD/MECSe7uaI38NV94KhxOC73c6FVD3fvCMEfpuRfD2i+QdcHG79Ex7XOzaRcf1T3hrm1jABa5jtIPH6FXlrHEd5TOOcaFUzTw7LZcWO1jqq1llomZaNOaqEAxaB80L8jZdnoUzJY2MAcwg7E/+eSdvOsxHvIjXag6pj8gOQnAlDh/CT/CZ9pwwaDJU0gNOSZcX+K3TmSnPeGDxAZO4JtIFzBc9xhqG0Tl7QSeStpOJ8ToUAt4BaIAyi99z5gJrqu0JzpzUDJ8lafzFOdAWLGmOKZTaBtdE4aAfMqpcJBCpDG/imkYd6KPHlx0Ck3O3KNNfgFdvJnU+wJjGtkSBkDnxVYscQQ2cY3q/JkNGSpOdBmEXmSYzn9E2XekK9yBNrAbdJQDAYyceQTqhcfMuOg6ptKkGU5g7zq7qjfpc47lYbjl247gp8OTvcfomUzLjJ4K/UnKbTFrWyVY3bOY0V20THkhAl+OiZvf6JjOOiqGbLWt4lDMOu6IqPaSUY19hGTA5b/RMEF1EY4YKZgxHMfop0e2U9sS1dlq+IWlPgmk4HknUza+mR8FUMXWvbuJwR5qR+9+qA9+ejSV2epp2tod0IXaqDtm2o3eAf1TCy2q0kdIc1Ot2XioOuVZ7/kUW4kRyXeHZDZHFxCc9uog8YPxCqFhh/oUSdCfJMtk/EK1ocIxwVN7dh88QWhqYHDZ9UzvIGfLeg8CC6OGVVAJ70Ox72qL2Qdlfd840X3IxmRchdk4HDgmMbaCN3wTXmmJ3XYRqFrrTZTdrqZ6LYIkFrjvGExmbHB7icDRF3ieCE2y0xPEYgLZiXWEQccOKvAF7L8bQ3xvBRqWWEZm6NDCLXNE7ByOibfVh+fgQUZp3uzaYPGdyJZLqURPXZ+qLmiD7ssHROfT7xh0w8HgrvBsn6x9ULdow6NU15JdLHDPFOZktubwn5ITvtKptebHbJ5ocRyhcP4OSo/gY9k/sOEuctkxpMLIkxb801oeBhA6YxHkg1oaBl+g+pTQHv8AIc06HOO9ST7IaAEOz2vP7w6clkl2ZJTW3lw0ElF7C60CUKFOPfP+8oSHOJOZ6ouJsjoiMQTxK7Ofd2lBmGtC2pGeafZgYQ3+gXvkeSKs114LvCS4wweIqgIfUBMeGmMD1VWqWsJA3kDgES1mdclWkWjTROZTkkyShZwJTcNaccVdtONlNgieH91ePw0WnZHE8TxKBIuKsYY97XojUMuxTZklOOzTEIDJyeCxcdPitvY9VTYZdLzw/uq9d4jjoE+qQJPT9UxonBIQLk0DOnzVLgeTRhRm1HgnaxhPdoERqQnO8PwRBlqjLijOqcN+VOuFud/dXD8QTdNEYAJDhwOVSOQGjyTR4WjyMhAmNFfrTa/oYPxVMCCXCNztyg4OEyPE0amNCjfnIldjIM0odumSPhEKmSCzHE036eqAAgzA1LI+Kq4JHQgotw+k4HimRBrx/vkmiC14PJS0gUojdMpwzbbJ1TX3MtHzT2jdA0/2UxkEknOThOJbcWjGCDhQ0lzcjEoOpRO19EWAxoVtiPNQyLjIOP0TXC7uyReTnnqnudo3M5P6KBxDt3ihSbCHWiOpHL1TxaWVpdgFhEY4SnioPwkEicyP1VMG11IYiR8ihey11hbOAcEOT3l1Eggh8Ap21ZgtGn6K6/axO2w8JVpJa42mWlPOmHSY5Hh5otqGoHQKw2mnjCIDCRtN5/BNe8hzQWnj8Fa614g7juTYFgg6K44wNZ4cUC7GDu5qQ644GqLajgY5EafwRJUfwM+wo/sWgt9468hw81tBoy4YCDGcbM9XFWgvfu+aN4nU68uSuqVCTqI8gm2zGyPCE6obiicDRBpCawSBLjonOMvON5RbTNYtgHwD6lC3J1KDWio8RjZagSZVwnwtTALWgZ1MosGHFP0BRbq4HkFcYtj5LAh107zp5I3EQi4wBpoon2aD0U7LXZ4q4Pfdsxqg82t3YCmXe41VKkEGG3fAK8SMNnCb3YrVTFJsxxJ5LviJFrG+FiIiBwhXVeTTkqTcdE5+XDZGjd3Uppw0448UGxnRF4/LxOApBFPfqU+q7ZEgbyVTpC1lJ1R++NFXfgstbw3nqnHUhrR5BRAaEZkxO4JonMuTnuJCzkSVTB2hPJYxDQmN8LHPdxOnonb3+QXAT1QPu54KJlpTeDvMLGgKpP1bHMFAeGpnnhT42eY1THaFZi5cs8d65ojI9QsQWmOI/RMgCVcw2AOVNzi2qKgPEZRpT3VVzuIj6LALe7BjNwhYN4BHIprfA4emUHDTKOXYjem6Fk5w4IGZscZ3YPmE57HbLZ4HVVGDbcBnHBCphzmzudyTAbXGHfFUwTTc+blYW64nnoqbgfp6ppzKaBlo1TmjYkYVRmoa8HimQD3bnAmTuHknsc4FwGBgGJTy5txv5HidyA8N3gxJkCPmiRYG27Og56pj3YAuZGJ3eaYIAJvkwmGSBtODQ9v1V1du4Ew4H5/FQ5z3gSNl7TvhWPtY7FoxxTu6b5A84KltQO42ytsEtgHxK4xi8GELZMlqBw4GG4DuSByzzW2GGnE6f2QDj81LpA0/gZUfwmf2bJGrhqeZRBa45efD+q+7A3A+pU5MFrcnmeCsOcvOV3dNxdrwV33lZ1oG5XhztGhW7ugRJl2p3IGoG7+SpCGOGg8P0RgNJ6x8lTEuDctGp0CNRrWA83OKECd/yTn5cLWDRD/Ka25PAy8SqoMNdKaDNSxdmjj1XeuBETuT4NoAPP5qxtoOuvFC6IUKeiN3h9VUHZNomXfLgFBAwpphg4SVMtHCB5prKYqVj92J6vPJVa5BOy3Ro3Acla95PuomJ6oBgx4lLtloH5jmE6qC0OMb3FDSngDFx+ixb/sqW2k+S10DeJCdgNAHMhVMgOc4n+lPcQwOnpomnWXFWeBuU85dpxKYfewm6N8KnRAcEd5R3ym8CuCqa5UEy71QORPopnitxGUUd7UN+qaRlDcU4aiU3oeScMT6YKcNSCPzKHWuoua7kUxwl4HVzUGgQ7pvTjtC08ipBNlp5f2V8kMIPEO/VPc0g2+Ygp4dsn0CLheDaQUSJdUJnfGEA5s1pM702o4iHulC52Qfim/gdjOmCmkfuwZOkqxzSaZaesgrbIaN2iOgEcESck53poAEl3FAzLUREkiBpuRbWALRk7XmhFFkzGTjghNpZocDgFJLm1ItBjkmu0EiI04J1zcEwTbzborp3Wu/7VU2nFuR4eac8uLztQLuaLSwnQxCAaQM5/2EQW1DP5uEIOaZ4SCqZF0bXEbwECHxwlQS8ZkQ4dVm0cJB5K4DKyXOgghSMcf8eVJUfwWfZKk/s948gnES4q6ahwX4aODQvDH9PTih3TaYP5ynAuqR94dB+HhPNd1SDQbjOXc+Sf2hw5JrbWtE25/3zVR7i44AG/cmlsjw8Tq5Mpk2ZdvP0CcHGIv3ngnuMiUWU2sOOXNBjW3A7W7kmvednHFBrYLJkYEq2jdYGud8AmhucuKJMkwmn3ZVNoy3PwQa3JMcG4lF06NYm4tElZxqsrcn1KlMBNhrKTpHHiSjjABjAQDbBnnxJQosNau05Oy3e5VazwXR04cgrNkbmyryeGD6LUck47OmzvVMQ1onfO7qnOEMm0aAKxrS4ytlxa0pwZEQiTkr1VWoC2lp7zjp5lUKGu270Ce7SAOA0TzqVT3S489FvIRcYhGPEgMnHVBv+8qdxR3oRFqdu+aM+MoEzlA5mEQUNQ5ayvMLgUByTtxQ3t9EQ07QcE1zoLn+S7TTIDXX0z7s/QoPGxjl/vK4QHKpyngnA7meaLnEEj0CycwVTIIeehhD8WmDKLrWwYPDT4pvvC6NCgGtlogDAUEGwCU25uRrFplOaQRbO6FUBNrsHUaQrCHmTB1ARMFvFEYjqgfDAKuA+PVOMDAdCc03WT9E4uGnQqSWgQJyrRFSBqY5plMtAI2iZ4K+INu1hRe2Mnj1WyQwnBAjkc/BNew2u2rGu6raLJNvundMruni8eLhxRa606eFB9si22p6wmyCBaD8Cmh/C3HVQSQMbvqg0cpx0TBInDtEQ2YkKwug4WrY/wAaSoH8HlT+3DXbg7XoEXFk6GfRXFxdvICiS0SXaFF5O3sjXqjUqtYFZcBssZgNGrjzVnjdDj8FoAIE6fqpycNaMBfdvqn+nmVTYwBx1hzufJPLm7G1rbuHVNc6XGYyT+iJLnu4IQXHcm1Hmq7Qac0XS9xkDHmmFwud5Jtt0yN0JgOWqdJTvxKpPLmsGNTvWto2ePFZgLmFsOptf4vHAyRw6JgIc7MaBZPPXom0abq1TwzAG88h+qq13Go/WYDRu6KDPD5pzmPDBmQJ+aFOmGkyd8KJtwri7ptHkv8Au+SlzQ8w1B0ZgKcM0Ck8TvVWpNoxvOg9VQpanvXcBhvrvVaq9rQJjSmMNCEzUqXu5aIkzw9FIgJ2pKA+kJ3BDUhZmI+a4Jx3pxwDhN0uJWMnAWPCfNA/5gCMeIOCjVcAjvRGiE8+SePeDuW9NGrCOa4OB5aJz8QfPCJJ+7bPNPDAO6pnkZ+aqBsmxVPeAMb8hPgOLXRxlVSP8yP5ZTRE1D1IRpDZcw3IvMgAcYRDhp8063xENJ0hfia+Nw3KYtYOkozY8NbjJVrYwecTKZocEJj4Y5pA6YTYsO1wIxCbBhzicSvenPzCDd3/AIQZo+0YQdDp84QcHaSdwVjsFCNo5KAGYg7t88UCwxpMAQnNJDXGMn0QfsW4cfPCs2pB35VrAcAYRe6ANmWmES88c+hUi+OHwWRu4HknFwFkEsM9eCIuIzMSnNbcNRGOKB2hyTXYIWzsjMrAMdU0OOf4Of4AzPsn9kFruGn9I/VQLo3fBObQtze7Z/qdqmNxOZhq72O6c0tbxwh2elVe3xDF35jwQpta55mM+ZTo7x/kiwNPvHQfVOcBJyVa2jTGu4fVAFtx2pBKDWd3TGN53uVzDaJKGj378wmBhZpduG4IRa3AA14Kykxg2J3clOzG9f5lQwweEIakmEzc8KBlo6rGCVsy4qTsgK1FNad6qTsg8AhSpGpWcbQdo8XHcF/xDhcbYw1u4BMpNhd3RE7Tz8yhDZ2t6MPI1UNjeVu46qHXnQLvKj7t4+CdVeY3mGoNY0SqcxbPyTneLTcNyBy6Q1GLGMDGcN56oMCLgho31QAgJjMnJRIzs+zOqYOKxJwE538voEBvlNbO0JRMoeKxA5QChToURgGOKe3wmQuJPkqbMip04qs9xitdyMfVGLalItPTCE4WNfhCa4YfB5LJ++yi3XKeBIiOWCi5oBOOYlOvMBP3aqXtuo5+CZQM3NcOWFdDi6EIguA4IEuNrYiOvomtgBpg6Z+Sp6fKVOJaeE/2lTjvCM6gqXbUQBwz6qdo2nojgkHTeFBwAjIF8Jtsm7SVcGkF0dVgw6JUs0kuOXf+UbmEaQZ808iXeEMMxy3BWjDt+gQaabTv2R80ymGh5xvCDA10nGXQEbpP9yrdTxKFwPu2fBbbMeaaWx5nzTQJnLT6g/8AlMYQdWkjyTbojdlQeSF54JoaI1G/kgEeCPH2n9s/wufZn9oHYZ4R8USWjhCDWNqHWdgc+KGr6n8x/RGwUmNtByULW03EuAzHNWfeV/RNqPdVd+7Z8TwRce8eckegQLgGj+391t3x5oFz3Y2ZTIvq1J5N0T3s7tmw3gPqgDDM80cmd6dfjRo/8K+oNq7mVDmgeZXeEfhAwu+fszA0X+9FOj8/AJlMxNzl+J2YTTMKToUSVMC1Muc7wtYJc8+4P1K783kFtGl+7Z+vMrLicmUatQud4W5RcdV6BbPU5R70eizaOKgEDRsgKA4Tl5AQAAbrpPBC2RJO7oi0AHBcJTQBbnmvxnyRiTs8t6DM6lPfxQa0T6LMk5Wca8U1uXGSdANSiMOxyCcTCpt23ungChdJIHU/JOI2scAuCDvcQUb0EwhOHRCbkDvlUm4cVRMC7PNF3Bw4OVIGLWjkRIQGLccit6jIKuBDhPNO93PUJ3AeSuEh0DmP0Rn/AGVcZtF3SFGbm+iJOxu3lVWzETy0VdzySJVw2nOlRvMndvUSXXO5/RVBglzOokKnJDqZJ5GEAyHOfO4XIPsdBgaScJ0tJtEjaI1RLTadd0SnB5njp7Hsta5MdSEfhlH3ii8Nc44G7ins2BaBoR+i7O0Pk4A2j13KnUeAb4DYneU81jVsjWI3CFUkOiah3nMD9Vs7QcfybuqY6OI39U0l5c6YafIHQdUbmXDGhCmraB4RJ4dPJN24OgPWESS7J1HSdE98wInEIltwjWFJbMbQUEhNqXNMyg0n9qP2J/wI/ZPFH/Ej9oAwT1VzyYgDQIF+3oMlZLveKa11ziu9Dcw3dPzQkD/JZ4RveeKfXeGRJmSmNdbT2nTl24Iue5xOBnqrmwDganmr3bWg9Fdc1mnHirWLYv3nRBlOJ2nFBrWkNy7AHJXF5Og4IUqZue1hcPOOAVKNi/yxKZSHhz1VWtAaSAdAFVbm5TlxmUBlTgBXHROqVg1pE69FTcO4pOiiwyT+N34ioaAFY3uxrv8ANd3TGNdP1TdeHzV7xwCkqXO64W2ep9EBsjUqHOPoi7CaX7R3rvJe+AExo2fF8uitGGzUO/VW78ouPLiV+DTioyTJXmU4unWNERmdpOySdfVYwfJVnm0AjiqdIyHZ/Fv/ALJh3k/zJzvC1OjJTtyPELCAGifdh3xVXi5PcPDKgx3rmH8wVQuaCaL/AIH6IgQ6k8cxlMAUCWjCjcuqzrlVOBTZyPVTEiUwEbQnhlGNlstTWATs8CrjGHeSByd3NC6fRVSbnCeWisIN9uNxQeAWgn+YosjRzeeieWkttE8An07xpxKa7UDyOpXj7sg8XJxbLSf1hFzr7YH19rqTuI4IPzOFd0G5BjnimNr5J75c90lb8ap2HDgfghb4YyN6AGFHJPbo5W3Xvc4xDQtvGjsGTpKeypUc6fFMTiAg5z2d41gcQeCBqhra21dKp3z3gaRNzU+hTuiWjM6qrWlrfCq7q9IOdiYQ7xxH8LP+DP7E/t+PkjlYW72Ana8Dcu/REOLzBcd24INb3nvP+CP7mkLR/mP+iF5DegTRidn3v7I2CNkbk4jZ04ogOOqnZdrMu8lZLj4iMD8IQc7b0aJKvrNe/A3BB1WG+FvxXe9pcbsThE1QwAyxonqmjaqlVHfumuVm08+qHXqhMDVabUlHDG6kwmdnoOpMO0T967jHujkpcSNBqVbDz4j4Qhdc4ySVrGAMBSA3ehACF7kGv10Tdo+Sa4yiXooU8hvm5XkAuJ5BYAa2ANTvR4xO5Mbz5lE6IMbai/CjYGAi46eSaMuOdwT340Cuy4w3j+icBYzZb8T1TfeAPkmYs7NSniVU3hnkqh3LifYdxVTO0CnzzT2a3qWzeOpRqOM1WINgh5npKIjJ/wBKJ1Q1wV+YhEb1TcYJErMD4ZVEZM9E1zRAGvFEnawgzQ46JkSWiCmxsn5poEXESOqDMF09U64AOb9FD7hZPEx8EZl9MnMngqU/lTKbrbtNOK0cJ896Mt4AZjQ9U55bSzp0ATm4n3UbTLJJ3QntyWwJ9rmGQU3/AIM24qEwjrvPsahKjQ70IWfoswjnnqnABo/FKqOBlxM/ROc1g4SqhESY+iqYNxVQaOPz9USdEGOEfxBP+DKlR7Y/Y7ui3iSUQJhDVSo3rBzgao1amio3XDwt05pxtbGNUxlOTmrUlzuid2mrA8I14IMnfA9OSqHxOydyAoTMZx+qcdrQH1KJeV3dJ5idoN9Mp7nyZJTmNqNZiU19YSJ35VODmC4zICAl0886psw3VMbBe0l25RoMqGzOSo2iM7gj2dt5/fvGz+Rp+pQc4Nu2WCPPeg+A3wNV1W46D/cLx1D0H1TnnW1m5NDbt5WxJOqGITnVqsaNEBAY3AY6lRcVUtG0qpGahW71QmYRf6wE0T6IQXR0TzyRxA/3zVjLRrvQ3pxxp7BqfRE6on+6ef3VF9Q8m4X2kYjsFf8A/rK+1Nf+CeOsD6r7RgB1ID+oLtW/ux/Uq3/Wo+pRjPaaK7Nv7dSHl/ddlaT/APMmnoz/AP0qTIt7XWd/9v8AuqdpBovPMshUHaU6jeiFMgipWjeIVH3qLz5Lsw1Y8eS7I73j6Lsp0qlUSMPKY5+XmJ4KxosdGEZIJQDvGQOSAA2tOHFOztu81gNDs8whiZ03IUydv5z8VAgS3yyqgOpVTjI5o1G3FhHTHzQZGybiDvKeQYLRxcYauzXCCDjaMFUXgFunDWVfjQY8ypaZxmCRy4K4tDWxPwQc0lwOyTnit8fscUFG5U96Y7RwPslAtQg5WuCsnK3R7NFmSgwKobapbsz6rf8AtZ9mn8PKyo/wHPrhgGyxoCF1jchvz3q3Hs2ls2+qJaQsgDQKNRhPtDImrV15BNupdmojTXqqNKl4p/E7ieSLz3tTA3NQdE4AyVa6B+H0HBbBhFzGM/MSsujTRHcnhpJYWzqTvCe6pa0MaOug5oGJqGBrzVFuWNzxKL3YBJW9yzJCFJg7VWAOYpM/G79An1Krqjid5JO8rvzE7GkBSQynnhwRENadUKTWUuGvUovftH+wXeVMaBCmzmnNpZm5yta6d6w4+itY0KSt/sxCtaHbmjHVXC6F4QhH1XdtmMp7zkqvVMUqT3k/haSvtarl1JtIfndC7NR/919rUGfy5X/pej4+01655aL/ANN0P3X2VcfzmfmqQ/8Ab/ZdBh5D9Avtqt4KDh0pkr/1G/8Aya/m0Bfbzsvc4dXgLt/vdoYOtVP9/ttH1JVAZd2tnoV2Xf2s/wChfZB/e1656NC/9Mt1q9sPov8A08zw0O1H+tfZRGOxVD1evs1hx9lA/wBRXY8W/ZbBP5SUfc+z2f8A9a7d7vYv+wL7WOnZQP6QvtaPBSnyC+25xS7N5uavtJ3713ZR0IRB/fMPkgDtOaVTt8e1whMzNQA+qaD4jPT9VDrSwk75T3NbGMaDKtbd3hncIyqrk84AKdMx5pwbILoO/cnOYDN2Fa478o+GMHUJ8NYSQN27VUzk44lDFgOD5JwzfJOVewZzkJjwTpbqj/gOaQCdlEjZUNhQfZu4I+yCFJkqm+H1RvwCop4yg4Lgp/bj+FJ9mP8ABF9Zw9z4vKiiXnU6KTyUBFYJWy7gsdSgCHO0blOAdU/zamAm0291TMveNt/0Qc8C2QwYHDqobLjunoo2yZE7I4ld5MnJO0UALWotpXI3Z3J7Zt1G9Gm2XGXuT6v8oAJ4efJVLrQ0ugCXHElWQasdFTcDGibHIbk2sX1auKNPLz9BzKqdor3AbrWsGjW8ArGOpkyd458E5rLBl7jtR/8AiFUIhhHAndPLoqbQ7tBfLWYYnVKjZJAifVCx3DQQrWS4AcAg6HFE1PLCABuyi9xxAWQPZiPZJhTLdwxKuLc7Ldyc44BLj4QMldvqAPfTFJv5zC+zKee09uLz+GmqbGz2L7HLvzP/AP8AS+2CId2rsnZR/MJ+C7I6f+J+3XvO8MYV/wCnKWv/ABlY+TV9iM/dfY4J41KhKawRR+zOxs/olfaW51Ng/KwL7Tf/APUuAXaT467z1Ked5KqlP3lVKnha53QSu1alhb/MQ35qRt9rot8y75L7JYfve2V3/wAlMD/8l9jsIs7B2ip/PVj5KmG/dfZ9FvWSu0gbLWN6NC7db++dO7cu0wLqjz1cqu8n/Uq9R2AXeaaAL4nhKpzgKPdaEydMqpUP6JjzBqOJOq7PmMnqqt0MYXeaFIAf8OLuF0qymJaWnyEK3aLameUIVXX92WiN6aMtcwk75U1JNLH8yYNKQHVNNzDJPAKeIHSSU5jg9rdOKLcx5pzXQCQEWvda/kri0zwROwOEq5rmgb01+gmfmU9l8jA3qP27qfT2TlAHVT7JWVe8cAoA5qGyiRp+3Kj/AAZR/wAIqVyUbv8ACAZrsl2vE8U3Z/l9ELcD2wxG1CW8k1gpA79s/RXl27gjSp8Xv+AVOiA0Ha1PVd64N3axx5nku8c5rdB4nfotkhqkyV4aY93Xqm3xG8JjJApDiZRxstB5BPfsB5DW5POEaLPxVTn+WU80vvSc/wC8qxotbhHtL2sYMkqmWs7PRP3DP+92936I06d48Rw39UW78q3A1O9XESYaBaOm8p1apSpUxFJpwOSYwvec5OOJRe4jc3WOPBB78nCuBqu/pCb3jrRjeeKJJCtp3FZnl+wSca7l2+q0OqBvZ6XGqYnyXYqFPFOr2o6lx+7Ym0ZYO09m7OPwUW3uXYXu/d1u0HjVfA9Gqs2R2enSot/IwLtFXNWu8jqu8ydEBK3Ip2JHsJMNElV4udSt5vNo+K7Ozx9rZ0YC79F2IHZp1X/zOtHwTWfu6FJv9Mn4rtD9arvkiclFTong6o4l0o4/VDeQVPNH8J9FWLpsDWBbm56q3V46BE6ugJhwIKPvuxwCEZZCoxkg9ZhNAOyz0T+J9ESZbr1R1cfKF7rqeev0Tp2GTnOdE3eR5DPqUG/u9niZTd+R8FA1id29Mc094OlqbE244BbIIpwN/FPudgwnNcHSIAV0tg/+E6IHiPwWnVTTqbnP+SE6wi3dvRB6Y/Z2iP2IU+y44QtZDOqFpBUttEapxBgqpyK4tQOQpUeyP8A/4ZPsJXJR/hi+weFuApued2UxgY2NNVpGS75KVoiICL6gbOqvqOd7ujegUGeGUXVL3HYGg5qy57zLiZj9U57R+YzO8ptxY3wN+JUscTgNQYDUfuyBxKcb58Rz0VhLvzBS1zuYTy2dOqo9nY58d484zoE4vJPhnwjeoZw/KEXutA3I9j7MaTZNesNv8rDu80GZdqjhYQL8+EZKfba3BdryG4I02MZNswXu+gT3EkQNYJ3IANpU/D8TO89VedrA3ouMDRWCN+9d5UgcQr3/AJW/RTOFqu19sfbQoued8aDzTGjvO218D3Waf6ivsL7MFvZw24f9ISf9ZVWtU+6oMYNb3bbviu1V3/e1nu5SrWHicdFjCxyVx9l0/NM0AT6x+5pOf0CYz/3HaabPyjbd8F2BngoPqnjUMD0C7TEMc2mOFNtqudJ2jzz7I8TgPNPqeCk93RpK7af8hw9Au0e9YPND3u0sHQLsLfH2o/BfY7dXvd/UvshvhoT8V2YDY7M30TRpSb6BVt2Pgu0OnbPqqrTt1bvNVS0bB/oaT8lUImyrPNpXaGOlGdoE9c/AJ5iA9oPERKcG+LKaRpcfVHBMDkmxm1dnZBmOiBm1pI9Fskw1vVMABJ9f0UnX6lAOMmSecn0TpEzyPBHM4bvJ1XCY54RdofNAN2WiTx1Qgkm8/BTcA0foo8LJ5pniOMKTqtJknkm6BszqjfdwkqJmZmVAP7EPRj2Q1FxPBYRLg0DKGpC7uLfCsYKcX7WiLDI371x9jTnenM1yED+3Ptn/AAifaEB/iWtB3lECAvuid7kzadxMAcgpkBZDRuGVJRaDGqyFLSrADvjHJF7g3iVY8hp02R9UGMgDP1KZT7PS3lx04lOqPN2s55IWEDUleIcQoEc5R0W6cLu2CTBOg4dVkAHLz8FRYananN2GmGD8bv0RLn1Hm6o4z6re5NGjUNAEQIUTUdm34ncnF1zjJVgF3jcBjg3+6L31KjjsgEuPyThTbGC7dwCxPovEoudvgwoZzK7T2t1lKmXcTuC+y+xAVPtGuHuH+U3T+67pnddh7M2mwaSPou19qfNas9/U4CJwhTZA1+qE3u3fNF2un19mVv3KTaFVa0Gu9tBu6/xHo3Vdho4pUTWd+Krp/pC7RVAa6pjcxuAPIKtVOxTc7oCu3nTs7hzdDVXI+9r0m9JK+zKX73thPSAvsSlpTL/UrsFL932UDyAQOBS/7k8/5TVU/wCnT9E/8NP/AEhVODf9IVf8v+kKu50BrT/Qu1EZptb/ADAN+aq+80H+SkXfon7vs+o7+a2mFWn/ANh2Ng/M8O+ZXa2tNna+yUhytb8gu16f/rXZh/W4/RUnvJrfbVF3QuXY4P8A8w7P53Kmwyz7R7Gf6nfonsn/AOL7O88nqsB7oH5SnHAlBhkw5MMWUsqnadx4p3uvdPEputVzjyCdUgktYOE4895XZ8i81HchAQBxSAjUqleDUJxuCNV7YaANwTXS51Q1DO7AHKVnIb6pkXFzM85PpuVwuw1vzTyAy+DGg1ATdfdVokDU6nVNA080zFu4ZKBZI3khCIA0KGeIMKQVaYPsxCz7fdCgI7kG5PiQBwFG5DKBdhNhHh7BHs3/ALY/aj9qT+xH+LZF2p3K9vTUrEcdPJQDhWu+ajXU6oAmBuRUQg1oWi7phqnU+D9V98OSL7SeZKkd5uptwu4osbO2RLjzKJDifCBJVxuJUjyUK3a9FdDinVa7Wt1PwVEvpU6IlrGwz6u805zs+qM4CxlYwFjJUgDcEJL3eFvxKfVqEnU6plOk1u75rabTA23AF35QtP8AcIgMpzlxlx5J9ZzhSZJ08l2HsYu7XUvd/wBNqrPZZQb3NMbm6ovknf7N0Ityi5EkNQ03rtDvBQqO6NK+0Xa9meP5oC7S9/3rmMaOBuKfQx2erRo8X+Op67l2cEurdre8nU6fEr7CoeINcfzOJX2XRjuuzDyaAqZwKb/VUfedWHRwXYX6/wDEn/7q+zyP3dYf1rsH4K3+oLsI/wAqt/qC7HrbVH9QVKp4KXaD0Td5c3qR9F2dnj7YB5L7MGtd7v8At/Vdnb+67P2d381QlfajMUqdFo/IGr7S991UdBHyXan+9V8yVVduf6Eqo3Nj/wDSVIjPmrhq7qqcCKZ6lNtgj0QJiM9U/wB1jj0aSu1kbHY6552Ffax/+irei+13/wD0j/MgL7RDQCymOrwu0AbdXszB/Ou6J/8Ajez/AOoqw+IHos6lVadoZ/4TSJnajJJlZRiE5sWYwnA5cfqiw3DLowTmFAF5F0YVodd724fVNabnmcQ1o0C72XeiDrRGN/BQYMQsAgQIU2yIAOi2Y3mStRwUy724wpG4KmwEzKvfd7J2nDosarioQKDfaERkIezC3H+Ak/sR/jNM1JycBXMtZhrR8SgSBv8AomuJGiue6NAFqf8AeURAHFMBeToFcS4qU1xl2gRLuitdKtogfiPwCuYyTg7R/lYg+tWed0I/8Kxg1qOk9AgWiOgX3Mn3isI2BCByCdQ7KyiP3/aBtflpnd5puy2nwgu/RMptMI2z8kTaDxQaET5LOizCLiGDAPiKaHGqd3gHNXGNTGUHOgZO+NFTpfe9rfYIwweMpzWd12dopU43anzTjg+LU9UGtWp5KvW/d0Xv6CV2zWp3VL+d4HyldhbJrfaTelNhd819hUxhnaq3VwZ8l2EOjs/2TTLt101Cvtup+7oUezt/lAVVontf2nUPJhsC+zOyj7p0nj4j8UY2GHlJXazkvjoqzyXOqOPs4o6KVTG6PNVKrvuqdR/SYRZ++rUmcpuPwXYwdltWqf8ASPgnj93Tps/kZe5dreMsqO//AJHQPTCrRDq9Jg4A/ouyDx9qn+Vq+zm7qrupAXYm+HsQP8ziU1vg7JQb5LtJMCwcgF9sVRs0ah/oX2yfGwNH5nAJ8ffds7IzpVMr7NDpq/bJP5W0yV9gg7I7RWdzhdg1/wCBH9dSfgmDw9j7OD/Kq4bhtJv9IC7WcCt6BfaWlOvV6hfaYOe2Vj/Uu2v8Vaq7lJXasSTyycKo7fk7yg2dHJwR81WrP7tjXOPBolPaAe2V2dmbGh23n+kL7MpbPZ6VSo78dQx8ApRlGfr7DKJ3p+h3KppKeHgl2ipvjayUxgzqrsBEy5AluMKNBrJVlV0ablCPFBXnkgAjUl25AQeIQCxIyoTRqmFuCi8neP2OHt3qf+QFf//EACcQAQACAgICAgIDAQEBAQAAAAEAESExQVFhcRCBkaGxwdHh8CDx/9oACAEBAAE/EBGs6EMpbHuVFgW6gDyvEvhyxwJUTSJfvLgEvAuiPaptfBG8BMS/qVBrMaLTRdQc5jCeZfVobo9SoLKg7OpyQLCMefliwhczNkOIo6CumNBBZONO6uGViZJYyA0wkJeDAIaauWxM2FEWnG3H8rXjuKJDVJ/cFbVBQxaUVla0zU0lV5hpeKM+HhYmgNad3zBSp4FwACnIFGuU5lgA58/1EgBqoyV0R7dDBVwuBBoP/wCEX4XeLuX2yC8xCFdMJSiWnwuyzEqDWv4RtxI62Eq0x5V/InDVwaQxyu+n7g0Vt2DcrDrqliTBq7R1LHnSzMpNGxZTEoQTFl/mH6mqoe7qJtYAUrT4ub2ww8td1MkbusKPZN9zgDf3URHW9KEZti+kxLcd8gRqFpQvEKv0dJkhSAWkMJ14QXKMXXHhj4lzOdQYxLveyFc7eE2oixa7DgWG/jzeTzN+kFOUsCRRQp87J40GdDNyaiPuBBerEqCVgFdXiA5t25Tc5A8+BtPbL5wAxymWFAS8qq74lqjavLBiDTs7htYg0x3zPCWq0+GA7A7YSXu7fwexVh3NoDSqUPq8waNcqOP5nUzT2MNJjgFFekYDbivMRTs/pFRavj1Ac1Qo3UCVCbazMqbYYjKrlvFbQtaIYLWChzmATIpRg5hsgbTdJgeoeIBzCXGfAahqsfc0zEfhntiXuicxQi5lrY2DKXKR5Y1MsbSMBB8qd4iiaxNtQyhaL1OktzRM3DNyiagSswgVMQyqjBiK3LDF9qA2xpueh5mfxli0AaQgK+DxEHLot9TEAdy/s9xQ3xBUYvYZ6IcLKTcRANO64imzbn6ipBF4fEDWltG+wWI3ZpZlUJqv7gqMveYgUGnhYaI/LLVrDO71clypXiMsw9NyLCM2LKxs7cA9kz2Sb8rD3LQfKWJVO4LdUL+YAECHRMvcWUbUBWHcMB/sCVTYS0gBFOANrK6Rmi9eVm8OdY8HxMSAU++F91FajSzlrqGAVWG2VUzcAorLAAHSIt5uqHt3GoCKopn7meHpkkWB6TiRKCbcAVKUhtcBjVnmt/iYw0pUUcFRVGyw4gaUvnqX/Fx/2EskWCnMPsjz6NV/T1GXBaVZMWBPaDlBE4ufiZtc7Q1FUV8j/cNS4Kwi/JLMi8c3FEp5hfFZo0/sjfsvdleLYrMKOB4NbUWDK0eHiIINHGbE8TJFW0d1Nxg4cxCEU+R9MMQ4M48M3AsZ7gbNZKC1i9xRAeCnVzkBbWeAxXwUL2qJejkBm3mhHKDoB28r3HvgBZaDNQzxPxYqc6NZ0I6IAXN4rafEKNQwzGmY8bI59MJsdPzAQCig7g6i1K7TaLqkjvV4CBIHIrW8AR++g8ATfOXDbzhxguViu8gHtZdliQBU0fxAB2H5yM2yqC4rhC1fb0Rgivs+COwyvA8EL0LZasM1DjCKzPbpxFCAIVXUV5IL9RvpihzL6ZlI9IGM2wQuNwwwqHqKZWcNsc11Be4DVQtGVHxcoM7lC6qYoFgbxXyucQ1DLBvMX4F+NT0+LSyuaKzBMSFzDwI0UzXh1iYkJFeIHYZoODtiJGipfUJFdt8DGu+EEoRh8wRRVMs7ZlUemuY2pBRDKMkxPuK2ClZkWt4lMUBVcSxV148xaPzlwxJeaibYDioqtA1DoaQ2xQmL5IoUoc9FLe6REjS24a1QsICzo3FyAGZ5sNNgR3GJVyzA5QMALU7HZsWiFpQPFbqPpQVJihjQWsadSlMgUPLRCAQCwrRW07WOELdeHiW0NDxA6GWMhmV3llAB3BoWlH8WuWHt4XM+Jbsz+TMUyWuRv2TPZ5NZVRYtlVPyR6bQcdRbRNnJzHrbjmWFIkATJnzBmX2+wYNCCFNZe+GK1YnHBHoYsA4hLlbKUXCpCht5YoYZ/tE/mFl73nX0kQgocP8AWxLnyLkvykpYT5bP7DUKbuTAvwDTBYmatsvtQIQ5b/8AqwqGFnZIqxc1eZKllKOLgSGAU/3AnZBTEI1DWL4IZWN+3cKxyNHzxLNaVn9wHVbZ8GIg8FjC24HGM9neweCBc4PgSgC4DDuY/HD7M/q4w+ii2g5hxDBRfioo1BD34Y5zSNcHYe4GWVH0NAivvV7eB0Ra3biu8wQLQKO1TazRjIIOtCy+bLa+pmW7KdXMtS56OYAILj9mNiTK/rBBDoB8xcLUNlJnwdV7Y9Ax2dEuA9uygpG0ua8s1zOUpAqdGUjCimdagWGhBrGBhbAZntlu2HtmECJQ7EXFVbIyyp5Szj4vqB8Aj0QupzXDAD4c4rjKh0kBYzDCFqxP5iT6SxxFbhS/gupg+D0JDD4GPaMCs9QxB6Ih4JVJXLfD0EGI3RNUK57gs1CPssTDUAE1UTSaG43tIcS/dxVlrd3qYK9mZ5gt2bh5YAwLlocFysPYiYnuvUAHFoIi61H0vKiOLanmAXtx1KaijK6IcmpvNRJtWL1gAyQxcQcjleoeDEFD/Kokg3lKFWaK6ltZl7Iptvcaq0tU4xAczstSRlJzbDLA7WyB6jVxMQYGLxLtGouWnuZZMAGw5tgIsbFcpVvuNLAfBHWAHRBIC9ugIROo3VfojBndWGBAd4uRg5k91uJFbjr/ACA6vSm5RBfJN6tcVAFGquoMXlowYGeRf4i8BTis2zJBVKE+qeEAOlmgTuH3MLw0ed/FRo0qMJf9y16WEQbG/I/xLJuMNReYkKSR+FBNkyk+xgd3lFAQoGTwZHiLIwJ5txmU1MC1FDYt+RFTjhZ6bwfDEFFvYidHDXk1DVs5bkVZ9mOS+VZVpoTuIIMazog8KY4RvbvKo3JcDVRrsUK/mYZr/ZYvgezUdBw2fti6ZWSHvkYeHUqIvA2dr9xmsrPJeYseyiOS6xLMgegNl8kUTZs7XBLbajFGrcqxNYcghQN4L17F6lvGJC/cAHGfwB2sAC7j0rZKiEaA+swAnJ3zdyu6UHnzBpNoPBAJBeTbzGca9jdR0q4XXcKVZGuYL4NRjPkve/LAxK23thPtu04tUlgFW8sxI0cwLXHiKrUlzOPiHkimGB+FbnhAQOZY4g+JfEccR3NsHcoZY3x8YUTz8HmOIziOSofgSqOIeo3FxBFSpcvNsLXKw3W4b4+oY+2YRPxN0W9ZcHcYA434iewGvNRWiS+HcuFQgA1SyvOTwa+4Vq1WxwTeA2VF/cqVdstCsEIlwz4i054VI1zkQ4QDkxzKgKoC3HfjWIVGnAOCBZb1XmVGpnUTdhpKhbwS9qaz4jkAcssZHYOSUtdXjMd/G2FVRG68SsWYPYJ9hERY6lavZtdPqNIAujX3AsjC115fBHIaQvh6lA5EoNAh5dqxEusMou0OILPVhEeiGYImS36yyQbUd3FluX3Di+/ZaGgNwkjGUWPQTIx8VMeAhEQ9D7Li1M6MR4NK1Ofqa4dmY4A9m4C3zyfZHp+cxFny0apXkhcW8AjXkYnWJYAqEC35mLiPBVnBO/ExyWuhB8RTVucj0KGUzW8N0c7ngn4rMXu8dPzKhCjbivJ8xVB4ysDCukU92lIirZJ6c4cOoFfE6RJ0OcYjjHTFYi0FgxAoq6WiClRdfUowA0ANoMaK0WeJBz++MulpVclmNgtZDOGvpme7aR8bWE6VLRGgaBBAsaRdJr/Zahouu2K5zbEQmZ3KIG3crwig8nBGNEqnGJlpGtKwxnolqqXVmIyuE0bTwTBdBpbBVb3CX1DDTXnyyxAIYWgreIUJjLCl8EbQLAC1xZT0i1GHN98x8XULC9kRhjsRR2Q141olTvKNAGu5UWVXERLL4gktJXS29QImjmYYWw5AZZsFt/UIvO5huTmb4mcrRFlvuGiG3Eyhf18V8KgxUq4U/wDg8o/Ee4kh8I5+CuJLKxGbS7C5e/huTeVL3mLF01HKZHS6NFcyit1Kf4jEMsuwtfqEMs1vbFApTZUYw8CPqruuC5Rq2XiWxi8qAH8ypCh2+oHOt6lUOleooNdriWRy4iFWdsUl1wmaPanXUqNAV91AlOrr2xYSiZNs0+7MVKqMsDGbxI/zwj9MrbaEO6ieZstUUZNWrahhLpZzBCalC6g9iml0Rdkp8gG4B2zGUpVQ3RfD4JXyuLM6LiS5BXDJBCSi5ZYI4GodzblwQMspZOTh4Rd1srjb79XzLoa7oW2FjJR5JlojKyjqyAaHF1DliKw6QYYRq7MwdM51dL9M6lHd+iX1SeqWNGuM0qz6dzHoWiTlFWCIDnV53fQwvpCrMD2ZigFl1hinlaixRTSdebZsWpouvP8AZOZC8Me03HfvpP2VEq2dAW/9bZS95yX03Ebh3xFLcdFinc5UQc4DQLayy25gV1zAqmeM9H8HbFkoUtVtYUumKULkGD2rcHacV60zVKrP5mTm6hRlUKvMbdHa08xY7r14mfbdADF1LJK9eITPSgh0hoLtcwdjlty8VCwBbE/au42VKP7XuADjCAN+Y4F3KbbAtcVync3BZthw/bCDc0WwBz8S+Y5RN0a9dEQF4Qr11EEHdp/KITlvE0WrxV5ipAlX/MOyrvfiNwaH8wRug1DYtjUM1Z9zJQl4bmtEXEcTDc3mWwoXqKjhOYPbHzG2M8xtgpxNFYjXczlnAh5gWSmYjQYivDN8xdwzC5ymPgRErDAsLJbEWou8QjsNR5VFjLWTVdw6lIJq4mcTGzFzuOmyjZhqWg5OZZAC3xAUVBcHkFCwn8dYXiCQGotMZgSnqpSS9PEtQV29S4BClsO5bVuUCRN6OooGBS8DBw6ISjeViDkx4TK5o4jxP/wQNsKHcF4AHDgOYbea7hlkhmECcEyJPUxJgB6QBmA3M1tCGeUVWlN0oTILIuSUqFFUaUyJ4pOYK8Zle6nMgVd7m8p3eJUCUgU3cBjUVxmAS77Dn7gbl1a1MSdm0ouZk2vBN+vTDL6GBp8GmsWM76IcxWHSQpXPYbz5mGC3Q1HbAgvQ1/yJ2y6wpv1LO1QXYZcu8MhC8PycwossYEhxYJKQLPBK8DGqqjbgnmzLES9JSp/Dqc59DmAOl4mMDRFfKBcUKfe7lGpabSyERIFYKPWBEYvENQFOWs4qoGEa1UR+FGDnKlfAQYFgUpznIzvwMDnJcZouB0m5sDDlnITngPjthuloBoGDoCElwi5JhuY0YlL8AQViaUVAQqhbTBWGhTar6ghU28sQg0XUvK1LXlnlVuYGt33TEAyuUPPAZeOqcYI9Wl8ddHliettA9BB1j7oxAEs79XBFNE2+cKRyNBAwvtXgIBljBG65h3E7ZVhUD6SxwusEplYOISHtcRQHlhqrDAHiFUrJqLz5FxWHWzYf0dosBuioXZty4gHcKjrUEdbMNEHWS1skuYTV8WR3ULzPqNk4jcTzF+DDmaMTaHEI7S6DcDjEBlYGY6GBWnEui+GDywajYmchr4Ziz3juBBUHXcUWXFlagQuboDn3BJim5X6VSR+a1aGfaDFyd8DCLtXz7SpeUbC6KjIWFqdylwy+iDQjRc1MB4UfibHEAoNEXAy6ieWUiwy+7YiIZrXUryWlURROhcMAsbOYcqzwdQrZNGPcScUv7IcsBtTUDZWHAB5WNCUosTGksgIEeZN8SwMyEXKANK55JaRgqtvwwytbMmSW/QommBUUNrF7Y40wj1Cg1K4aAqIHXoxdJ15e4s2NQLNm37eWc6xXpXQRGwciBT+WJKqW6x+jLyHDY8wMita2mSXOjMWI3XVD+IgMHjhY9SPHLLyxt2/yLFG4kMjnoYdALw5/iGl0xwEdUOIckmRn4KhDkUZTQHSBcFAowlq/cvdna2fCwGsNLKNwJ1coPURWQxTLzMrpxaDk+5eOpuJatCPhKeqGjvd3H2WZhTLNiYBhF8f7LpFVAFAfPEMFdQV2itiAGo2MMzBSriILBrUIY8sLUHNw6JbpBC7KfmKVoNXCaAi3RE1VUURaq2W6PL36i2lUheCQ+oASzB1/pBFaQB3k/UYqz27H+Q1tbMgMnD0Q2O8Iv8dEe+qzA8Agbv8AXPMwTDS9y66ggPEAg7Sx+g3cYjmggWWviBtHLFqUZB55r7gHCmLjErUM8y9vL13EUV5vqVpsYYfaywzEWWJfxDEoiYYxcqNeYUhqWxn4GqhuUfBumdgm2PhDGvho5g+DDMzqFRidx8GYkHzGVAClDuNQwYWtYBFvMl2zs/zLGi0W7mMiRRYV3dh+MxWsRhRhUuBpi1DmXuxBUUZL7lGActRJLs2viAsBwi6y4Ci21AHLIg12gKO2VOM01uW6CmghoGzjuPlyq6cQlRFEZXP3Bqp0nLh4cmjuB9in3e4l20PC2wdUVeopszlnFxmwQqVXLxMFAXxVy67lwdcuepXGADDqHyGDa0aEDlUxQ9YmWBo7X3KysFX35YtNZoX4SDJC+DQVQR2kx0lgzaU8AldV5gtGvQy3r8aQIFu8CZt8LylLNHuq/SBlMQ1AUwE+4MBWO3+TBsKwR75MMVNwF4fzE4YTdAUwAePJEsQxgBfUUUtaap4is6bdt3LoTZvv6eZ0wrtDqZNIWCdYWFxyq5iVtqux6jMLZd0FKVFdDApbLIMArgYNxoVjXMoczpVE7YYMo2cWl2DrxL2ewESzqpXeJSj8CCHgU4bIWCbToIlEYgK3DMZUcCwXfrPthqTdDQsVf3Uy20h4MfmAvHkmMWRgKAHLRHkdVfF/RxDGGRCZbz+dmZRCUHr+AilDlarRYS77kPvVwwFX8sHRCq5hQ0Pug/MXv3yl6nAKmZmYeQOog5auX5goW+EBGR+CCRQfcBiHBDwiZ+Gq6nr/APC+WBEgo8TGJGe0XPEo18C4ZRUOyFbmmHcModHEMYGcJkfhmFwNxBshSE+ox5xGDA+pmZqDxR59kkYkZuYiQsBryyivhs6m09VDYVKu7Fm9VCFrL+YNSnce3ADb7qHWgaBEWul9VMAFFJyzC5K67hOq9MqD0uAuSg6JW5FQewQCr3KU3vP+Mub0rUvRW8waiKXnyxxXw/BF40acvuKmN6dTCW5k1gqyzFK7vMvZMZIDWdLTGSgKs+IdqrQsXUXrCPhxywqirUHcfpeADGoZUrfaKBsryXODLW1MPFe2qF/dQjYZ4Xtr3AXAKaYJgCC7c+vUTIA3TU3LjS9ZH4hYsHxz9BGN0cBmDjZrnZFo5IIhiTlbYzBMe+WYUdNonVAOdGK0VUKogquq6AEpZHkDSYFi9MKeR+Ja+E3/AMSJhm0xffuAdi2swJN+x9h0w2sEuoDzaEolpZ2f1YSuIGExvUVFFV6SUoXRSNyvF7UXEK7S1FNH06jijfFTaOzh8xwYsvPFTK73MMJGwIQhFaZmq8aGEBx1cKCzzUv9w3y68S118pYJ4Ibg8w4nkseAiPGEt47wCbGW31cRRYHJ3wX4IKCBBK/8oji+8POdvviFeGft/kLQgCc1qHyAbPOkPywaqiK7d/RHNaMTsJkizY/cdZlNW6ioHBT2xgmrGo7zVscNQ4Q3wjDBNEg11iVnUPTGVxFxTNxCUROCKmRJ9QchHCMJxUMOZgdxpCHUWBm8JHU7/AzO5gVgAmKxMowcdfHlmn4A8QhFxF5jRb1LviDe2KhgXWHhdyuhhutRNBrJyrqC5OAHiWAJVUHMeoNrxBQKFx03Lwb2xAJrZUHMoEigO1eCF2AwDiop3rwNZzGVVdxfaqZuKqNWqyx6lwKLleSjBeVj0jI25bnIKHHmDLEYJhuUaLDB1KEsBbAYXB80K+iATtrAa9wUG2qwJRLZbhdkejQbU8Q4ytWRiMyhFZBerrq9MVYEeiXm2TB3LapALgDG0gA3clE8giUcQgJAtL9rF911bnkDpjaXTTA8dstBFrTzweQdRSUWVMvo6h0Z7YQjItoMvRT2OPwQak8QFFJ8QVEHICfnIBF1qryTBTdk7glAgN6hFRcFBkB9czCIVtiWh0vAL+Ef1sgCNihaNUL0HNtMcOPnJX5EE1iKLaAd9zea32+ThlGI7un+n3Ar41lsIA+axVf0BDFLDDs7K6hjaCiRrWJnEpILEvW6hWUBVVLA7SEMODiDFW+fh2j7OJWLaMfc32DggMKYJ9gzQttGVg+o19j9Q2JQNYaqWKr1qN6rWfDqPWA2XjwPuFYAJY09CIluHxwK8sKVspa6OIfOW+gYjmH5DES5u0d8zwn8WFdQCcYRIPDh8MP6MA+GF3c5ZkQ2zSBzZMjB0lJghiG7bVwAXC0+oxrZACmoob0gVGzNS47nbH1F8HziJmCViW3AywULplhB18fKLH8OdTf4DG4jWpUrERPSagvmGakD4tr4SIuvi+5Sys23zAcuhHpInVVT7wXOjf0R7WDB7qHYaFiopYt/qWjoCC9RT7wXK43RYD/WUMNkBkPNgQAVbG2WwYxcxxfDBTiOmYoYFTaX1yoz4uqZb8QCEXCpbiHfUCDViQgcQy99HbEorti0eZcA4vg+peotGgEqgmReT34gSThVAEY8WhasUu88EOXzsTiU6hWmAJZVdWy7ttq8HDMSoOTwIlgWsHQMIMMIqO4FYaovmCJnUP8AnbMhXSl0PD0PEG2gtl9wNvthQjyKi+sy+AuEofccv7NQpGxVt2pMdUzhD8xpSZWO1i4qqQKug8vBDYbzj0/LLi0pgbHsoRY3o4F9EZw76utgpds1RMMKuGkWhKgMgonpXLw65MqAkQYaNeBDSEtysn74ZZ2oDC/w4gI0DhgLiebs/YQq9mWYnf7tuv8AIyXeMwLdNQoCpi9so0FdxeqW4axHLRBD0Bi9Zm/6RR9MpKVkg0By8xbCUOe5StcZXiWiYr+IdU53UrlTysX2Yfc3btKuMFpbmaEo785QJkFn2d+CORdmDvRE8JlGYWBLXi3pb7mEiyqoJSGQb07cDcuGJQ6IZhEzTVlamiqyVqI8sKdcE35m0nlYNBln7i5K+SWAo1qLGkzh/QZuKxtW+JatzMshQjwxJYJmCWRsRl7hQtsItsT8duY9d/8AzTcTxCOMMsJ1YPmIiisSxNxVXcAx9xzHUBubwq54E1i0cQcS8RaimTHTXwISw6BYYN7B6YyLQJb8QhAkCuW5q7+eHh6hteu1SgM2YgFK+iDGmkLrMWnZiyYB4uXdXByopnwy+MrpSUqGbRoA8y0Y0FvxE0qphlp7hDNQdwqmSnOamUpaBqO72+2IyRwYzFszo68xCRlFtF+iPVuo7i5qgjCTLRVF34AgtwpW+WDCRTZASLa8PkY8DTwgvjrQ7RyoTYV3M0gtPNodKy8dv+Rl5y3ReNS6Wr15clKnJaHILi/qHuAaa5WDhV6tKHo5qAbqUuU6dsQL8FUiXt1LdDqh/nU4vaLuRIq7QhiQst6P3LKqClW02CrGmZsbf3chSq+W12m1l/5TUaRsCCC+6woIvDdfwBAFr20DL+JW5FiiCv8AEgrgW0Z91UYLeSZeieY2XPjMRNW1OXmoe45AbHgQBZzlBfX+JCDLsLj7UYdfBRVeFIal7EDiUsFu5mi0oZpzAzS/BLzR5GKLCXmophPMKoSsLVanNRcwXqXV0cxXQInRmA+atp5dsxpriaqUfywZzv2+D3Bo+aMCNL/ohW7WNxoG8rencybwF+CWUumwZXArywI61LUsIEkqn3RWD5YnoE8XGmGlWv8AUGX7pqClUSo/ipzCgP3L8cmjfRE8/F+YxNsxcn/lh4kGnttxMar6lrZO0NmYD1N0fqKp4AIPVxYukdlK3ic4o6mDM7LhhBxcDWZaHwFypWKmUOoYIwJHUTNxDMFfAsKfgH3cxJa/ENww6D4BqMTcBLXHG/gWlK86F6JX/e6zVaF6fyxhlNw8YtW8yHECVf7tSlBC4Bs7rZY9AbUfBLADU1WjETIatmbkDCnUYgkNE8eTEajawMKfRLzmMFGPMKY5c1xBFv2iwvbLgS6Vm3/I2koBtnDHuAbEGLMTqBguq3uWV4+4mncrau+WiInbXweCQBWJiWthjGYgEoYJUBMMAiBfgNxQozSvOp2kaDmAyryRZzbo9jiZaABbRyeoB3AtPD1MBELBWFS8xFNOWYb+4SgtNow7CK284OBfLHJyOklGavnX8RoTbHGZdsl/+wNxrNG1jzD7WINkHIyOswAcu215lY8qafrcN6CBi/61lFrLqlUegnFfr/Fg2tpzj/kF6nUEogpwF/cKBRFOAvXUa1PtGF5jANideD/UqW2Fqq/DFwSN4MqT1li288l8PFQsdnVg66qf+dciACty3NzAlNYvMtUv2qKANjL1glRQWkBR8mO2ELYvmUM34zM78Qg78wQIOTFuCWNKiSq837gBQbIZgsQe+kVIgsNdTMsN7DiW4AmG1GceCu8sMCTjFinyfLGh0HOFl1NyLItniGo05gr78+hwwIV4+uXMDuOe0mPX8Xv30TEU5GzWNscF1Yh26lhLEWeJUqkX03F113KF5COqrMsILeSOTZmY+a2McAkrLgBoRFS/MsF+FEXUHNEZd38DGfi00g3AhCX8afEXeYviLFTqLAKjxC2HMeIyBcMvm8fhjq46mXPxuzLioNNVHqnCPMzhWvEB2w+yovsMRpsHN8QgFRIhQGltkBqEdhiba+YLA6abZcQLMGgjHt2z1Nyqaa0Swug5r8woGu7M/ZFkWso8k6W4lxJkEwMA5i0+r+ZpqeC/zMQM+tyxDUN1FoArt6lVZOBP2ysE10v9EVLR2lx3MS5TPEQ0eYtNMUakYrazmPDZcCNBj5CA9gji6LgYHMfMGx40efHWI+WcybYxcWNMaCL7prziHN2WrWtvmoK1aGhe7HLF/f2wKqtDbjYcwaD6NwixivKv1A2WjQ1DSf2aQGP6Q4KeLlNnO26agEMOGy0f5pDCYUxanpCoCG4Ua/BCpVP/ADSZgJ56jWdE5xBh+tkfGacXUMwQDVFqZoBYY/hiRrjZYBGoY/SVhs+nUeRt6TIB5RAE0hOVeEwzNwmyVX2QDJamOP3M8EatyuGjcechmAEWzYYhic+IS1lCafcsaqrlgLzqomBwxmKzJuOCs2juHL1nhKAjnn+ogCWx1ciz2ioNgPRc0plWPECpaNly8dcXNRmXq9ze4RSi5XlOoHHDaupXQnJZQ66EcJW0cQxoHmEer3BYpQVe0dX2xQACHCPntgCVX8PCjogtwh+YIVC+ru+JVrDEOuCUO1uL3yrBpqX1Fx9BADtMJiVtqqHs5jWsEO+OsOJblnOS98A3NFzBBucRhYnwCofJLi/i/cU4y3PRiN4YM2ZeKj454YtXE3mDXcPjj4c0iYS9bcCiNkLxPENdXmOB5jhqP3qDduRxLcErvmWWGEwn7QAdzRRFg5GlsloNkoHP7hUWl6uMdy0aq1fMMWZGvMb2CtGz7lM8lRR0bgDaVGgYIAgPS83FnzBwSrAvW2YrVVzXMEim+BCvUXrzDLYDQFr5lbYbFQrRTbtli+EqBaQBYci4zqOyOB7XyHcBfbC7umpYAVtiZ1kFdM9elS6RoZGwdxpZBht8TM18D0h6CALujlzHsjND+ktZIQXFuG0e4F5L/wDuX9UHcPxERc7LK3te14IMgRgrHkrqNQK3eTNyhMRJoWADy/0Rg5vsKIC9yCrNQzwvuEpARAYuIQB1uIC+uGiCqmejRON0PJGWiJPE/iIF3tFf3UIqErdmpXFbnA6GMjotbEpELJ8+2CFt0OF8P7ItaSZOBHJ1cvquYGIKvxZ36jEUG9o+z7ScEKLPTpgRSjhn9MHMomDQiTSr1EqWm9GU22TiCpSjtmVNIBOyKAKsYpplrAy3WO4qikaEdHUB2Fd+O5qiyhqCoOV12heToF9TFNmqG29H3BEfpR7vxMmFdCH3o7WHajAdGNtvyYjvgwbz5YobbkXUAEGKMAOgJW7ei1Wj7/awwILAhter/mMm6lbKc/bHVgNUaTteZgb8PlcfbAoWEsVQFRLNKalu0cNYiimeWEhCwZmyQGgzFxZl8kgmRjEgxTwhcLfyERhieJWJWpUr5HmoxIstljj4zDsiAaj3CVzCoMk0QVAni/hhLqEpiUViYTEMqqLTdL5b+eoV58+/RAqu1vMXRybgR4Y/yK2qUFwOMQigwOn9EMEpYVvEVxJqioYxE9YgXL4/IuCFrVydynENsL2rthgUEr8inbEwym3VepZApHOYqLAXp2y99nLLGX7ZcqHwwkjm4bCVuARZj+Z9ws0YjKH1cDSrI9B5HkhpAKwHmo3CaXz4qDQpMMissQq3KWkWqXbOcF6+wi7t3WwHo7hGTZLq7su1Ephqh0GAl5sqVGulL6mOo7oUvAQMgLkMcsuFcjWdBjMtIQVdL34mFU5dqXOIDVGb7Y9Mqz2p5B4lAWr2hc59VLcErUMtcGDf9ol87r/cHX1hR7vECP5cfiGaBDDCwwgIAw65rf5jrsrxDO1ruOV1AIiq3oPpGlm+8C/qmGMWKWr5HTB1VAtwck5a6bg/2MDwyC9JVi1zd69XTLJnK2Xz1mAFvoR6XBTGSXnM04IQSeA97lXKWsm1ZTBU9k7xUNGRYgguIy0S1MOYEaowG67fMXj5IGHAWngIWDCrY43YJ4IBApQGV2CNrq4g0nB0lOPKYi0MIKsaITtYCsr4vEzANl4xoxrwEJaphpYPTaTKULZoe4CVSdIfjBDyB4CnHUTBhQlh+YCGryD+dueFALVV32yohbZZ8dRrw3bO+/MT0i5oAxpfBGiDxyYhFSBBtLRSB0bb8EEjYIVAkZh+7M30I50dO448zY7qFEpj5CJ88V5+NwMwFlYZmSsXEdEv4EDM1cSUsz7jtJt8TuEajiwe9QDZn4M4l0UEIQ1A3BE8cTAA9blLRRELcBpnRScoGhCdCrJx0mthHBTKhrMNirxsw1NCCb2j1ymVJZbxCcC24GCYSk0+IMzr2h1FmGCCzSSnWqvUvaBdc1GM5jbE7auTiJBY9zI3fVyxCHt3GxLfcChg8YYqZDD+Y5Q7nn1EULQJxmuXAAvQEEF1SqpiUOBVuEKoZgCqtZdhCy4RvuKyoKqUKJYwjsWmdcSiQO1djB9jB4DcFqiCeQ2wF4GXV1GawpdqdqBXtUYA9aSNgCKtHJ8rLzNnS6lJcz2RpZ7HnLF0O1jeROoVSIUdS8v4i91xSCce4pIHK7XdfwQhLQIdkY1ywNXhXtlhWB5/ig2eFbMv2EsA+iIrylQWCneCJOWXiJ2Wm7SJCNHXeaf3LVo44RBVFqyhuGPznYKZ/lfh1KNhRb48jzKFVOeBhopz4D8syv1dgzFVQAIbBKFd6PfjwEQEtlDT7K0ZqJyr5HWGSW4L+q4EADCPcvU2ilhuWFQaMjcQlXgbiiod18LbgioTKmOGYha/akQgFB54l0h5dnxOMcrvP94aCA23cVK9rsIYCGws+isrMQ1tpY98PQTGrG2geanMCmBuRCW7gjS+ohl/4DCBiArLm/Tf8Q5duC/xo8gI2ZZ6UIrpWFLT0TFS22rBvxLlRf5st0k0QFsuVTVWXthFbCYuGmWAZrqvuJMVmUNJWotGdvEQEHtEY+DhgS46ZUwfAZgQR+AcJLfE3mYXCa5i7iUZqpBbzOK40M1r4csSjU8M1tTx/EeMVF0/AxBzVtx2DwN9sBdNXL1S+uehUNwAZqBuHCtRF8oxRuKaIAL6IoUpirMI+i17c1LK5uvHcHWIPBgJjkvBbEsYYWQF2QYtF3e4syErRJWMQGsvLXbFO5N0QyqGWnLEAVLNCZLn6IodDw8QIz8sLiCLo2Mw6FcuSIvs+jZ15irBN23hiRFjWrDxCctdOptHvvRtl04tZAAizY+OAlgJ50IXKT1cyTNxHcK2qUb5HZHEOpr7jiG0jfH92HY0or10PRBGGKvpLDECC9sqB48EYLENvliUtlllvLHrCa47hlZupQ3Nai+FzCpXkkIFgh9JNaldMAO33EjmJ2cMDAaFCgiLkdAv+Rg7IUB/Ue0utqmIFH0RuOYjd4f0wqgOStP0pVPF5f3CPbOYL8XWZ4T9S77MQoxHCn7MRafC1r+hFqybk7DFScJpE1AwGyPoe5YFFUOUkwsxy3LLRAfRFZGQZRlruDoTVDIErC/cudxYojOjUfphsE19wnBRoZfxA1Kw3bWTMefLYJ59MYo7geZWFRKtgWCVKuq8Q0PJRIELjBXuJkOaDtMIkfac69xgqsyxbrH8RVclmj3u/Md6dhXXvzL3wo1V6dwW/wANCuop2h6H8uYkzz2f5sYDB3f9kyoVztDFW6RHIq/xKQ9yDTNo1K0XftiSvjlhZiBlZO/xMzeWOCJdk4a31LpQ31HrE46EAEBUvYiwixYZJ5lMAkEBjSGll+NzbOEaTOoMuX8mtQh8FiPEbFWPgNQqGYxcLOLgMxyhhxBYTQJVx1K6a+HGYnjh8B402zK5BmNLwYQQ2CuGZUBBi3kZRRS6Ep6varAtypo6xMiy/A3AxBsRFl9JySoIWW3bAGPXNIUJYcO4hBL5IA2WdwVwBzKJUBm1lduSWoUSoB11cRiHohceP7YlI5Jpf0PqU0J8oY7JeQr+IpXqaZqX5voeaJgEUcqb9uozQXEYVgs7bgAndE/tAuaxedmCQ3XlgDUeBz6ubI29v0sdqFbqjbFuOpksFaBmlaS/aICCDzljXMtik6MbR5QZR3aABz/WRQVu6LdRdYKQ2YXyWRu2vEyWEvgiDw/UuYUqzvhf1KbhqWyI3a/f7glG7rmMjEZbpIWXSOrS5LTyhxde/wDtI6BsOLh/MbULkWLAlVV6X/FxM8qy/oQYiTFvD2n3K+oLZ01SfqKtGn/4qoQMeCy/OUROhsLD6DBE0ZUT6Vgxp8b1/oMKpgaQqfW5Z3scUuPSxcaHGsdZ6hgYzoN94lc3eR47Ir2xzX9IiGwaG0ftGhJVYS73WrhoxkCHo1ib9qXdOcxQasjnh1zmVDLwObZjFYSspYoeI6h7+ketdILHciwwkssrcPkl0DKP6iCbUKxajMIcktrAOSZDYMtC10F6O4amIa0fIbh1HRgVjwMZwUHGiD8cbLL/AABctgfSJ7BlubtYjM0eRIu5Gsv4Mq26NACL4Qj1uNM0PCFxIwdZfzFYjUwr+Fhw9bRG1t6XLYbjmu14O4kKsbr7TCQ10kK7RFkRgwZt3ChBChf6gQak18fWaPcIMH4qEXcJpD55Ph1G/wD4him4S42QZcTqV8VzN/MqblKxGa+Nrx8r4IfJU0hKu0wLKJVYtTzPKwqEprPmddCMFCooWpLaHY/xDXj9gx4iBCgwAmh1EyQah9WJcpq55MoglWWBFx6OpULF2rmX8FWTmYy9DWqgdcCsGbimdGmDbl5I1sYYaDzColnVylLES1vhLAJqUwG0PxcZulc1HN2uR5fcHsuzG4KKgYDT7glIgHkdy28LAUp0S7COynMsWrz+YGK1o8yvmNoU1McXgopwRJg2VRR9qy4RAq3MJ5pDndB/wILQzaXgr0MzEc9G6G7Ql8norEVqOdRQWobF7xUsp3jUpAsOVQRVt2+fgRDkuqrUDP4DSKqhLzf9oHhgzYP4jR3atCYpYXtahrO4IYADu2WB1NWkq36InqfCKihp13K6xkhuqJDZXr+2IlJyqROTGsIfglRD1khv7CKOYEF/xHhsGJD2gzAg94l6oKjW9naU1p0KkDfPXmMgBol1TqjEDSboZSocUSwrF9BtIl6lyrP0wAt5FoiPC1GYi6ID5IaUUqwAeYwbV0uCEvF2pdXoO1mw6LKDCuX26irI9BgbCLUOZShsuCG1BkcfZFbOUhDDUaGhRc7zuAbhFO27/E6l4bxfADflli1mrX9BFpaXaArZovjwTQAL2n+JhmbQ3I7WahUyG9ly2dVpdzs7QrQHYD7EHpsIq9KhvwwIea2gYBrfLPyallOOCkwzwDS0/iJ5s94rhsqvNXV+oTDNjupjqttwRmsYgygwNQPqWilSj2MSwFRMZYNKwiqwiFPwQZkFQ3FG1OJcyzNPhu//AJMe4sYQvMqcRjdiD4NSXmkSymoISr54kpKlRsFB/wCBG6jK6iDWSGfctilE8uIvG6yoSFCNbGOGN7oy2MpkMxF7hkku2NKGLm34lbDarKwjWfNFDDNbItfiK9QYaYBRPJLZWztwR4nxEZgg0LuFc1/BNatwR4HERbIb3B0QDgxByCXwPyw1kdGcy4h11bRL1Ja4Yz5e7/0jjLEbcDxBQ3YeIWhx0QMVzwahU5vLVwh715im9hxmMrUdKMwdnawCovCs+5cBpn3NKluCU4pJZhca7c94o7Ylpo73O0bqJqqOiZRynFuEJUocXmFHsX68ogtDhv0ItEKx9qH4cyuuBoj9qwOY3PFwdATzD9IwSo9aYeWyLbY+rPyNTGWXX9DE3qDCNHGcW1Ffdc4pWYco/wDrcyVbypT8IgtreBD+7y89YX9iAunG/wDCSiLOjZKxeVyNfkMEeylN4XPmoMdeJftSIDNYR9GxjKQUcSj3jEW+UjbX0S49MYU5CJMKYu3d8IJvoGiC/BsmEUC7XX75ldSm9f0cTEWmioTzkohPOkuz47Qnka9YrH2TeLDlLWwHcRnRVYT+dSpUILAwqWim15ZZjAeqRgkDgtfcrASm5qKijAaCvP5jRCeFGvqLlAJex5q2CtFukRmMGctj9gIfgIY6fMWkNGTXtbP3K3pq2HxyPglVAsUyDkVGXvVGaXxFUCXdl+8JXiJSLJjYq4MuPaDkXT/MLch5wj6SX4umAbuNCnnnEpuwyHZMxhKM28zJpUq8ARdhzL6VDmLwLmDnKZQU/AKWb3B3OYXN5mkXU8QZepmP/wATZO/gfn4YMMIsAswuGAl1qlATTiD8IJUr5JQFiz9xWtKvUopUriDmVVWECmXaUv8AyGTJMBMbw5gVD28pnV94WTKGYbsWIspHUQusLAIIFRUsjZXG3R8WX+I8Aq0YlmO3hz8IIVFQ5rMJUjovIeZj0rlaiXq2pj6HDURhqQBAon2yqCFxh+5bC24cShDvF5QtD8XMQgs74iElKc4EaKxZsflMoKV1ylfW6MTFo6JYFuJy+2ZoY+RmUWceI9PrvvwS4KS2IFSqwG2J0RvqEVeB3/SIKWLC6ipWg6mY+NRtcq/8BFVuSLK5mtaPEF4KNjWPqJU1towIZLr063Gz5QMv3dtWiVH14KfzA7/yBqCJYe/7EyrX8z+UjGotiH23NoHzl9pHKCdofyyyLfQQU1t0EFZY9QK2fdQNCtkUb+4aVFxmfpSUBD9gB6bzK4jDtfk7lJbtcK6WuMVQRWb+0GWkNBHtS9zOYtJ/clt3NKa/LAlXEWEroKIlgtsLMq0ly0D7SrH2xZ7NcxmDbWy/Cl0VVbl5MEMMy6Z+Gwm8fuRoXcPB9i2WPItordwpGU/EdXS0tplibKKsPYxLOVTLXAvwTFC26M0NQWrcFVBy+6jjX+Zmu+ywEnRTITurlm/jcH767XD9O5gYdsCm+nmBIaIYJ0yyQsN0HZslktusL99JGDSCFx0bpINRh6vpczE5WghTrzKmjf8A8CS9P0Nv2QZy9A89XBMEatUjABmM75lARccRSCVjZwwxHMpjTiVzYYAbjrPwq5aUQi4XC4RMyvjM4j8djMYwqKbixFwRhR1MkdmJXUMCeL50+QEqMS4Ka7YThS30dsACgLPbBQBFswCUSqgSyBRj19xvoYgB0IOcSmLzNmoC2URoiZENF4JR23lZcCwEgqKUj2CyNcl5FIzJYHaTfOWzb0bWVCQPWWouieJ2ynbzfII3QC7GVMnVUojDnuNi1IF7KN3QQvFA7CVC6vm+IhbfSGOJ0csbQMndZfqLiAbNIAQDjD9wTXq1wwRWnLq2JFqhVgA5RYTHiiwVAfL5Y2ba3NFEajcm4O+kLY4hzn7R+irnWKgc+P6IguSoaIEHQyryq4lU4GqNw8upqNNfcUwt3wks0J+0wzZeN1AV+xf0AS8LeyiOtqHlD9QuruypYWPJ3+YGlXfBLASdP+WFQEnY/lqLgtbklRbJDgFQ2cXgVYhR+QEWaLjgolSxQ63GaUGbeuHGdeUtnjpdxPLEvDPIo1MdtuexG6mXeT6gJMJV2pBE6AgPjC0fhOZRZ91H3wktY0AKAcSbYAEBw8w+Yo5UQ/GSYoAkID+OIDo6bL6MvzDWJ1SXvSULjNO+71KvIDmWngRRUttunfUWBF2H1KVjiFNb5gUziR7jEoQPFUEG7WP6M1KRcIXpcqluNvQyaLbnAwdnhKyowywL8EoE02WoR6cxEUMwA3WKukfihsGA+1RpcvGQE+skXFSYaNRUmCo2JwWuIW2BcIea4jwCPTrT3UeBTk4t89o2uBWsnvpFmqYZW3TMWA6GnwjzOkWtsP8ASXU9vXYktqLNTTwtq5ggebisUCvBUouohaUYGn6JvBEaZUNO4K4fAIVcA+FjMQYR18OaRFYyyiYMAnkTc5R4aYgSgGpTWJTxKfhCBKCLGH4BkGDKHg7vMHNXbaviAbUrFXqUyVpU329QqMVOXfMvgh+5bS6nZBxK5t0tlo6KU7q0Z5AyymnfAMV2GxgVdTyICCxvBUH30liacKiAC7gFK2C20ytAFZeXUtZEX4zGscXIsV4UE0Ebfo0gVz1fUWC77pTE6vL1KOD+EbB8FZYUAxszz6mKuwZFfA4h5VoVX0PRGjBtGiDYg28EbbDkl3vA8RMpKbIP+hiy8dqX0QGQg2D/ABAWASrGbe4CF02BlXykTJTcDtShsRTRqGC9OAlagpoaeXuAJALK/iIisNWY8R6od03M+obto+iBpb8w4HLoUg1ZJn/ow137LfhI2ugswEOr4IGAW6dj/YWhh2AR2H97/EqWuQmj6Yc1MPCXcCYKuIDWhK2a/qOQwb2rES28r/VSgZ41aGs0wGAXEasvAR4Q18E8hFUouC08u1mhXFFC9HLKOmHoIfYtx1pQr+SsKYNyVa9hUAxFpQ1dgCsd1TR2h7DcbrzBSeTIxA6AVwKIugWGtfZ4hxJyAImfaGBQVTCe1MmpWKAc0RSLygNK7dvo33EMRTws7GDTCqjdNikrBa6KLVjUWta1vxAUWnIZchmw+tyiTH8Jc10BBTdM1ooWwOUOiF4Fqv8AIhlD7SIp9gMQKqulbtJftB0NCLq+oXOG16reRimX69iY8nBJZX8ejOtphiJgc/K4Yiw2lNB4BjJG0BSRzTAnXniYZKaBmxphdcEQVa93Gz6MScxFctRAU7h5Q3TMwWFU3fqIcCqIzlIfcdyvDKVL5hgQxVh4gEWxOWYIIjHVmeGHGYZlfBCDFzuK38BCosW4xYpMcMsllQw+SKgmEWKqxK6+A1AhFqPxWGXKL0Wqw/RUxPkfIjREvntaeYzBqm85v72wlGpBz3HqBNnUQNe1bKu2GAVpTnHgSgoCYQCI9Qq1A0s1LeQypY+rl48v08lJaj55P+wDQPTUWq67UuOG561FvWibYZjq8BK69QoEoVCAFGIGqwHXE2kPcywWiApVd/EytvUafbCdsdZLC1ILpsa6IGzNvbUAaAY5jv0RPDItyyy5nsuOFrMG6eVhnerXFHBXEWq4xNfAuAoa0sOX4JhSkLl/EZal07zwfAu2WkqdHX2WJMM4WALyH8E0QgVt+oLK1X34jtcvWPyygDdwPBDoMjyIKhA9LC+j6mkPTmCogzu0zFbLwZTgA6FX4IwT7jMwarotjEHl3k/2gUJe7CoeozuMUCcCGJg74vpjmWk4fypJp1rFf0JcGWeTL7Bd/wDZXPBXiFuVOipWBKF11+VHqmALdQfw1lUWrwXi0xtGd1+2DbkOz9GVlAR3TKfZhghOb/OyK0yreHLbQa4G6IXQOKNJ1hSRPmHAF5hLUO7Rf2FRjBN3SVoeaMzvAC5b4tWVMsgQUC99Ag6uoBDvpk1DIVxKFjFHBApbHA4UnOYzvGzWv9GNbAtkIaggFvuK9ot+OgOoL2LX/sNR4D5XQRCix1aaHVsppqZeb/sIgRm6Dn2RHSuFBZ23g1Bho1lgw25UZ07iUM8m7ILhmViweXW6jbxClVechsYAdAIu7w8R25UaHIAzJgBWR9HtC7rf04PI7hVRNVraWumZq3+49CalSUrfQfyS5wssnD2R69iKl4OmJw4aPAYUg0SjHmUzYiPGxEt0y6iCFVJeQY8yymKYwkToh1BDUr4PhlfLHueaMsJn3HFSz4IiBMopCKxKqx8dcCcxp8T8cO4xTuLpChn2ymnNVG5hBO1zJ4UeOf6QmTWhxzgjGqSn0CZGLCvfgILWQWws1qF+JUlszVxUzveAZYDk4UxSpaVnTAosrg5jdhDlNxNtndto0pC9KzNs83UyIGRbj6IOZncGVDV8C6IbAAi2rrwQKjWt26TbFoXgvgIrRawG/SuJcci10fUwiK9/zL5r8BiHAAaDx5YfYB0LRgUcaQVfl8ym4XtEFmSq55TUUXlW/ua1Din8sqJsC6ePRzDE6KsP16A9EwwDyyf3KXXBMEAug5RUFOAoVN1i6EyYSb0YidvCH+hiIFl5KqhdOy92/kSpkZVxTwHQRIUsV3/hgXP2BfsS3duB/wCmP6A7UfxU5t+6cQWv2CjRKemsHJq5pSJbwawqRV4Vx/0oRBBdYLftR9H4ofuXQBXqwNrvKH+CSnT5gmQHs0jJYmF8B/KzJwxyn8hiIPke0xnPAbt3+CVM0FuhYDJHiDGuJkMrtGEs/hlkrpzPgsPXZUiNnrJOOJAj8gIEAFlg/uUCjiijwkCD9kEtQ+dB9QokoolBeD6DLZigQ1nPKPFXOUCyZM6lstGm9jvombQI5cXNZYF3qb8dofVzy4u5ZAhNuuCNiULVa1K9iRoLoWkzHVWwDyZzcYW5YQWmPEWuuq/bTUfCIFQB7b1fCS9rHGyDTrwcXFzG6NCBjHTHeQPpzead1BbYxcptY3DBYQyoF0r3bDLgx7p83BKUChfIcdR12wNC9+nqHLRqzYUfNJphPuV7VrTsOZjZcBKH0xuaDbwvDUqiUqHiIKBygMm9oq4pCcRkCC9RG0beIDLJPNiStxLuCCHwxS6lzfHysRHTOXiNzfH3F3Npzme0ZnUVrEMBU8fwYZhGKHxM1Sn5ftKmuAtHStuZyMru2no5XwTJxB8DvyQ1he47T34heNkNpUAMptQXAT5rZz7WbsLX4gC36QViglkYeo88CGQiTWG/q4rso+vogZVbWdvqPKZOIZPVcr5FdEjF0MNEbOIHp4e5jFDqYgF4Zvr7YgKW6QoERNk+L5lGgq28u/8AETWe3Ae5YlTIwDNpbevZhAJQXVQeCJwnlGYBHxS3wnKMHAMAA3GGBqJteiAALe46ZAKqrUJ3IUrfjlFtwUvJolAQW8sc+18Fw1TqOSMoFujXtYk9y3Z9oJSK0Wv3CvbtkM1XVFAmtX4ISgit23cV4h7IcV7N4aSkAodkphXtIJkDtNSotQaYGBA7C3E1UvmojFnhqNkS/AX+oNQvSU/iYIF08tt+oTV1HJiVhyNsAnP3Ul4BXyZufgj+Y3keovvo2Yvpxo7PogjABRa/oZlovWKX0Wpb1en3AuBKC60AhbFKhrl5X6scSrf2mo7ZWnj8QG2XdOuZV9sS28vZLGDOffvC+ibyjKFH3Fv4nswyprtXNOGJ4Ijlzqvysy9Al0bxHu9DZy5QijqCDxpHZVlz5IjCxQC149jDb46+Tl3cJeCKS388YoFUCuaG/wCqXwCqEtb0sQAKG2BPDsIXKuIfFwF6ZV8oTb0E2EuBUx1OnpKai2RKyYV689wVMVECiseeyK2AqFbsWHQ8kykNC3ZXkOSAQBpaAzfl2Q2YEpWr8sdEZf6i4+odA6sMXC8OQbMypKAMwrRTL9MKCex1CqUm2EDiclTBC9Y2ClsYXAxqIxzHgqVMw8y53DHw5JmvjpGMT/EW5eI/Dq7IrcspHUsyIJKPlqIEYq+C/TKPc8nwriZwMxHWLlcsVBwAQF4sB2jfgme4OKcDR8svxWLdR1HMj0EZ5PogFAOyy/QLGtez3LSlBzx+nZmoEPBmYiXq8BAFd2Dl9vRDhIBs/pKtSYnL/tA0lZkRjedne0iJnBk0SsK/WJ+iZWLwwysHxM5foqFYTudQt+NHWZcG6p3TLekV9lqkI1TZQ/YIiWxTbv5TiOqI50FiVCm0UH3H6lGQq1YszOhKfbQ0RKoq4wt3FHAPADvMJQGpAq5s5xqVQjKB6mBiV2rGSDZhB4j75YFiD74EsqA61DKFzg0TPLC6qj7gmnR+33tlKo7KipxhiRCq4G38EtAzyheNIRMaBXIJ9UYFCxJnL+oChD0R1ALhAS9/P4i1FhNBDxRBlYs5UuVs/bgwaoXghIVdqAmW36lT7CAHL2w5E5djUeZh9oEonyNfSkzHUNJUpNw1iFaz4JBldzhB9EuKpCWtP0YUkZt0FvEucuyAX01iFsbas/bDxmGAteCwfUVZ/ACm5fHWUnkq/ZKSws0FPcMda0iNdWMSufOAu/fJMBZqUvsEgtfBwzwe0EIpzqAXKhoiGiC01z4qpf3cFts6hPaDRqeFSvKo9YCFHF6Tp6gXZaPqUrQV+hEFRINPg8VDOuFADLi0IO1RbjlkMpFldEwqn1yRCRhOvyMbhri9WcbxwwOG6nlpcgbBhg2XYhbYL66mNRMnfKkF4YGAVDW8tAeqjvE3dNLyY8MNNySupA6H7JUbaJWq1fwxxBQJU9xCZr8uOqB3Ktw4q/qew73L9M2Qvsk/UHAvQ5PFjS4eQrDw/wCiAaGXaZLOvDEqUGvpK7slzOIGWXxqBqLZYwFEwRa/+N1U9y/MuGtxYYmI5isU13EFy1gYgKmqENxHrEtCyGTErrE8UElRj8i0a4uoIpdwMGI0QNkLuqlqzRNrbD3BhUiEcR8g9+FbDwR+nmg4O3lnSeB3WaEALOtz9sHmBVuu2MIln9vM+qY2w4PwVjJaJkrTCv1NjCUzkB8fmFbHY7iptuMi18P4SZv0zAFHI7vMtYVpcbaDw6lxEB3CTTSitQ0K6VHCs07ZUZ+BT5YYgaihp56EskGGzAvgjpOam1fogXn3HPkJjW7lXgGFZwO3cWA7K3/2G9c9EAXd8EXaywe4lTDRs8oFjsiuCLFUpo9nAL3zEGggbVLlpytrBCUloAoPQTGWnEGjTpmYBnwNDFqCh0Vn23BGzygX8yyxYOXBB0aV5f6OoGGlNBMdX9VBVvTZVfQytHPemFhKnauMlAR0BGuHug/dQQZB1B/RZMGIOS6SJEF2tf5LUPKuYLvKgL9MSaz0K/ZEBd5RLKEQKGCVunNlzMqnYZGXFr/xgEtA/Rpx4bIf/wBDb2gyUDCgeQNxS8KejoMEBHNEHqWIs0pC+6sOXdkR7sxxn5kRUG1qf1ahahM7r6EdhvLfnylaUbg/iAmohqBzbx2BiNVdAYDtnKwuL5FmCwBG1S5xthvPFsVWjAU0dDniOzYUXnlJiSmzxkmGN1WqWAcstEXlrI4gUzhIWPowwsFQX0b/AFKkyxHZsNG8Q7ItW6by9Q9pGsaFKn7gLsXCXeEg2CFGAq/0cys9BKH7DYxUSCAwOEOEjdg6JdhdPG/EpGEYCGFAguKDXCdJdaSBtIQAvYUQK5SgBEOMmcabiACktSkXhI169LwR6l0DsXuFI3kOYlTRdtqeYiNoFEwhdczI690SnioKCpYx1GXn/wCLhNGIwdy9TJHfPwPdy3UGpxDEMzIxFaxA1f8AxZiLLjwzE/BVFrMpjcUMplms7lfI0P7Yi2AuVlSoEjkefaC63LeiCGioJd8wJxuOLmD5e8Pca2q9hWQ/oiOkAvRe/MOy9BadxMh7XP3OUZYoxFGd0LfqAO3LRas+WUfYolR6hnY36l8wH7hzuxUJpADFceHzB0woK6RhXnqWYBwujzUXGDnkzYbJzjxiNamZNmAltXfdVxzeEwDzgPTx5ZaIRZ2QEIRlObipocspj6k4/lY2KqzXcF9Lo76IywXW4NU2yml9eI5GND+4GLhqysbklKov+YPp0Oih7uAmlTlrD8w0uVzr0SgLjekwmqduqjSqwKt/qYix7VmkXVv6NyjawwVOcdSg1GjlOgv8DBBbIt01CP2PL6GAl3bhUAMS6GwAhAbAsa3PlceRzX5KtEJIvQ/rGeC9P+49cnpxNjVrA6gSgLmoSrQdFRl20F/J07IJIq9iIpc8VTEQLvr+GZgX6Q9k0fFMXYhWFFNCJwzU1DeS+iCEJ4w/dDInwsr7Lh/gYO/Y4YO2g371yRucbqR8VB72gH+yEWFIdAz+yCxYuF49c0uYSIvNs+2NK61YXyrNeLhHKs0wFP0MezALXk8PiCeyejEwLorjcYDAAb22v+IhiAC9DuUMhtu0jl32ylYkFIunFJfUF2IUqCxp0zdD9plGmX5DmDqKFCbG7ODpg3iFBAbfT6SXdUF21r3u0QCmQGGiGlCqXmCuIKhwZdciiIw3w6bSy3UCBAOteaNJnnhmXbgdX5WElGoeizKHnjqbeRftUdcJDTauWXwbb2TDAgANTIL4RNtOqmNvk0xx7SpRXkcBAFTUt2HmHhQ9SwKlxRdztzBuUuIiPwMxG0zHG44w5fBawVAxAxCUmnBCJj5wVBiy4/B3/NlmajFiLME9IWUxxCPduycQQVUL9csCQUUFlwApPxOV2WZgVMDSmYFFdDab8fbAFePPuxspbXbXqa0leYr14ltM1U0cRzDRQL/4ZSOk2Lf3FtEXV5KWwEPsnJZ+CgIsKC8JA5XXej4El9XQ1j9RX6KiphpMG3iAYIqZqgIyRA5/1gkBbao6lkjBbQvU4wnDS3PauIFcNeaDg8plSW4aF89BMq2s0tHl5hUMLdtHmIRK1rBHa3WqXqHawLyzh0CWPaPt6IIytuxXhiq1VSeuCXruZRv14JjBjgeIQN6ULCOgHiBGgXlLYK/BRjcY1R75mjTkNrED8HaOca2qM/RFyh2K1LBpXm2Dtt7V5Zbw3Vy+OGsEUbrzt/uLt228iC015Q0/OIYrwH8TJ5oklhEClGObr/qoPu8KP4l6wD33MZSOpbt7P7EbK+DifuH9a99/VQL2BQfTNnTkoo+mFaCnhSvCMxWRwH1TlBFhe5BpCYYvfD3hofOGY1A1UyDY0FPJMyhbpr6NJUrxQn7IK7MOE+lgoqD0PwkRQxPJ/sW3IddDyDF7AX0VX2Xjc4bNFQCXTCy81BDaDgv9O5ctcWmc9MMbtoQ4dSnmbMAaUJuO+M2H9wCDJj4ChPzGxFC/KDLohYDOw77glGXytXJZt7qFMvGpWPjqpfGKghccpa8rFMKoqr1E8koP5VO6N7IsUFTKCYU5qLChIUkjko3XkjCIJqReNKQ/bQCV1yU5bRTTLBApUCiDNlmQhpSZYUas9QnSgMtMudwu4lUaOL46MTQBoCldjC5pFIwrs6SUKNLE7XFAW0UZuAsF0Vr6XuLuNFeCDAV+tMpZK4ICIlViNPmXdQI6jCpqDLjSRe4s6ihubJl7gZgIlFVHRcW8QwNQ4K+F/C4wVfE5uiLFYIJUWUW0LmAhJRG8AjVhYccLqWaVW0DKlSjsWisoQTnEzzCFF5oZVywu3Udu1PlmY7FnllMarwv6AnIQncP6JpoMX35ilQVS4OBxKGsLx/plvbZqm0xi4YdBTbojYJ1VFATiZDbmU1Um8hWEu0NumVmY1Y19wNbeM3ECFc06h5BvAbRsanF3K/B4JaofjnXQ5iodGryZf5ZadJbFuweCNNFVRkN/mXStOhmNKAobB7gGozM8aCDxJt0stQmLt9QGhgPyjx8ChjHmbVh0BA5Qvhy+CIMjzQ29MEFN8eW++iGYQ0rohWBKc4X6hES72l/gI3U+YEFXr2n41HY9rAFf3tlRIqMrqBHA6V9uWeCAOfpYCOBk/rtiTFwlSzBTnyuJNEtjFCsBhg9StLJdsHgN/wASvSd0/tlS6Hr+ZUF7s5S5wi6lle1zGaIiKzcOJH50xUAPofUOIrHJyh7DRMQgGRsPpWIDDvQSbQvOz05tFe8sJkOooOPVEaIoWajNLPsY1o5NiU6B1gfzPxhbgY4eyH86g6bmpfyRKGhdABGip2IOwRG7r0IZdZq1cv8AbiIQ0wst6yEvDlZntTmGBRrm4yWGTlK/pIjtgY9kq1LsDNDA8pDqlUG0wzLSIopPwepWjzTgPAOWbkRbR552hgVrfP3GDCtKYM0R41QQFPUF0IWAeA8nJKQapihp4nklohSNQaB4jLJ4FuhM6XzuXG6rKBWaWrxYRBCAMChgsY9xGnIhQNlrwthufdmg7F5w8cQhRUGlD0m7NkqgC5OtunyRfyPaO151iIkXVeq8PCSyUN0aoeiI+bIsFIIWt3yTBIV2RIDB5lLUtixb7+QnefgSPv43CNUVzHU1pjePgrYzGpfS7QwYlFY+CpcYIZfgKiVG/iysMqVaYjDtSWHxaKutuuWXJvcGsRxuMB5uNZgLRvMoa4d59nNB9wlYaaWkpBZZ7Bd3Dcgy11fJw9B0RjwHCw5ASlaUVefKtwV+zVH6usE02GoRY1lG6EOqmcY/yy6FOReoUaXNYVdsIckJjRodqhL2fVFpaQ8DcKy/l5UDMCcBqMMxFLv2h8D5b+evhFpLteugNEEVTlkcxlupboXFrlRkMytvF5HUAjdQFr5dEMXnrNlwvcszSGi9c3SXyoRJWAIcY1F88zCDlbo16lcOVWrfywbUlYcrzKl9kD478EMHpyq7/wC41a7OKB4G8sBo2hsvq5fEhoy0dsFLZGMb+eouYM5VCAU1eV5HzEYa8XYlKhjlc7QX/owsosVUwNr5UAlEMhdeybIlqqLuts47FRe4zXGO4jScSvDcbskW1np0zmHYykoluql5VSsmogoiu6jiQxEUIfUdBRNm/wBcooGmxX7CJGsZtv4Y9YOrDn7vMIihvFCR1c5V+1anljAFfe36moA7f7FLyl7LiOjj95lmqrYYBYimX8wS5VnUUj8auFKCaaF4sqblroYrJyAVgexXdrH1iFNK8MfdVGsNTYauGzLbM6QJTwYjFVsst5N6lNlsHnGpkVrB9DA10rLh5fcwohOdLdwgqxNGi2RfIQqQPGq3ilF4Y1Hy6qWQ2EABo5aVDWDluV4cmoyBjageaMMaIU20hwUcQsyCDtRghVHUedqvlNNIqlRAxVCttV98XBV0SHGKFaRgqJwUsoUur3AJ3SkcZgHzVPmGVsxMvAVeYKBSFjbQE0scYYJeU5+yWgfFbgM6hqwWKylvDs65JQY1TD+3ixWtI0JgA/s6hImhUP7jOEDhEqEuP0phAVT4NdwwFdyiBh+E+LJf4+WJ8M+Y7lmJRqDjEEqU1D4LLJcX56fhbmP8WSWVKzcvhgikDUoD4RjpFDJ/CBeNo/REsiUnKu4s0Dt+LPUPbuU5KQUi1q6NpMRFjiII+2DZnMt4q+duglNslgatMcBRQDcXosvweZwTblXMEttrbWPJPJqw+yd0Qalo+I6AqlNokiJetmAxtU6AgyF9NAw0lUmOYEkuK15gKepcCNteDbl3Ad0CdlwHqLjg2SxboNHUVABs7vPACGcNUKUASgF0XvgjYwNg1bKcNoLcEBPQGVw9/wBCdos2Xfh0RNGqxwP+EbVp0ec7TuXBK2f4UBA/gHuNlnCgMsPrXi/5YqJW8EzBhBDQgzMlwLMnRA6UQ0YX7gjRnwK/bmVQLzedfUrB51KPtinxC5fBFWoPKx2FmApszUYDLhWr6RdADDb9DF09o38rUUAQsgtXNBWuy/3LQsXdYlKHeLQ97Xa+pZT0x7WDK1Sc0n6pEe/kKe5WidoxL8zKL28v7CiPkmTSF2kyppnSUjOxEsTqorZ6f+YlSj2Zj0sEOEyUfrJFhqNa32MSL6GX6jbGV5REhM0i0umeyJGyIoAeKcxZUHlglq9Hih9L1MJHlqA+yEoi2Dh6TZGUXK/I6mHeLTvbmEiLMYb4hbJQ52drhuwog86WL3dwvY2n2pqVmsRB3MqJVZeTJ7RVE0CFvuOQXFp368sWARApMixb3BUQ8C8qR6AvTAWJ5EeON13sP2kAXDEOFwwpIimkTan1/MUuBaasck06RgrGbAXwF1ofshZfStVZxfTEQkf/ALmwlQEIVv0D/Bgwk9Oq8X7lwYFKNOcS+XZbxPbIdAorzumWYLMplnvzA1ab7PTFLgVE5sjeLPgQMypUY7Zgw0FxyQjm4os6CNrEuSFTEwkOiBU4ifM5/KsKhGhBcruXNXGiMoohGYKH5yrR3XLKBKUF7dstOorx219xwo68q7XtnQ1A1k6Epko+o34JWSw28pUzTr4gaQrRGznJGBa/awvJpp5RtsR9QoMvoL0QrJVn1i2NgtO62l8qbAoq2vMaApMnI9xJXMrwHRKTdd4gsuMRzMrNdqLIKjtZRSi1Bawural1kQAi3rp5Y+7z/SeWBTMhjgcK75YD619BkD1LnoJ6sahaAMf7e2N0ylgggEQ6DVy1QA14+vLDRMglngduIAGxW39ySwU8t7z0Qhil6OfZ8xm+4nCwCarnGO2tEKu6F/LEUtIyGEeXg8S+oBytLQOiIg2auL8xgELgWg5mH1Vg67hEtX4PdagfWS3ojilJ53Dq2rwKQAutuo94XGn5DMFKhqPTuKNFrkahZApm2UTZVy1MyhdYxCVVepKaIXdo6jNlYcjQlWT2AiRKwvYS5hTv/sxCIPsS9pDz+p2QuCvurJmN0YQf3ow+fpjLfi4m55Gv5xM/cUAgSwDXSm9QKfuV+LTH5jv6WlXsNZfGMF55zqULBWzX9kzYgqxmAFsaT6wY0jbFTX4Wpk8I4V+FlhYWQJSdRj0DaJU2tiv7ymCGzAUsbB1qxXjGIbyot49+iLGqZxm9r8wEWEz5OmU3yry8ymfVtheXwuB5sjTHFWcysLCSTrqjGSgMAVp0ezkigHY1VjCHqLZVnZQV8jUEaVRAAKFDQ0xyBmcBc2D1Are00OWfJMYjsYDYWamSoCS9l1n8jJEXNHwOVmukuXRJ2HJwPlJueQrjDleI1jwbBgPpYJjEjk9Q7jxPLKZmsFmLDiurlmUBybHwjDbLEBm3BOmBokHO7Bx7IhfAeDvJGwwu9wRGoJUCpzC8ka6i8fBualy4oyO0y0EJQwQyUgSpLhEh+LiTLhiLHU5ysSPfxN1XwPi7YcBWpbb0g54PfZi4wAdLv2sRJhkfTD6gKrtp5UXS106Oh5ZXQonriJXOvsGpxEVol/is2wQdvEf6i6nlhlpe27OCLydS8m2QmXZmuSD8Ll8HH3E5Y2g3HqYfzn3FaMrIVrykuFZ6iWld5UJn+bIT8z/keMHYV0FPAhTueF/bES+Ggc3yx3dCsZbcsqucDhxfbKOlfC8BASviZBKAmrX/AIJfRrR5qZ0KuYHpimOzuGSNo4XEJ1tGi/5XllPIRC6WDG2oexlE2Kr13CSjk0D+yLNq2eCi/sKhu/LxLtgDcg06WpYVAVWlfcIVADw/ssaB77d/7EdIYUFgfRAIF6rKy1i61Rr2u47hQzCEvylhA2OyC7/C1+Ytjw4UfbzBr5Q9D0JeY7dEBHBooagcUuwSiPRSJU4JOcEQhQj6lYq9bB9MXxdMlLOrXkCHK19YfsYYwe61L4Uvgqnsm9jr1NQa/wDNjuDa9aDH2oVwH6YyPRYhJWuUSenDDAc3rP3FJGoCjww1+CNTNae7uJn16trhfqWgDb2x4Ya7RsFr7DEu3kl8RC8cu72tQ2uNKB+DBCtvQW4iUZpMBFF5nKGsBAjphmM41TRyRwjlNbTXvrslQ27EJqPR7YiJnxUqYyTpc1UPrDGIQ4YdnUI+hQ06A9w4VaFYV21RgNA3C7Dkr+pmfbgdkeQkXIUymscMXVLSLZoX3glHbpIxqsvVpd/iEJTBfcQO0GQuH+JYGkVHAsHwhiNZbI9tKcNwu7AgOExZNXZg6z01q4pWC0nIXLnFOxblq8c0E2cQw3NmjrzGFUWljCP+PUvnZP49SriTdypaV8GPM4YOCWYYUzGMo2SiOhSEcEACUxVUGFYQkeIo4/EVz8NQzRzKLljUQQGLgIlYSmj4gBBptBUft9v6JgwKHzy/BAB1Up3qmJSZ064LGWvosLEZ0v8AqVzYRz8YhoQ6D3qVzO8HY7WGfXN2CBDlbeB4impoQ9LgeXaxLwtw4HSIHtp2/AdscmlOw3+pkYoXRuMDbPixSgjKlf3CEAgiwALkTcDCFdYf1GlB6U59RLA+yiPfJgUNdqpuivOsv+QysAmLgWA2VoQQoNZwxLYMxQDHAIjGCzAi2dpt7hWlFuCrj7lR+hM0FwPo+HbDnDwShZoRnAlt5gxOqtEpQpU5rdS798h9meZ0BLOIEt1gflEAIGnNZvyYxWm8gwRB8NkfQcsqQoKpXF0N6EFezRNSHY0NcF5fbMw9nwej+2BatpV7h+IW1qbUY1jGJeJ0cXomVYDuWYwmjUBqpdvXxiWy16qXq2FmuYa+TvRAaEneUypaKCgbVDgw4mywj3q1Gf2H9ywKJfsGYC89uI08B5qXKl9q/k5gTkeF/oY+YRVIBgciRpTxdz/Rve0heFuwAfvUsXOf+KdQyae6IfmK43yJf1aB5aObPykzNwbRZfFnKQ/WEY/FYZfycxPIAswfAQqYAVCjzsjWLEecH1VQrm8biBUg7gURjOcDf5AltINdn6l1gQ27TWyAAUGekHKAvp4gJcOjYfUfQuAKZbGXgGYuG5T9EpQlZkVsr21iaIhYQCKCasyFpVeAjSAduBnowYCLFybopBFjNBXayl+zcPZDhZs6D7GoNCjUxYOfOYOokr7+/UeEtjm84X6XZMkgYQX0J9y0tqivV19pN74N6M6cg6is2JanmGUB1Fpax5hRt90yTErxeYKVkTpIFoeycQWBIrkpgPmoDMYxThUuuZcMN8zaViw6lQSGViGD5AAIRQg+cLMPBKJzix8b2gjHisYNHyQ5zDT+uVhtXgWbtOEcuBtRa66U5YzCgXaOlA9gptW4gbuxb6gdqsucvPmDy5jQcrKm0TbgSCwELq5deCLY0ZfUZHq0vPmYewacra+ZUGNWmMXH5YuLtd2/gJTBgWtEcF2nQxIjyYAR9oCDN5jBrWAWwSiUnr9x4gWkJzFavFvb4j3MrtvmaV35iuhgiJV2c0ZWIQBs78hgRCuVlDtYxVat8tj6CXj1QbIlcAocCaCEVbuS9yqbyfu2mgOXJlQKIwtX3HHt0mvL/EHEqDAF5WuJnkqENywBe92sM5Tlvlj1sZi+/wBCEmxLZQrlNHRKJd5d5+nmE2E6Cv23G7LGfP8AhC2gbvL6QuNp1UOQPQaPcxkZQAuHl6JlXcU6tNxfRHIOu7mh/EYiNgT3CFkhHeb8OpubTlJup9Nw3hPwz0s55gEtxgAHKE1JWhmaKeeEfGo9JK8Dw5fkYxVnIr76mMl2q3avYYSxvuKYbAOmao/SRWk8G6w9Z4/wjYqHLKzRuyEDRC6huzxzDhvtpt96QUVwGCvRUHF1AAt8RdFimsa2czPneItekWOaLVjXwze71jT7DkgkEuyC3hOLgAASzbp6PEeiBf2httsVDVgc1CkEEvtLurVjvVcjrCDKmiqBEaXcz0eRxuKa0uAK8AlUxhLkYmUriwcGA/LGFCxU5Wj9kcKFY8jR9olCUZAdGrlLAsLXChlQseXAcxy4pelOj8kACwR2ZNzCkhO9MeMSpWsqp8xGAJ+PBIcriVV3SWMAFZ31Uqz4f9TNWcDxxcyYNaPDmZ6JTKHj4uaRcpHBFtlzaTuFqigwwK+AfGUEdQjD4BzN0LO4IMfGNyoZlZWoy3MBcFViJia8QisxLgouszLSoH0EdRSGdDkP7YqP2rgME1Gpx55vuEW6GuLhQAcRixKNyi6b+2DSiitle+zKlmxHMQwxaW/JGuKuzyIdAFlNB7kXqS9t1UMdaaGuiBWzTPUM6+EY6BPZonfj4IUB42/NQt1aQKPUEW5mOftl2cl6sCcoVKuLNjBYjoAA55xsErdHuU7DBJQ1fjtMAy/cvbBg0sF0f9l9eQaWn/phW8rJgGKHAQkWbgHe0upJaaN3lFxs/Y53DUBNu1rzHyNpu0OCBZi1GNAMR1s9hij1Fyjz8dEMtq1DoA5fLHYHk8IgsByNHtUQNTeXD3tBQ7LLgcs2uHJ+iMFVLRgRSBiLNa/uLIqN4ZMSqmH8f6xMyK/B/rK2oSVbn/mILULF21eCC6Jy9SgbDTxMLAl1zP1YjkW9wFX2kGWxFi5CKo7lcKs8RWi470SW9IdqBCL/ABaBZVrWCr96glLN0BJ4S4NY21t59aiI0ORp6gDyB8iHuKuwzFb+eYkgeKfyWNhuzLQHmy4rIneB+bqXinXgGOVlVwMW8CumEkKq3Nebx6l2AA0DSKaWhpZtxHcbEuOqP5gEp5f4jFLR4DdemIsWkvJ94j69M4S8LshDIotVfUBakS4/ogtLLZnuHroBPlhuSmn/ACuEWR2Cme/cGtr5suvBCVv3eDiGH7lxUrHL3GGlhQKVzZyxyay3gYbGrI8K1fpYNjZVj0uMQ6B0VRY/cELNa9cjAlNCXqjI/iIYLRAOXMC4ApvyfVynNwXMZXCOEfodLCGBFlpzDONWPxqFyr0ncymw5GrloPdUIhXX68RZi5v4YqgI6uNm5hAFjtNTMVKglM1K5YlQfAUlUovMHuXTPCajohmUDMaXNssblQiDxFQM1x4UiNwiVE2ev7FLIhbQOg2ErOze3L+jEO0/WDFw6BBWyGtqvETJex5iwEF9977jAFWYO245lb1uO1H7Qq9ENJsnZnlQxcVBsg6k222efEyvMLoXLE1W2GTjjHMyRwV+5e2G8dhp2eYOCdeZ/pgaHsW/5iGOEO9gXPWNV2aBmUyNmIRQzlZglUmu7lsUjADUCz5/M4BuCxU9aCOS619rOf8AE5/O2LRRQn0iHE6Bb14JnQG1dbYzfC+HUGov8FgmNFTCA2b+DRCwRbl8GiZCrY9WyxgoH+gsXNujVpyxVZYZNfassGWtcCUPogYgNoUvgueUQBXlfMua355YCWUfohxAa28BNkl1WLlA0urizc8OYlCrcYjrKznXE5Kjmj+5cOHourhoAD6ppSjKsKsHZT+JiGf3cRp2R3CqYs0wwArsX+JdbhDZvj/k4MNtXM5YbaD9wKofxtEQBeTg/bD/AM2jiTnjRtb1L8N+mv0xshqc3BMZTaqPbY3H+mBgSnK2fy3MIu+8SYT4xyPDEONXxEJW067jqN8yhHNQVt2vysJsI7b30O4nXg4U/dTliItH7UlSh9hSW8rZE0Qs2r+U2hs2aFeaQiApcrd+lms0ixsq68IpRfYbHl0jCoPCqD8pMsK3Mekl7yEp2Viw5Y1wBdukYKgNpf4HuGzmjUOo5ChI6P0lCayNWApAQxOS2V3Te4HWiK5ex3ULzdm0S10G2zFuCJA3aayLYTxi6l8FsFjZlE2+V9kfoWXsUGJnRkxHUYaIWq8B+tpQQhOrOmBkZY0/JFomznwxBUtRQG8pzCAt+pdr8oG0IXcx0wjkxAYJUIBuXJRHViABZAJghEyV8jRHDc88EwMddw8/i0zBDH4Hhjtkz0imiIiU1DAhKxGP2Xte/wDnUwBp/pliXVve3RUKa3JOVeBNYiAcpwLGtApu36hApxk4HQwtT0d2hEnGqGjv/wAI2iIWvH+4QS3yrrxDlhAtaLglnzcH5MGmLnVjtS/ytQZNZaa3H0pm150H2xiFwC4IYL+3wdS26Iy6OYyAaVhvzKXxfVIQo+GLYOg6d6PRBVOJ21AFkdxhFHiVNQDcJNS/GYzE4PPD3xEcwMnv57JuC7pLPipkdVpxfBAIpd61fL5YNUPZ7hACzJCsTOT05Zmd6Pz/AMJbWyB/LDP34hzHHpCTseIBXEBLrSbDUnRFRXdI/iAKak1y/ETQz0jLyzVlfiwa9EcR6XK7r+CypgtNrJNC1GqrLyEiY2HO18TSBRgOPcqhrkWfRMth05nwGUSjwP8AYAwYAcXzUvbR9bJVoFdQrykA3T5ubJm/2Q5Bk6NMU1p06+o6AePMTofROSMnN+HcFL7CvClzEnyyIS8avmIbQyyB9C5S0CpdYSNuRLzSmvuNYbqpc+2CrdU5G5Ky/JrSDesmqsfmLmBTeg/6SwBpxRLfcWxtYJUIBhACij75iWKOShYD6ZckanWnwIhSO2j1RG7Z1/emJQaIWvsiVMq5kB1IwG8OCI1jhazPcJzTaxBaxClKAF+CAioFQ7ZcDo1E4UOL6ZhCyUAffpL8i/c2rEPcCVNS0Xo6U2xsBADpiBcaEUA4hYwcqYWoUrA8129Qnah15FFEel9J+wuSKQaGVij+wJVastU3geky7WRK2YN/aQPXmPAcSU0KMhYU3Dq2NGa5rPcLpCzHkjmYPF6fJKniBetLueKxDF/GkzuzEyRbm8wIyC4FEECGE0i7zG/+GEGblXMVGO3FrbBBUss1GEmEr5jl1wBzCJfxApKqgopQykwKruLRF5Ep2iDqCUCsT5PE70lr1O4zLFa8IrRq0VCIi/bX4WZi2nwB34IKPchv1HMahT2co1KObH0KnclwOA+YGS3Hk/8AIaWVi3wTDWMJ8GLhXgynnEoo12taEdaq1XIPXbKigDyOAQYjV40VvLFrZfdq9rFzjACsRRIA3Zn1mcrMCCuCBQSyaNu9sVti/o8scEI2dA5fBDqVEb5P6CHg5x3nFzY4zVyvCVTJb4vcVXaxL4dIfmN4vojprbOMxtqHaG6PSVdlhcR9zSfbEuBos2wC4wa8RNtZyOl681LarxLD8BAN2BNiG9sne42qzkkoKDTcg/AeiBTR5o3LZQ4uZ9dFLwRtiVy6R/RLa2jwaGMxAWlcHa9RtR57/U0Jgly1a/yZm4eSaKmwhImUeiN4KL3MCL7amYQeiKArUYWBaGGawxdxKB0/Vz18xP0EFVg5ASoCoxm+kx/NRV7v3TDbTCA4YOmZKZeYgg2G7H2VOUmysM94An7IRJO4u/1HDM1YWxldwYqn5ZVVhpW0G6VkcOZpebICj+o6pdQKWvZMh8fd3Vznlixz/wBS8bAuK/F7ZfoV+WO0zygJykzYQoxy8DiKELM27dSKRn0vejBZ7hTNu4S35NfUU22JR+1ywZeizHt2xXqzavc5rQpYqi+IIAQKqNOVcwY4KjIU544YLRvQleOJbUUBwlkx6WmM6lreMF3yvgAggb2KeSgCJqKjQj2VndvuNuCm8JdWQvKgLeHo/ZEraQApXYz9uNDLcYtV1LMoLLcS5x8mcuDfUzEyikMDEMIo5k/NXtmGKquUqBc9QLdyqsy+I3xK1uDygEwsCOtSoMfGLItfDkhRVWXDywWFX5iVQ7mQW8sJZUu6oFuXoeWGin6nBLw2UYvpj+pVaarZz4T3KtlY7GEkUG3fiM47nE6lHTXaxczDcOdZwBHdqk5wZSkGjHGOoNaXfRzMOTe8Rcy0YtHzYItyd1GTFHxYtIMpelmoQtDVUQyX0cquWdPmtTNSpWw5iRFE3H1VIDarwQSrXHSyfA5nP6tDHo8sVUBfZx5lYpIP7Y9rB0eDRHVRdOOCBDtDbE6CgKPLHrlq9hctOtKj7mUl2wCc0hBdWwqsFsVlVqtmfBKA41AEkArLXgWJwBYFra8wHd7uRFDb1uKAlrnxHlCFXEV4O05g4GAUCIN/gkFoA8HPubnDDyfAhFU+BvyKOpymqi/ipZQBzL/LUCCJDQuIq4sq3N9al2Lx5IJ/amogAz6GCd+fcftBu9pKPdhbX8A/1GXVii4mkXtEQUvswRDRQ8zisd6IzVl7gIocuCNWFnaYvzQbUG71n+mI83dGk6g1IBvIViK6G3EsRSUrTFjhgsFfuPPvD/wYgg5fK07V2wByGVhnraoY2KKJRfNykBcKMuvbuNPTRXai82dxNAH0vyY8IwqWQd2ZVBgkDDY80lB2545vcSQUEVFrzDFuJGXANZINVoHWNzcldi7Vmi5uMnGX+SGxMDfi3iUXBtXHiXkKKKxErWKoFsDMtFG67A7z/sCslo0eIihgo4brcDLgWrl8mOgLFHnLcqEGA9o4mQFQH1HUoAyFlHi0G5l/UNaCpmMZoJcuNMrOg+O6o2AJgCBqPwcKxX8EzGmo1ZWGW0S0u4I3HWc1QwoCpVzHK7hRViLRSEPnFB8SRz3Kh5RfBiPtmT7lj4QWx3CQZMPJSpgYFD9B5ljezrirxHh23rQGW/LLWOoNdfBKAbe3rCcOYFVeWvaKGwxbBKA5PtrlMUF2Gvww2G6c+4JYSRdUbLFFEFXGXoKU2sXSV4aAZWFEdgiHQVWWw8jKAN6O/cGejZW42A2LqJo+RqvARm+UuGe8uYHEEsdRxyTEcIMtbYWuEA66ikRQX4+VLOINOXzFyyjR6mdU21oJUPv/AKsfK3ftTMVP9mg6B1jEM4xvHr4sSxs7h62h57myWkHxd7ZWbaLty1LH6aQji6eWWhY3gefMVSZ58mXXbwTCGnRELiF6eBzG/wBA0QS8B2pRnk0/pcqy/NJ+Uin0t/5I9IPX/bABf2SuZA939QiqH3Alsysw3Rw/aNgCn8qWgWqEPLSc3jHocnH6JUKHtkFgTVqbUI0gj8U+oofALRWMja6jsB3+YiXvU2UhCIM7AMBSVOzC/DUF9lBX1HASujTP4BogxgBVBRfmM+qabKvywsbveYYBA4KWyuMsGzbqiAMKidV81OGAyGjrKsGDhm5K6eoEKNulroeKiJCFehy2IeRGSW1sQhKkp1WGmlsEL0ZiJ8XKsRVdXC55SyT2RDKPmISwrkUMseWLgzWTMQdpbvduHUFq4DRR50xODolQshGXm/ohas3bxuU5gcnJ+WIKiK5hmnRL062OHyPEW5GOuplqLMRa1NktpAWy5gwLJUajJjAm2O/DMxMWyeoCymYR8FSTAl7mHdfAtwaCWBSVgr4TR8tJRF3M6xR52n5YwcBXvkPuZ1vcALgwagUGc3DJc7fEooKLfbGbkSUPUp1TRp4Rg7KsX3vnwSsjIvbIsLe+LiVC0P5NEKzyXf0faLALd5e2DjNfmVKyWG3fcMgFvNBcrMl5XQEDhItwsOaQcFMq5r2vEoV1lVQedjdEEqSofREBuB3KRxsuDlJsrUps/wBQRFrEo8GVWFhdcgwNXLKlaCTZRKee6FnY29BKcXm4A6jQq1om+m2uo61mRfISPODbFgG1LtY1QYD2EJva5gu6BX2sqhL/AOspY4rcUQt5QP1Nr9Tit4gAHfJwZ3iBPH7xjAim7v4zYivGK1k3jephjgeYxNPntvPOW1le1NRfRpKOd6/2zBrzOWh7/wAS8Pm2Mb9Nv/TAJ7JP7jkPcKsRX4RY6xOqk3PugmeSppYNZciRojliYNjkwP1cvQAfTHr0VZ+4RoTV/wCLnKbRQpC63coeQamk2xQ4+LYQpSUdfwNQ2LdDp3MoHqICSdtEqwlkIU8HMWFBY2UR2hwaolFGg3YU5lNX4rRjLllMlv1EtE1W4w2sVHdHTDmixYO1z+SGJqbFXmsQYNYuIKf/AEMeupplsOsXcS43y35jtq6aHiUW7u6i0KpA53UWC1kMh1MtGnu9wsCzmpQAxWmL274I9kF8Efom0D5imVmGYdxfEaUxNImJxxFMSoWTWChhjEWw84kiYVMd8xkJnMhExGzD4Ch8STdTBjmMpZ9SsYlbK4YfC+LOZdyweCt9mj8Sr7LV+oc3C5Ye7ZULpY+tqCs4CERQNwHu847SXntKOl/oIH3nf3o8ExyN1+XZ6ISiGyvXkwqtZC48jGGTb6AzUGhjcRIpSMqCg49txi+uhqW7kdtpArmxIwk1BUcUAIaDolbIGe0ABXji4NNUmF3FFqf0e7giDR4KtSw8dUuOnoRMdAPBx/bGBx1H6fDkxV6XiUxL0wCDd5ZYykTU2hCsL6Q1DV76uNw8AEvCsGoSihiAodrMkRVQ2xQG1lkEKMGghga1KOehiaa4bT4DuHmOqq+Um1Kye4WSuj/uEvV9x+oVXL2zO+xTlGoIPsBM8aC24PHc8IznG7YrsLysGgD6hEao95fwgwBOxP2hUE85v4JGnoyfzCZ5mh9k2gPxf9s9GutLy7+gxdEHlYRw15tCD2VwIlFdCZZVvoq5V+JrT+pdgfA1/wAmCGkppa9sd8aGT7WOBbwQBldhQqWU3s2LGYezSAuu2OL1NNUV0XNZC2g0VCmxIKiB2AuZduyiiHWdsFw3WQD2cVxcMCtJ/gJYDtsYGUjXkSsSHLL6aV+iVMCNez0BKwLxVnO5Zh4OAvHEoE1RpcbbnOND7REddxRE+QnwIjvCVNGiC2B5lwfp4m5Kute5WqxFZZVcTbLQuhguZAEB9x2Q5tOoMfBakuXkPGIsSoQxhiUkR5+GmbY75iQSZMkaVTZBHDKk47l2FRlkitMFRiuUyqjFuOMh6jXUG6cz8qAk3V6dNBCvQVb/AFM9cjrzKjO1yzgqi8xKy1bgl9XVfzLVin6eEswKT6VFmKAPTce2WFMH7XE5XuBYKf8A5iG4XH2eIwG3t/ohNpOoiAoA0jBTcG+4onVUs5WVUMdJLAYFTkLhBtzVl28CNG47q81AFgOy0FXja+iLmFwm9a/xFtofRF3QRHLbdnoM4/ynERoCfSxFAWCDegJVADLjayCN7cK1oDglge/AdwTzDnUtRzC8TddsNVMxRlithNGBAq8AFczbe+Z9Jz2rVRDSVfydKJWHur75CidiyMs+gV5hWLoEIAcW+IrQMsEavxDKI8TWFYxcOO9VzVd1PzRU/wDZu2kSYXaf4rsat32ftXZh2nQ0/BOUHzECsbRG4GfZAGRZVkUQpbY4gsH8FgRcT0oOabd5v7glV4VahCyfg/EPoPd/lVHqH7Lq4JCi2mlj4ArcC1xOQHrUYijWLfxRD5M5SFL/ABUa2a3v+5EmY6Da/Bdx8YDjjXNJazIyoAe5y4jx29zQyyEVt+lqN5Htto+AoYoVaCw5e61BYGrpgxdxVoP5ZlWNqRF1WJkBHxvwR9m57SNUA1a0vT1HWBwjwO2FnQIseKl2HScKAKKO4LAACwL3A3JVh7iApyt7gRbPgyThFTOYMagKq2oKBALcJwlOGKBhfcv4UGmx7juVBpmbLGQ8kItP3EOPoqIXcfuUBLHceiEKiXpCPmOqxDfynzMjLPgKzxS5qVQQwmKxRBfiKEetRggNLAAKlHwaR/A//ABFwAppomY7Qj3CHdyH1cqiVtb6G37YqusGo2CYGZQ1zD7SwL0QT6EgfQSuTRZeiWvC0fMIZaw4lc+BwcxItLEtri2VhrDQ55FikilQdrMwx0fVL1WwQaDE4Wxj2YlkPB/cBlB2tEACSWFAZ1yxr0CaQF5iIYY3sX2wZTsL3kuHCFsbzA9POaGNdQ6EzQFcE3UY5Y6XQ29BBhKgg/8AZyyrlJTbWpMyK8Fbn6mAgCFnndUdbTTmuCY5hXBq+jwQg3baIlNzTCWWP2YRLHZtjlpQfth+TQhMZsUPtJy7/wBnjcSzbDh5nm8bqiWq6x+2WvMNVVYy9ECICtAjyZ7/AMhlA2mV4ILgcXmCgqAZY9EDz17dEsWvu366xPj+f6B00Afe2O6uVVqnbnoIGo9YSpfMgfkJQ0TzDdXvuz+RAzQW1oBG1A2Nb8rAcD+r/MtK/qaB1Bor+EcAL5VT7QBwmsNMC/2w2kRoMfuIsBOML+4OiK2tvwgadAVMHjLUECxZxqCykqtw76OILUGsVFmEFORV/hIOQq9FMy0jMbAwDyLhR/sNCrnLvoTQWTFmzwMLjWgfwsCHQ0DK48AqUQq7bteiPwIKEEYTgocFv1e4kyfA7XKvRNCLkNfBW4yRWgtP5cD4goKwN3oWGuhZYJo0LQePE3WlMCMcikXrEUHnEHlYLuTLmfnOGAzDU5amBmNGqikC56isaMwHcFvK36lO+oF+oBseRcBbRbkljV22TJ9GgyMKYxY2iWFdiYcdbzKuGZiY5TDFzYSyx7NSuNpWKzUPiuGIKYa+OKbAjNsHqXcTExKzEASphCmZ/wDgF+LSKpd1xWF2BBgnSL0TBuS60meSqEqz37EthzUoip4WGXFgS+RkjCFhHVPMrW1A9srWs+ujKHtCX+SD4LKc9QvgjCleLjwJWIo36NrKYCzB5hiS9nUST85ZRIHUwUtcqO/KJS9YVbRYc8XBBp2fWeRtmS+Fa7gbULruFmhXmNc9foIkPltO0iueiunXCijcW7Zb3dtT1HuFqH6CCaUCwMAtryhY4DkoPuCUyiPrlgM7eR+o8VL0B5ZmAkJX+oI8bkWPRiquaPwBKQFqtEWmvl5/wS0zmVHMULqLrtS4Q7tgad1rqAuTXDzFSFrrtj3LnZ5CyjhkeL6xYJxoGiUFunfxPt4QP3MEd3aOZTNkuWU8/wBjKbFdTK4ftf1HML5VYrglwWELyETKcYEHngMPe0/AEIL/APK2hKn2Kg3fZM/iPNOlsPy03hDX8SUQvS4zF+bYuXdpfzBfFBof7qV3ExYI/jcOEP2H8Q8D0rn+3+oDREZV/iUsXa2sPzMbBOUjSx35nwdHbLKToI+xuCEVmkbF5iKp2ax4FiGPjhX2w2Y4i+StM1t7E8SzDLoy9agGIYN/gjAgRrp3v0O/oiCKjBfSo1DYujXdvASlsOZBVfx4IKUOVXG5YkGRo8QXlcx4MfjMv72BVwpxLtUQJ/kJhO6a9x1CpneiCpBdM26zE1eLJRzcZGL5dxCAhJiRycQzg/iYhukMLV6i3AU+pzNIYgLEJ3FHGS9RQSZQFgwzLmAI01HhBcD8TO4hrETGJYwMCGEqCEruUj8evBLnU0QBr5QfH5J544fB5ZjmOUPEtLF3JCmBRb7JSRlX4YRCmzxEBpTPS+vRGC6d+B58seWKWZaA2txqHLMSWpiWrPNXCDMSDzAN7YGIIKL7wRroMkvc2NlM3tYzKWl63FBsKy9xVWfqWgTayt0WmbdxWy7Mv3KwLAt0Nq+Ayyz/AIqbV0dxl1yqu4yixXiWtWqL4i7bu4OTKywNF9e2BJvJWuoluFva0TDirfldxF1ZHAmvcuIHPLwHR7h0yfUEehgB15RjX8n8TGBBYwQMxXktrLLYplkwfu68eYiY1xDBGCqWa7YiHJZRFLFXcI83sEkIbBilT7YjOPswT7gfno2H5KzP06iEMq8Fl1mvhAyAeUxOL+f+UWj/AMXiFSnuQz/pQj9xDSfV0+kzP+FzYEyPlD+iLl8gP6lohD0zInf1sJsssLqFlzcjZSBywzOmMU5iObGsMQliwXjv1BpF1gULv9kV68IixVHegTTl+MYyXmUWWruSq+vZdlPAjEWq/OkEXsXpnfIMbp6iVXayioN6uFTQIQRUp+dy0GQ4iylCMl6DqDZ5yvHn3FkS03Ue1u4qvAC0EboakmmstXh4xLqQRVcru2CDisK3XiI5Vqyp5Ivyy1Dkh5ije4LnISZmEDNgt9jUYCr1glnpXRMaID0KuVAQw6PcLDuOEm/qYICuIhaEqZmciKP2EccwZgacMVvYMbwfhUZyaikCQncHE4hFl/HQfDFZ8AYgj5omz4m0YkGJjN0Opk3BiyH0mL9s4Eo8sLsWml6Ex0q2eDRC76Z6INMKtHthFMWqKjeBe2IQUEbRcVtRH46IJHQ114imcowZTlh7suO9mAOv9FlyKA/8IsPHL5I1dRfsgBBla9R7p3RPUqkNjRADEC8HMF07viG3Ci2ly48JYQo5eYi6h0QwhbGCEQKq7jjbtiM0KdsyB0RZCH0GWDWog7dD6I3kLxOC5nPueVpR2+mUP9QENaZe6EBrTa8wbt7TPqWqiuPtjqZHngxOPeN9WT3J/wB8RL56SPxPnBq2O321f/bHzopRtZXzfzWj1YvEF76HtPaSGWC1+pZQsTKGDqJuv3KBbO7E0enLcPbqAGJ8P9TSfM/4rMWL/pPzZiwEen8VgX4Dv6Mbar5/1Y4gzf8Aiy+2GIFJ+kn1x48x1WYflIDfJ5+iPtsMx9/7hmN001yxLfSL/Ces1vG2ceZARh5AmVvtjRCoryWgb4iw/mGCWtUWPYlYpU2Zg9FNKcsSVUpau0vPbuJ/BHPJ11LxEx5sP+E0pcEcAIuhcG1EpQmAksLgB3asrCYgAW0cRkNaeIyG2Cpc0q1H0M5K4gN1249EtZyovm4AeSkEwpNwwxuPaXUuyuuYwBy/PxxXAL9ytCjQTL1juUrAiKQUtUMF+ZRyQxIS2Ja8Pctp4mM424AeTcE5is+aS8xIc1KSyOmPDFDyQ5jNSqYBj43Gnyav5Pwts39PxNk//8QAHxEBAAIDAQEBAQEBAAAAAAAAAQACAxAREiATMAQU/9oACAECAQECAMstBqUqy5jtkBs931nKieMJzMMJjxVxebkNMGtrhBra+l9Uu3G5jtli0RJkxtfPOcDrDXCO+xgMN5VhMOmMpLK2J3pCn5eSuOlzC9zMJinq12cAp4MXGn52qSt1q5KD0jPbYnG9Mnu2u+uxjoiR/hwnbsDEWlrwnWBZjMc9d8JRytG2S1+dMvfzhK086dcaXoxmIvXla3qWscoX1Urq08oaXQOlh9d6a5UxORs0HTqwuvdbGS18cyRWGyYXueF8WSEapWloNy+qS1wS16ngrUu1xmOh5Rjtho2n8QjCYa5VhYfDOXnE0PZhtdRHVcLT3/0WsFHEhlaQct62tMk7RAl7kEyWS1DQ2V+OfLo/h2JUpMlmcxkdJTDlr58L2itYF5aUrSt8d6S2qzHerkao3a6zVsUSMdeeGscx2yXo2sk5OIw+GMNHwkDtamO9ljMVGctMdW3lplrw2WtZ1gRtM2OMMXgcWTJTYRplrWDOcnAZjat3HMhx2RjA06dEPjk4VxmS97EEmKIy0rk9V1at6TnKVZxCUzDnfVJQvRlXHlaoUK6y47Yq6ZzhpmOc5irllRPjnPnnNEdMrSsrMpplZS/tyNu42tuzIcCtTE0xYrUzUmPNe6VlHJalbsMlP9D/AKP3Hsyxg90HLEpClrTFTJ9vyH1WpCUM0dcgjOOq2LDdCUJlrjsuStp2dAWddfo6rDIZaXyR0E4VjEw2tmclK0y5LOuvz0jCd7Wd4G6WzRgYsV8fOAsQB9sZWY7est/eNtMkRAFsPkOIU4nJQsWgQCqOgx1sVix+O6fhhGdGpzbtncUvZe1GBrhTywTI5737iyua1yWrwGVK47Y0DTOzGWLmqw1xAxuWokJac+H5ZWOqUB0a8+MkZWpMlpyleMYAaMdsaLrpDRPbqrS98jMdLxB88rGWnDVdpK6QlI/TondGqUDsDQLdTGWlpWVgs5WiBK6uXjGc88qzjC3qdIYmVjjSB28dVAhEBAJkCpHT88Y7JShFhrmsjaLSNmErOrWUlqs7Rl287zXelhacnJS362a2vfHLwSWeyrWc5vhsXTpZ3r8Y6RWEAHTe114FkZRssqUlh139LXUIwneUxGL874+VpbC46BjQ2UrLzkChVZyBpbhGd+HfZSgLOBXTOMDRWwE6IVlBiRWefHhEgY6kZ3JVmJ7cC9uwlMeTV9VxwtS3e6467aL8vxWhOhOAHVJzrKtXIa4I1lYy2lBhOs8tSVRtlcv69EzWyUyXvjpbHDJa3VJS7VKwg/DO2++apSMNc5Orpjqp6teKThKSkZdtK1tog0rYvGevazvewnSF7ZKkdclZ1eCI+l6WnXb80xx0H0TvORhpWVIQtjv3I+bWdECkW87ziR10nkrSXngKYsmOOiE89E1333q1bznxyldBzTOq2GcoNPCJ1CEIVqNq5BveKSlfHbWYHOFbEYHCFlbCQz/pc7xBqXpUrX8/zcbQr4KJ34rUIANEZ0iFOaxxiNbR2SlVG0qMCIGOqWLapVoY+ZKNfOOl6cYwpXG08w1RszHbjQjf9O84VDO75WgdIHFbWsJpSOqpZlolq231NFYGqymrxCY6FPy/O1Wnmlb440cQVSOO1aVyShfElb1vpGgj2WvkJ0lagwCoLZVCCM66ZV7bTOSqREx0XiM5WVeePxJ+xntnchEYZrZi4qTpdy9btvf61tdreuUtq8q9bdVOUoDoOq6dn1YlbTnL18kHpXJkrCJYQMdSesl1IUMZT8/za99AYvx/G+L8bUrjcPn8/KJ55W+O8ySkY3iylA0Q0q8Zzmu9214bSxoVlUZaFe+6hRw/kH6foXZ4acFK0cXP0pe+QyRpxGhjtjTlITzy0NeaVqL3ROzgIw12G//EACYRAAIBBAICAwEBAAMAAAAAAAABEQIQITEgQRJRMEBhAyJCUoH/2gAIAQIBAz8AyY0QS0JLRg/1eJ454S0NwR1dK8lCWimGoIqfFrRV2OWxqGS5IqmSaccNmr4Jdk2aNExk3kYz8+rJBlGDBl2UEDd4s2YKU9Wxohu+dXwR2UpbFUyHeerdGiTxWNjkSoghsdTPFK7MIhjb2eRAkKFImbGNfV3abwiXf8EZvlCRJPRDRhWgSW8nk3epYK6iuNDRI3GIEfgillL6KY0Jzgh3jMDryQ2S0KmD2TbKEkNsmOD+ruyQp5Y4u2LzQnd8cigzga0x1JTaRRsVmnm+bpU4HVVAqESSYFkhk4GyOxdlBT7KPYuvqPd92yQSzHGOUU5Z5N2ggkqqHQeLkeMEkjpeyVs2QySIKX1DtgyyCSZlkNsbsk0TgY0TWx9Ic6tUh8V9HFskImUr5E6bQSxLLRSmfgks8GtO8uzbghJQJzgSbzx8WJqUTUyLSZMcJGru7kZ4yKV4qMEsy19jyIyzEIy7O0K/+pEkKowQrxZyiIv/ALFapObSVNFVOxHjhvBP+lZ+7SzB5SNMzeFwg92wZP8AaEqxQLlH0IGN3nu0iStTSh1MhWlESZJMDvV0h05tKum7YG2NEYqE8plS6Kn0RdVjofww79k1mPqsc37tBOiGhQOWOLftkSbEQhvobThEHk86KY0eiCDytDRg6KdiVQqtFVD0yl7UFC0UvsQrxZvk5JpTGKmmES5G5Ibx9WDBF2+yCWODJi0H7b9smxCFEWiSSUQ3dElSUSP2P2SNErOSl/jHm1VK2ST8XoakjoqreBJZPFiq+i2JXzkhCJkkWyGyDBFm3aLyNWzFoHOyUrZ4QMk/Rq2Bs6IJtAmuGLtX2exLokf0Z45GezY5MD8tGTFpcEWXJKzq7tAo2eTJPRUrpiEZYrIkjAzCMXZK2Im7VvRBjBP0Jy+WRsi0tCpRPCHaT8tGhsTEiPg/RRdKBexdGdi22Q7QNiwYRB5Mi0LF8cJlMhtEfQkhcsiSJd1GhzwZNovPVlydlwnq7ZKHSeRggbFKEYIfGSCSLZJyShr5ZtHyITeiCUZi+OX6ZJ4odpu7RsUYGx0tDjZOyHgm6c2yTFoZJ2ibzgdJPyyRwnjLJtCc8Vgm2uEWnkrT0Z0KNCptI+kOnoZgySNdkvYlTMCcn6QK0RkT55ROSPjm0L4pvKMsVoJI3bBsbbEibTxSFaLyiHdNGSEsku7cM6I6u6lI0839Mb4tcn8Eco4x8EEnSMK2MK/kJYQkN2q4KBJMzscEkaY1sbtPR5FNKM7MH6O8KBPPZn4p+H8O2vlnhJJHDJMWhWdQqVCHeXJ+EWgfKT9s2OgdTFHGLNEjXxZfPJG/gxxkgyRb84w+CJElFPD8shT8dXojZ5O36eWxU8Z+FfFr6GCZIJFAiEzDvFvJiWKf/eE2gY+H4QK09EDgxdvsgSpg83nAlp2kiyga6MkjY+EjIWecWnhHxYI4sl/gld6R4Uwtu2OMXm6F6N2lDVR/i7fQ/Q1sas2NDRNsE7IeEQQIngkLHKLT8sE2yuKwQnw8KZay+hsgbdpfCBvA/RI/TI3BR+FCko9FD0mKZKYP5Po/l6ZRTopSFUURoUwUpFMCexJSiB0sm8n6QTwcJ3nmlynnN2yOLO6jybvHGRN5Z/KliWkT7N9ldRW+x91CPHSKquiv0VvoqPbHoa7Kn3Z+x4ka0OMlDWRTgg0Jq8PhLP8ADm+M8Isx/JFp4Qp4SzPitIm02/bMXuBdD9n7Zvq1XoZT2z+XbP4rqSh6pK3pJFfbRS+8kMzhDGh1FSHOhtaG+hobs0Ndk8ZwrSvkSn4ZtFptJGBK2UKimO2SyLYs2U0/rGypjJ2yhdyfzRShehvobPaKPRQukU9NFT1Uyr/sytS02NbrKF/ybP5PtH8vZ/N6JJeiOikpYsnofq0MlWi8j+TPB8f/xAAdEQEAAwEBAQEBAQAAAAAAAAABAAIREAMSIBMw/9oACAEDAQECAPEosX0sSj6V82xUCEOEZZD69meSDL+j6lqcesYWjGtIyp82qVSkuefLmMpYdmQ5sZsesxhx5vkVm+nMrLysr0mRt/RtvpetvUzyIz1mVoTV+9bT6Llo0xlLJmVj5gzfi1Ggn4Pwwh068U75kberWVoRjQlk4RGZ9Vbzzlg86+ZMt5/JYjLP39aO79UswfRoyzW3zW0vKSytphNIwm8YQ7kfycOM9SkoXaxhGVgTfiw1pW88+HNjPQnkp6U59Do5VOWhVsNaqWbKS121n6HAzmsZkYRf8CHPW/kERn0K15rxMnrWoQhGN9a/xBly8u1GM86sJVJaalaMT4BPRZuwhzf0kyYfohCWbvnQdvGHBv6+dtLZlqgxlZtrXtT0raBti9LVBmVNlGrY4fhiekuUohTr06f6p9PrSpCb62gjZwfqlh3mBz1iE87Qjf7tT0rW0Lbz6oxCb3c9BCXnm2hDmQg8fywWPMi3aVrWM31mykvT5twaWn3ukIWl/JPKuMtbzuWvS/mQIvPO9bPCPHhPQ3bvlLTZnD9P4Duql3ydg2l6/H8ysuJGUd2y+ha/pW/nfL+VK6y0oWaufzt5fx/lMJ5zMI8YwZeu1A9WvCP5x5n41/C2fPgTIkYcsIlRSX5SXMo04nyubDnyDGNP52pTrNj2r7VPIqtvOofnJv4YDx7hLnkBvpenpsZjB2w1JsuZSpX0CecUfpMmsrzce3aQj1d2MvYUDWEzhN/LCEf0dAPVpWo1YL3bW2sxoeZUl/P+VaoWFdVuXHu5LtZW3Fe7Lyrm2hM5p+l5q/n6+qQja0oDL23lncn2ehbgS3NX5IzLUrUVHZqsITeLw5YYcvA0/LFOPH9L9KHmVbJCKxAlrjsSDWEJo6jNHEiM+xZW44zKGMYsXV1WVfpgoRjw4/lhMxisIygSpaYTLTAtLz6IxGVKgQ6HyhYswdsfIYVtzEqPGM3m7rHocyHWZmsCEYovCoEFa9uAK24crMKgsI81u3+q2Fsehe63Fms+mVVitmbsWEzm8fwxTi91ikYJNmrVmIm2lmHCbNbiMWy8ysC5hNIEW1vMhy141RDuixqcOP4Dm/jbPGEJnLFJu6iMYQg4wjMDfojEKfB5gj5lbUrWzW2FCvyDLV3Uf0cT84RmqR4xSWhMQPzWuAmstLwKhG1RjEUlZofIQmfOJjErRCE3YiBETMQEJY/ORmk3ihlpWPV1gwhCWRspasrNA48ukqZPoYHGa2ZWVZb1pdgkbT7LLuzOETO7qrN3WwkZaEZgWhYsJACX59LUtRlaQNslpkURbCc3iQHn8fmjFiLW1lt/T7PQv9Nv67k3I8ea2hNVgHbwg1RJusshBbRYMs6cIut9pcvtrVs8J9PoX2LEBlqxcrR80YRgAd1uMYxTgReEZqfBCDW9YcTdixSPLTCDLRfv6q/RZvW3zpaWqpYbWpLNby1WvBPS1bVJlKbpGWd361SBgPMB5hEQjCFiPNGzmiTZYinovw+VfIpmj8Hm1w7YKz5zPhKjVq9829QBmTbWebu4VxdmYvaMesq/TMtVaipC27Z1rWoRW7Zv/QsHxn1/U9D0blm56FvvS26xEnmejU4mqsUPkqEYpMm/ggjMCDBTOsBcCz9no+/3n83yz6rct8haxetpcqNU5o/Q7LMPTfpRbMs8CZnLQKkXMe//xAAnEQACAgEEAgICAwEBAAAAAAAAARARIQIgMUFRYRIwA0AiQlJicf/aAAgBAwEDPwAXEJJl3kyj+JyZL2rxOOTDEoVKHNGq+TU3yWtqfJpT4E0izktUVqzHOz0dDseC4yYZV7Pf6tR/FlsyjCLRWosqbiu4bXJZmi6MKPcIyN9DdYKRcObhot5h2i0j42XZc5LRS4PjksdsfRUL9J7Ko8xSEWxJFmbnE4Y23FFmXFobZ8ZTNKNK7LEaRwzUMY8FxRYkYKTPkZOnGGOMFxX1uKivo4Gx1DRgxGdqVngaZZR/JxhbscjuF2U8S7GULVlOKa2Oz46bHrYlFtjuixJCLXA+jUPwO+C/13xGEJwrO5rfnCGkeS5WnlnyE8UU7K6MC1JlM4O4bsa2X3NpFRhwjDY0kJcs94Mimv1MzeopclqMGTEUW8DcNs4ij0IuUky3djVZG4xNmTChlFxiLFvVHB8x1ziL0p/a/r+JZbs4K2Yj+LG2PSPzFnouFl7K04UqqlI+QyylThRSii9jvZkbjJSL0svQjP7CYkeh0NdDKGYG2ipo4MFFijIr5ExZZUtJw0xUJ5RfB00K+RIufi/Rpc31NzhlFmKsrQv2fRwMvuPkh/KmKkJOMcZ2ZVDE7KEmfI+N1yO+Tovss+MXZTPQxs8i1DXBqZqRQ44LKK22JopsSQ9TKFx+tfYrMzXRcZ2Wejk9S4zF9FFMvZQnkoXiV5KhicVDn1sahOixaUNvBaHpx+qqMj7jiiuC1yWKyyxJReDwIoQujmcFRiPKi59FxmFzFbMGOJ4LZyoUt9i0r6l9tITOKHOOR1KRcOLnnA3cVFjKhiuK4jkZY91tlbqe3yM6oov68fViL7PY0PUUjE2Yj3FiQ0x7kMZ6HZXMWMa5PQxngzYpsWlb6OYazRdOM/Yn9WBsqOR3yYzDPIittd7sRZ3ey9tCZiLK5LscX0VF8RWx4MFFPIn+xwVL7cOL2Lf72OVD8zcUWiiqaLWSoY1GCotD21ksz99fRSGjBdbMD533CKjO1IxgZfcryJ8FFz6H4G3Q0MueqKKMYjrZX2V9S20XsovjYkuRsr6OtqTL2eTPGJSFk7PcpMwp9FTkosw/sv7LztxUpldCLb20XkbEo8T6HY3CKhM6n4jZzgsXBSnsYjwIy/3HGNtdzxFTmPj2fJ2yhuK2WKfctFjKPkjG66hNFL6K+xbb3pFw5uardReWJRUsZ5+nyIsdR6K4HqFFRUXC339lfdiGZRkypvk9C08nb3WLb7i4ULyZmuizJ8eBu7Qii6Ocmd1bcwl9N/bbOL20NlRg+Tv9Gi0Z5mjT2xMULxkRZSitljoalllfq3tsq5to6hD1NpPCK2JF7l20aerY3/XUa/8ANGryjUuzV20X5PTRq8s1+Rt5G2Uah0amx9j6Zq7LLKmi+S8w5TYvpvfW9VFFmJ5LOkVwU4uPOyuMmtmp8srih+WaUaV0hLqLK7EaEuhSn0aV1KEI1Xg87rRzNIzssqWWV9d7qOEYmjuLleC2JdjfCG+WepQxds0HjS2flfGk/P5o/J3qZoXLbNHSY0JrlFxZRfcLztUNDMRiLKipvff0/HdRm5VWfJlbaG/SEurF5RpuqbZX9WPwfk1cKkfkf9qH3qbOCuz22ar5o1P+zNb6bGufxpH/ACj8fdf+GlrGg8aDX1oPyf5R+T0cFLOIdDW1GSi2VFCZX2VNxU//2Q==;movable=0;resizable=0;rotatable=0;deletable=0;editable=0;locked=1;connectable=0;" parent="1" vertex="1">
          <mxGeometry x="470" y="350" width="520" height="174" as="geometry" />
        </mxCell>
        <mxCell id="7rmnt4tBS1aKSuY08tFZ-4" value="" style="rounded=0;whiteSpace=wrap;html=1;fillColor=#FFFFFF;gradientColor=none;opacity=75;movable=0;resizable=0;rotatable=0;deletable=0;editable=0;locked=1;connectable=0;strokeColor=#FFFFFF;strokeWidth=0;" parent="1" vertex="1">
          <mxGeometry x="470" y="420" width="520" height="104" as="geometry" />
        </mxCell>
        <mxCell id="7rmnt4tBS1aKSuY08tFZ-8" style="edgeStyle=orthogonalEdgeStyle;rounded=0;orthogonalLoop=1;jettySize=auto;html=1;" parent="1" edge="1">
          <mxGeometry relative="1" as="geometry">
            <mxPoint x="550" y="390" as="targetPoint" />
            <mxPoint x="550" y="390" as="sourcePoint" />
          </mxGeometry>
        </mxCell>
        <mxCell id="7rmnt4tBS1aKSuY08tFZ-5" value="" style="rounded=0;whiteSpace=wrap;html=1;fillColor=#FFFFFF;gradientColor=none;opacity=75;movable=0;resizable=0;rotatable=0;deletable=0;editable=0;locked=1;connectable=0;strokeColor=#FFFFFF;strokeWidth=0;" parent="1" vertex="1">
          <mxGeometry x="470" y="350" width="190" height="70" as="geometry" />
        </mxCell>
        <mxCell id="7rmnt4tBS1aKSuY08tFZ-7" value="" style="rounded=0;whiteSpace=wrap;html=1;fillColor=#FFFFFF;gradientColor=none;opacity=75;movable=0;resizable=0;rotatable=0;deletable=0;editable=0;locked=1;connectable=0;strokeColor=#FFFFFF;strokeWidth=0;" parent="1" vertex="1">
          <mxGeometry x="860" y="350" width="130" height="70" as="geometry" />
        </mxCell>
        <mxCell id="7rmnt4tBS1aKSuY08tFZ-25" value="&lt;font face=&quot;Garamond&quot; style=&quot;color: rgb(0, 0, 0);&quot;&gt;&amp;lt;img&amp;gt; element&lt;/font&gt;&lt;div&gt;&lt;font face=&quot;Garamond&quot;&gt;400 x 150 px&lt;/font&gt;&lt;/div&gt;" style="text;strokeColor=none;align=center;fillColor=none;html=1;verticalAlign=middle;whiteSpace=wrap;rounded=0;movable=0;resizable=0;rotatable=0;deletable=0;editable=0;locked=1;connectable=0;" parent="1" vertex="1">
          <mxGeometry x="580" y="360" width="80" height="40" as="geometry" />
        </mxCell>
        <mxCell id="87meDsu-j1yCS33spsvh-1" value="&lt;font face=&quot;Garamond&quot;&gt;object-view-box: xywh(410px, 0px, 400px, 150px)&lt;/font&gt;" style="text;strokeColor=none;align=center;fillColor=none;html=1;verticalAlign=middle;whiteSpace=wrap;rounded=0;movable=0;resizable=0;rotatable=0;deletable=0;editable=0;locked=1;connectable=0;fontColor=#660033;" parent="1" vertex="1">
          <mxGeometry x="630" y="460" width="260" height="17" as="geometry" />
        </mxCell>
        <mxCell id="D8Asn0HFDu1QPb8A9QKa-2" value="" style="endArrow=classic;startArrow=classic;html=1;rounded=0;strokeColor=#FF0000;movable=0;resizable=0;rotatable=0;deletable=0;editable=0;locked=1;connectable=0;" edge="1" parent="1">
          <mxGeometry width="50" height="50" relative="1" as="geometry">
            <mxPoint x="660" y="430" as="sourcePoint" />
            <mxPoint x="470" y="430" as="targetPoint" />
          </mxGeometry>
        </mxCell>
        <mxCell id="D8Asn0HFDu1QPb8A9QKa-3" value="" style="endArrow=classic;startArrow=classic;html=1;rounded=0;strokeColor=#FF0000;movable=0;resizable=0;rotatable=0;deletable=0;editable=0;locked=1;connectable=0;" edge="1" parent="1">
          <mxGeometry width="50" height="50" relative="1" as="geometry">
            <mxPoint x="860" y="430" as="sourcePoint" />
            <mxPoint x="660" y="430" as="targetPoint" />
          </mxGeometry>
        </mxCell>
        <mxCell id="D8Asn0HFDu1QPb8A9QKa-5" value="" style="endArrow=classic;startArrow=classic;html=1;rounded=0;strokeColor=#FF0000;movable=0;resizable=0;rotatable=0;deletable=0;editable=0;locked=1;connectable=0;" edge="1" parent="1">
          <mxGeometry width="50" height="50" relative="1" as="geometry">
            <mxPoint x="870" y="420" as="sourcePoint" />
            <mxPoint x="870" y="350" as="targetPoint" />
          </mxGeometry>
        </mxCell>
        <mxCell id="D8Asn0HFDu1QPb8A9QKa-6" value="&lt;div&gt;&lt;font face=&quot;Garamond&quot;&gt;x: 410 px&lt;/font&gt;&lt;/div&gt;" style="text;strokeColor=none;align=center;fillColor=none;html=1;verticalAlign=middle;whiteSpace=wrap;rounded=0;movable=0;resizable=0;rotatable=0;deletable=0;editable=0;locked=1;connectable=0;fontColor=#99004D;" vertex="1" parent="1">
          <mxGeometry x="540" y="430" width="80" height="20" as="geometry" />
        </mxCell>
        <mxCell id="D8Asn0HFDu1QPb8A9QKa-7" value="&lt;div&gt;&lt;font face=&quot;Garamond&quot;&gt;w: 400 px&lt;/font&gt;&lt;/div&gt;" style="text;strokeColor=none;align=center;fillColor=none;html=1;verticalAlign=middle;whiteSpace=wrap;rounded=0;movable=0;resizable=0;rotatable=0;deletable=0;editable=0;locked=1;connectable=0;fontColor=#99004D;" vertex="1" parent="1">
          <mxGeometry x="720" y="430" width="80" height="20" as="geometry" />
        </mxCell>
        <mxCell id="D8Asn0HFDu1QPb8A9QKa-8" value="&lt;div&gt;&lt;font style=&quot;color: rgb(153, 0, 77);&quot; face=&quot;Garamond&quot;&gt;h: 150 px&lt;/font&gt;&lt;/div&gt;" style="text;strokeColor=none;align=center;fillColor=none;html=1;verticalAlign=middle;whiteSpace=wrap;rounded=0;movable=0;resizable=0;rotatable=0;deletable=0;editable=0;locked=1;connectable=0;fontColor=#660033;rotation=-90;" vertex="1" parent="1">
          <mxGeometry x="840" y="370" width="80" height="20" as="geometry" />
        </mxCell>
      </root>
    </mxGraphModel>
  </diagram>
</mxfile>
